<svg width="182" height="24" viewBox="0 0 182 24" xmlns="http://www.w3.org/2000/svg"><title>client-logo-myfdtps</title><path d="M5.077 17.742c-.079-.004-.154-.015-.233-.02-.43-.03-.85-.07-1.263-.12-.155-.02-.306-.043-.46-.064a21.76 21.76 0 0 1-1.017-.172c-.14-.028-.281-.054-.419-.083-.453-.1-.896-.21-1.322-.34.792.02 1.584.02 2.372.006.258-.006.513-.023.771-.031.528-.02 1.058-.038 1.585-.072.31-.02.619-.052.928-.077.472-.039.945-.078 1.415-.128.33-.035.662-.08.991-.12.449-.056.897-.113 1.345-.178.342-.05.683-.107 1.024-.162a72.88 72.88 0 0 0 1.302-.223c.35-.065.7-.132 1.05-.202a80.84 80.84 0 0 0 3.581-.794c.366-.09.732-.18 1.098-.275.401-.103.804-.212 1.206-.32.377-.103.753-.204 1.129-.31.386-.11.773-.223 1.158-.336.395-.116.79-.23 1.185-.35.35-.107.701-.217 1.054-.326.431-.135.863-.269 1.297-.407.253-.081.51-.167.764-.25 4.465-1.452 8.983-3.097 13.627-4.706l.105-.036C50.738 3.7 62.893 0 76.939 0c8.786 0 17.233 1.174 28.278 9.16a73.98 73.98 0 0 1 2.433 1.836c20.76-.908 63.409-.014 73.656 12.696-17.34-10.713-52.104-8.685-75.861-7.548a85.76 85.76 0 0 0-1.407-1.082l-.41-.304a55.68 55.68 0 0 0-1.068-.777 54.821 54.821 0 0 0-.34-.247c-.45-.317-.898-.624-1.34-.92l-.268-.177a58.457 58.457 0 0 0-4.087-2.477l-.179-.096a52.865 52.865 0 0 0-1.25-.655l-.059-.029a43.525 43.525 0 0 0-1.354-.653h.005c-6.825-3.153-12.81-3.791-18.955-3.582-6.614.226-13.551 1.331-20.478 2.8a238.393 238.393 0 0 0-3.186.697c-.761.174-1.52.35-2.28.528-.318.075-.637.152-.956.229-.458.109-.915.22-1.373.33l-1.149.28c-.37.091-.738.183-1.107.276-5.484 1.365-10.854 2.801-15.942 4.05l-.16.04a259.894 259.894 0 0 1-4.945 1.164c-.591.132-1.178.26-1.76.383l-.5.106c-.638.133-1.27.262-1.895.383l-.182.036c-.683.133-1.358.255-2.024.37-.147.026-.29.048-.436.073a92.986 92.986 0 0 1-2.08.325c-.497.07-.986.136-1.47.194-.139.017-.279.037-.417.053-.609.07-1.207.13-1.796.18-.127.01-.249.016-.375.026-.46.035-.913.064-1.36.085-.18.008-.36.015-.54.02-.412.015-.816.022-1.215.023-.154 0-.31.002-.46 0a28.73 28.73 0 0 1-1.569-.054z" fill="#FFF" fill-rule="nonzero"></path></svg>