<?xml version="1.0" encoding="UTF-8"?>
<svg width="203px" height="30px" viewBox="0 0 203 30" version="1.1" xmlns="http://www.w3.org/2000/svg" xmlns:xlink="http://www.w3.org/1999/xlink">
    <!-- Generator: Sketch 51.3 (57544) - http://www.bohemiancoding.com/sketch -->
    <title>client-logo-liveraise</title>
    <desc>Created with Sketch.</desc>
    <defs></defs>
    <g id="Welcome" stroke="none" stroke-width="1" fill="none" fill-rule="evenodd">
        <g id="Desktop-Copy-20" transform="translate(-539.000000, -3828.000000)" fill="#FFFFFF">
            <g id="Work" transform="translate(0.000000, 1642.000000)">
                <g id="Group-Copy-3" transform="translate(341.000000, 2039.000000)">
                    <g id="Group-8" transform="translate(0.000000, 80.000000)">
                        <g id="lvr-logo-white" transform="translate(198.000000, 67.000000)">
                            <g id="client-logo-liveraise">
                                <g id="Group" transform="translate(46.363636, 0.000000)">
                                    <g transform="translate(0.000000, 0.048951)" fill-rule="nonzero" id="Shape">
                                        <path d="M0.0388094176,3.14425038 L0.0388094176,28.9816704 L19.8298616,28.9816704 L19.8298616,23.6609496 L5.87948087,23.6609496 L5.87948087,0.0369494498 L2.98015476,0.0369494498 C1.34140521,0.0369494498 0.0388094176,1.4841855 0.0388094176,3.14425038 Z"></path>
                                    </g>
                                    <g transform="translate(20.863709, 0.048951)" id="Shape">
                                        <path d="M0.142690265,0.0369494498 L0.142690265,4.46378913 L5.73124641,4.46378913 L5.73124641,2.80372425 C5.77326563,0.973396304 4.89086202,0.0369494498 3.04201638,0.0369494498 L0.142690265,0.0369494498 Z"></path>
                                    </g>
                                    <g transform="translate(20.863709, 6.404256)" id="Shape">
                                        <path d="M0.142690265,0.109074776 L0.142690265,22.6263651 L5.73124641,22.6263651 L5.73124641,2.83328381 C5.73124641,1.00295586 4.8488428,0.109074776 3.04201638,0.109074776 L0.142690265,0.109074776 Z"></path>
                                    </g>
                                    <g transform="translate(26.699712, 6.404256)" fill-rule="nonzero" id="Shape">
                                        <path d="M17.3752389,0.109074776 C15.9886047,0.109074776 15.0641819,0.790127034 14.6439897,2.10966578 L10.7782215,15.900974 L6.28216506,0.109074776 L0.105339848,0.109074776 L7.9209146,22.6263651 L13.8456245,22.6263651 L21.7032185,0.109074776 L17.3752389,0.109074776 Z"></path>
                                    </g>
                                    <g transform="translate(47.271621, 6.108660)" fill-rule="nonzero" id="Shape">
                                        <path d="M19.9139001,16.0263065 L15.7960166,16.0263065 C15.0396706,16.0263065 14.4093824,16.2817011 13.9051517,16.8350561 C12.812652,17.8992003 11.5940947,18.4525552 10.2914989,18.4525552 C7.56024964,18.4525552 6.08957697,16.7073588 5.87948087,13.2595317 L20.2500538,13.2595317 C20.670246,4.44841816 17.3507277,0.0641442448 10.2914989,0.0641442448 C3.5264046,0.106710011 0.122847856,3.93762896 0.122847856,11.5994669 C0.122847856,19.2613048 3.48438538,23.219921 10.2074604,23.4327498 C15.6699589,23.4327498 18.6953427,20.7936723 19.9139001,16.0263065 Z M10.2074604,4.70381275 C12.6025559,4.70381275 13.9891902,6.23618033 14.3253439,9.21578396 L5.96351931,9.21578396 C6.3837115,6.23618033 7.81236495,4.70381275 10.2074604,4.70381275 Z"></path>
                                    </g>
                                </g>
                                <g id="Group" transform="translate(114.545455, 0.000000)">
                                    <g transform="translate(0.000000, 0.048951)" fill-rule="nonzero" id="Shape">
                                        <path d="M22.9557061,8.29470808 C22.9557061,2.33550082 19.6878325,0.0369494498 13.7805226,0.0369494498 L2.97140247,0.0369494498 C1.33746569,0.0369494498 0.0386954399,1.4841855 0.0386954399,3.14425038 L0.0386954399,28.9816704 L5.86221368,28.9816704 L5.86221368,17.7443082 L12.0627942,17.7443082 C15.498251,17.7443082 16.1266883,18.8510181 16.3361673,22.3414109 C16.3780632,25.1507515 16.4618548,26.8108163 16.5875422,27.236474 C16.629438,27.8323947 16.7551255,28.4283155 17.0483962,28.9816704 L23.4584558,28.9816704 C22.9138102,28.5985785 22.5786437,27.960092 22.5367479,27.0662109 L22.285373,21.404964 C22.1596856,19.5320703 21.9083107,18.0848343 21.4055609,17.1058217 C20.8190195,16.2119406 19.8973116,15.5308883 18.682333,15.1052307 C21.4055609,14.3390469 22.9557061,11.955364 22.9557061,8.29470808 Z M17.0483962,8.84806304 C17.0483962,11.6574036 15.498251,12.678982 12.7331273,12.678982 L5.86221368,12.678982 L5.86221368,5.05970985 L13.0682938,5.05970985 C15.6658343,5.05970985 17.0483962,6.20898554 17.0483962,8.84806304 Z"></path>
                                    </g>
                                    <g transform="translate(23.129981, 6.108660)" fill-rule="nonzero" id="Shape">
                                        <path d="M8.37247124,18.7505156 C6.61284702,18.7505156 5.6911391,17.8992003 5.56545166,16.1114381 C5.56545166,14.4513732 6.69663865,13.387229 8.91711683,12.9615714 C10.5510536,12.6210453 12.0593029,12.1528218 13.3580732,11.5994669 L13.3580732,13.6851894 C13.3580732,16.8776219 11.4727615,18.7505156 8.37247124,18.7505156 Z M9.67124149,4.70381275 C11.9755113,4.70381275 13.1485941,5.34229924 13.2742816,6.61927223 C13.2742816,7.85367945 12.0593029,8.57729747 9.67124149,8.87525783 C4.05720233,9.42861279 0.202787381,10.8758488 0.0770999367,16.2817011 C0.0770999367,21.2618958 3.76393163,23.773276 9.08470009,23.3476183 C15.0758016,22.9219607 18.7626333,20.1551859 18.7626333,13.940584 L18.7626333,6.2787461 C18.6369458,2.10730102 15.5366555,0.0641442448 9.4198666,0.0641442448 C4.30857722,0.0641442448 1.41776601,2.10730102 0.747432971,6.2787461 L6.31957632,6.2787461 C6.61284702,5.21460195 7.7021382,4.70381275 9.67124149,4.70381275 Z"></path>
                                    </g>
                                    <g transform="translate(42.768644, 0.048951)" id="Shape">
                                        <path d="M0.129469705,0.0369494498 L0.129469705,4.46378913 L5.70161305,4.46378913 L5.70161305,2.80372425 C5.74350887,0.973396304 4.86369676,0.0369494498 3.02028092,0.0369494498 L0.129469705,0.0369494498 Z"></path>
                                    </g>
                                    <g transform="translate(42.768644, 6.404256)" id="Shape">
                                        <path d="M0.129469705,0.109074776 L0.129469705,22.6263651 L5.70161305,22.6263651 L5.70161305,2.83328381 C5.70161305,1.00295586 4.82180095,0.109074776 3.02028092,0.109074776 L0.129469705,0.109074776 Z"></path>
                                    </g>
                                    <g transform="translate(48.005621, 6.108660)" fill-rule="nonzero" id="Shape">
                                        <path d="M5.74350887,15.5155173 L0.0456780757,15.5155173 C0.0456780757,18.1120291 0.883594369,20.0700543 2.55942695,21.3470273 C4.06767628,22.6665661 6.4138419,23.3476183 9.51413219,23.3476183 C15.3795462,23.3476183 19.6529193,21.3044615 19.6529193,15.7709119 C19.6529193,14.2385444 19.1501696,12.8764398 18.1027742,11.7697299 C16.8877956,10.6204542 14.4159425,9.64144162 10.6453192,8.87525783 C7.75450797,8.32190287 6.33005027,7.42802178 6.33005027,6.2787461 C6.33005027,5.12947041 7.41934145,4.53354969 9.59792382,4.53354969 C11.4413397,4.53354969 12.5725267,5.08690465 12.949589,6.06591727 C13.2847555,6.95979836 14.1226718,7.42802178 15.4214421,7.47058755 L18.9406905,7.47058755 C18.815003,5.12947041 17.9351909,3.29914247 16.3012542,1.97960372 C14.6254216,0.702630737 12.3630476,0.0641442448 9.51413219,0.0641442448 C4.44473861,0.149275777 0.674115295,2.44782715 0.674115295,7.30032449 C0.71601111,10.8332831 3.22975999,13.0467029 8.1315703,13.940584 C11.9440894,14.6216363 13.8712969,15.5580831 13.8712969,16.7073588 C13.8712969,18.1545948 12.6982141,18.8356471 10.3520485,18.8356471 C7.62882053,18.8356471 5.86919631,17.9843318 5.74350887,15.5155173 Z"></path>
                                    </g>
                                    <g transform="translate(67.789756, 6.108660)" fill-rule="nonzero" id="Shape">
                                        <path d="M19.7692966,16.0263065 L15.6635068,16.0263065 C14.9093821,16.0263065 14.2809449,16.2817011 13.7781951,16.8350561 C12.6889039,17.8992003 11.4739253,18.4525552 10.175155,18.4525552 C7.45192709,18.4525552 5.98557357,16.7073588 5.7760945,13.2595317 L20.1044631,13.2595317 C20.5234213,4.44841816 17.2136519,0.0641442448 10.175155,0.0641442448 C3.42992888,0.106710011 0.0363678947,3.93762896 0.0363678947,11.5994669 C0.0363678947,19.2613048 3.38803307,23.219921 10.0913634,23.4327498 C15.5378193,23.4327498 18.554318,20.7936723 19.7692966,16.0263065 Z M10.0913634,4.70381275 C12.4794248,4.70381275 13.8619867,6.23618033 14.1971532,9.21578396 L5.85988613,9.21578396 C6.27884428,6.23618033 7.70330197,4.70381275 10.0913634,4.70381275 Z"></path>
                                    </g>
                                </g>
                                <g id="Group-5">
                                    <g id="Group">
                                        <path d="M4.39765391,8.29968874 C6.55503583,3.41508522 11.3835687,0.00979273998 16.9879825,0.00979273998 C24.6011734,0.00979273998 30.7820839,6.29293617 30.7820839,14.0320095 C30.7820839,21.7710829 24.6011734,28.0542263 16.9879825,28.0542263 C13.5596196,28.0542263 10.4217453,26.7798796 8.00747884,24.6720872 C8.00747884,24.6720872 5.59171888,22.3723875 1.85121142,27.0771538 C1.37403349,27.6767124 -0.0664614023,28.8667201 0.0380846238,26.4275687 C0.456268728,16.6689135 4.39466688,8.28625219 4.39466688,8.28625219 L4.39765391,8.29968874 Z M16.9879825,5.27950145 C21.7403461,5.27950145 25.5980945,9.20137994 25.5980945,14.0320095 C25.5980945,18.8626391 21.7403461,22.7845176 16.9879825,22.7845176 C12.2363656,22.7845176 8.37861723,18.8626391 8.37861723,14.0320095 C8.37861723,9.20137994 12.2363656,5.27950145 16.9879825,5.27950145 Z" id="Shape"></path>
                                    </g>
                                    <g id="Group" transform="translate(15.068182, 9.393939)">
                                        <path d="M0.0502643741,5.02381332 L0.0465133014,0.873125131 C0.0465133014,0.873125131 0.0322592252,0.308719876 0.327093539,0.167735207 C0.93551753,-0.122865845 1.15382996,0.279869731 1.39089775,0.524279447 C2.0023226,1.15400578 3.57777313,2.7989306 5.12471551,4.47674926 C5.75114465,5.15702167 5.07595157,5.7248485 5.07595157,5.7248485 L0.955023108,9.91325184 C0.955023108,9.91325184 0.0307587961,10.5020747 0.0255072943,9.3648658 C0.0210060071,8.44492723 0.0502643741,5.02381332 0.0502643741,5.02381332 Z" id="Shape"></path>
                                    </g>
                                </g>
                            </g>
                        </g>
                    </g>
                </g>
            </g>
        </g>
    </g>
</svg>