<?xml version="1.0" encoding="UTF-8"?>
<svg width="182px" height="24px" viewBox="0 0 182 24" version="1.1" xmlns="http://www.w3.org/2000/svg" xmlns:xlink="http://www.w3.org/1999/xlink">
    <!-- Generator: Sketch 51.3 (57544) - http://www.bohemiancoding.com/sketch -->
    <title>client-logo-myfdtps-blue</title>
    <desc>Created with Sketch.</desc>
    <defs></defs>
    <g id="Welcome" stroke="none" stroke-width="1" fill="none" fill-rule="evenodd">
        <g id="Desktop-Copy-21" transform="translate(-540.000000, -2027.000000)" fill="#1766A9" fill-rule="nonzero">
            <g id="Work" transform="translate(0.000000, 1642.000000)">
                <g id="Group" transform="translate(340.000000, 0.000000)">
                    <g id="Group-8" transform="translate(0.000000, 314.000000)">
                        <path d="M205.07718,88.7417102 C204.998298,88.7379802 204.922659,88.7273307 204.844296,88.7224654 C204.414466,88.6925711 203.993848,88.6514326 203.580885,88.6011583 C203.425716,88.5819135 203.274958,88.5594792 203.121345,88.5375315 C202.775977,88.4873653 202.436965,88.4301714 202.104052,88.3655716 C201.963932,88.3377315 201.822905,88.3120537 201.685121,88.2827 C201.232068,88.1821513 200.788745,88.0721424 200.362809,87.9423481 C201.155261,87.9636471 201.946677,87.9636471 202.734849,87.9487269 C202.992773,87.9433752 203.248361,87.9258062 203.506285,87.9176974 C204.034457,87.8979661 204.563668,87.8797484 205.090673,87.846124 C205.401011,87.8252575 205.709653,87.7942279 206.019462,87.7691989 C206.490851,87.7300606 206.963863,87.6910844 207.434171,87.6409722 C207.764468,87.6056721 208.095846,87.5618307 208.425116,87.5206381 C208.873747,87.4645795 209.322432,87.4079263 209.770036,87.3427859 C210.11228,87.2925115 210.452848,87.2358042 210.793903,87.1807727 C211.228046,87.1097399 211.662028,87.0370313 212.09563,86.9579979 C212.445929,86.8933981 212.795687,86.8260412 213.145986,86.7560356 C213.569209,86.673164 213.991514,86.5860758 214.414197,86.494663 C214.77201,86.4176838 215.131012,86.3380557 215.489365,86.2558328 C215.901939,86.1606899 216.314892,86.0623576 216.727358,85.961917 C217.092793,85.8716394 217.458822,85.7813619 217.82469,85.687192 C218.226344,85.583562 218.62908,85.4750667 219.031382,85.3660849 C219.407629,85.2639685 219.783876,85.1625549 220.160015,85.0567084 C220.545992,84.9470779 220.933104,84.8338255 221.318055,84.7205731 C221.712627,84.6046718 222.108335,84.4907706 222.502962,84.3710852 C222.85326,84.2641576 223.2041,84.1536081 223.557101,84.0445722 C223.988488,83.9104532 224.420414,83.7762802 224.854017,83.6378906 C225.107011,83.5567489 225.363248,83.4706878 225.618295,83.3888433 C230.08255,81.9359146 234.600754,80.2911325 239.244915,78.6815964 C239.280594,78.6694333 239.314596,78.6581351 239.349734,78.6458097 L239.350761,78.6458097 C250.737199,74.7001111 262.891591,71 276.938136,71 C285.724255,71 294.171427,72.1736088 305.215567,80.1608516 C305.223675,80.1660953 305.233406,80.1730148 305.241515,80.180583 C306.030768,80.7512779 306.831373,81.3540295 307.648196,81.9968385 C328.4088,81.0884404 371.057667,81.9824589 381.304985,94.6924635 C363.964659,83.9794318 329.200756,86.0067856 305.443693,87.1439589 C304.968519,86.7704151 304.501995,86.4129807 304.036552,86.0623576 C303.899244,85.9597547 303.763557,85.8593141 303.626789,85.7577383 C303.270003,85.4921492 302.913218,85.2319119 302.558594,84.9808104 C302.446693,84.8989659 302.331549,84.81577 302.218567,84.7344661 C301.76826,84.4170349 301.320656,84.1103614 300.879539,83.8142292 C300.789802,83.7538459 300.700606,83.6966521 300.611409,83.6368635 C300.243271,83.3932221 299.876755,83.1548244 299.512942,82.9256166 C299.399959,82.8533945 299.288058,82.7829023 299.176157,82.7134912 C298.276084,82.1534458 297.392769,81.6350253 296.52351,81.1600138 C296.462964,81.1274166 296.405122,81.0970357 296.345117,81.0638438 C295.924002,80.8362037 295.507211,80.618186 295.094745,80.4092502 C295.074744,80.3996278 295.055823,80.3895188 295.036362,80.380383 C294.58119,80.1517157 294.129802,79.9331575 293.682198,79.727357 C293.682198,79.727357 293.685442,79.727357 293.686523,79.727357 C286.861644,76.574074 280.876834,75.9355357 274.732011,76.1449635 C268.117961,76.3710684 261.180641,77.4760391 254.253593,78.9451313 C253.998977,78.998487 253.745443,79.0524914 253.491423,79.1080094 C252.882184,79.2394795 252.273432,79.3736526 251.664842,79.509988 C251.466447,79.5537213 251.266377,79.5980492 251.068037,79.6424312 C250.30684,79.8155804 249.547319,79.991919 248.788879,80.1699334 C248.469988,80.2446963 248.150935,80.3216755 247.831504,80.3986006 C247.373683,80.5076365 246.917375,80.618186 246.4595,80.7288437 C246.07628,80.8223107 245.693546,80.9152912 245.310272,81.0088123 C244.939864,81.1002252 244.57178,81.1920705 244.202561,81.2845644 C238.718818,82.6498644 233.349247,84.0862513 228.260726,85.33565 C228.207262,85.3490024 228.154718,85.3623549 228.101254,85.3757073 C226.552966,85.7556841 225.029653,86.116308 223.53764,86.454011 C223.410657,86.4813106 223.282971,86.5101778 223.155988,86.539045 C222.564588,86.6710016 221.978054,86.7992282 221.396926,86.9221031 C221.230372,86.9579979 221.062358,86.9926494 220.896291,87.0280576 C220.258455,87.1610414 219.625485,87.2902951 219.001056,87.4111157 C218.941591,87.4234411 218.878938,87.4345771 218.819419,87.4469024 C218.136067,87.5795078 217.461417,87.7023826 216.794931,87.8173109 C216.648432,87.8429346 216.505231,87.8653688 216.358625,87.8898573 C215.85053,87.9748912 215.347786,88.0571141 214.849854,88.1320391 C214.659136,88.1608523 214.468796,88.1880437 214.278997,88.2148567 C213.782254,88.2854029 213.292971,88.3510839 212.809202,88.4093049 C212.670218,88.4259549 212.53026,88.4456862 212.391925,88.4617416 C211.783173,88.5316391 211.184692,88.5920224 210.595563,88.6412696 C210.469066,88.6514326 210.34738,88.6578115 210.220884,88.6679745 C209.761333,88.7027341 209.308377,88.7316013 208.861854,88.7530084 C208.680218,88.7614416 208.500257,88.768361 208.321216,88.7732804 C207.909291,88.7876058 207.504988,88.795174 207.106036,88.7957146 C206.951916,88.7957146 206.796768,88.7978769 206.645458,88.7957146 C206.111361,88.7908494 205.586399,88.7743075 205.07718,88.7417102 Z" id="client-logo-myfdtps-blue"></path>
                    </g>
                </g>
            </g>
        </g>
    </g>
</svg>