<?xml version="1.0" encoding="UTF-8"?>
<svg width="91px" height="65px" viewBox="0 0 91 65" version="1.1" xmlns="http://www.w3.org/2000/svg" xmlns:xlink="http://www.w3.org/1999/xlink">
    <!-- Generator: Sketch 51.3 (57544) - http://www.bohemiancoding.com/sketch -->
    <title>client-logo-ifyb</title>
    <desc>Created with Sketch.</desc>
    <defs></defs>
    <g id="Welcome" stroke="none" stroke-width="1" fill="none" fill-rule="evenodd">
        <g id="Desktop-Copy-20" transform="translate(-439.000000, -3218.000000)" fill="#FFCE01">
            <g id="Work" transform="translate(0.000000, 1642.000000)">
                <g id="Group-Copy-2" transform="translate(241.000000, 1450.000000)">
                    <g id="Group-8" transform="translate(0.000000, 80.000000)">
                        <g id="Logo-/-Emblem" transform="translate(198.000000, 46.000000)">
                            <g id="Fill-18">
                                <path d="M20.7605838,34.285829 C25.2993688,31.1263934 29.716831,27.5559189 32.9572336,23.8574205 C32.7484785,26.572321 31.8522272,30.143931 29.0210757,33.191807 C28.3683246,33.8943769 27.613047,34.5685602 26.7392946,35.1981764 C25.2885466,36.243941 23.5139862,37.1667915 21.3412818,37.8875288 C21.3412818,37.8875288 20.8739324,36.280276 20.7605838,34.285829 Z M81.5390645,14.4495126 L84.6088746,12.1794311 C67.2229671,-10.3919404 38.380878,5.06658487 32.064115,8.86188175 C29.7376211,8.66317511 28.2333315,8.92660334 28.2333315,8.92660334 C28.2333315,8.92660334 4.95956298,9.67799832 0.305151023,46.1511704 C0.305151023,46.1511704 8.64823358,42.2264303 17.4945497,36.4801181 C17.7847562,39.4811561 18.9461521,41.909919 18.9461521,41.909919 C22.1825675,40.9785526 24.7978441,39.7073978 26.9013432,38.2400912 C27.2852475,40.8550706 28.1530192,42.8012603 28.1530192,42.8012603 C45.7582192,32.6700601 43.1116151,21.5552621 40.7654703,19.1628341 L39.5220534,19.24402 C39.5220534,19.24402 44.9630703,30.9396091 29.2244197,39.9969418 C29.2244197,39.9969418 28.8464961,38.691723 28.7681774,36.7747716 C34.4338979,31.7659449 35.2720509,25.2372962 34.6702782,21.7375045 C35.5389043,20.559458 36.2705438,19.3740309 36.8321604,18.190307 L35.191169,17.6472702 C35.191169,17.6472702 34.5404114,18.4412451 33.3456945,19.7268771 C33.1953225,19.8886811 33.0364067,20.0581495 32.8695166,20.2349984 C30.4766652,22.7628308 26.3619406,26.7633632 21.1288243,30.499332 C20.0255268,31.286778 18.8732444,32.0620178 17.676534,32.8094386 C14.2504448,34.9492253 10.4640893,36.8585123 6.44932795,38.1535119 C6.44932795,38.1535119 10.9567855,13.5573197 30.6743133,13.1406035 C45.7510993,12.8218213 50.909884,26.0360969 50.909884,26.0360969 L52.4022121,25.1774004 C48.0781629,15.4711486 41.868483,11.4419456 36.8256101,9.8210671 C37.1741997,9.57665793 37.3818156,9.39441555 37.3818156,9.39441555 C66.9102617,-2.91943512 76.0379557,9.78529991 76.0379557,9.78529991 L29.4408642,49.3969015 L25.5556847,40.6552285 L23.3177621,41.9431314 L27.1533872,51.3413879 L28.1965929,53.8970392 L36.4767357,47.7740359 L46.3756557,64.8636589 L50.1756813,61.0243626 L40.5293748,44.776972 L79.2823454,16.1183645 L84.9776847,22.9291766 L80.4764927,27.943113 L86.2917309,43.3255619 C63.5659088,59.0477993 51.9066681,39.2060894 51.9066681,39.2060894 L49.4574272,44.9955493 C56.4047273,53.0988062 64.8483427,54.4690305 72.2889084,53.3449186 L75.9117913,59.599636 L79.1892173,56.0612384 L77.0056906,52.2920573 C84.9309782,49.9734346 90.8017515,45.5777598 90.8017515,45.5777598 L85.0144233,28.5264589 L89.6628546,24.5296167 L81.9816366,14.1222143 L81.5390645,14.4495126 Z"></path>
                            </g>
                        </g>
                    </g>
                </g>
            </g>
        </g>
    </g>
</svg>