<?xml version="1.0" encoding="UTF-8"?>
<svg width="318px" height="509px" viewBox="0 0 318 509" version="1.1" xmlns="http://www.w3.org/2000/svg" xmlns:xlink="http://www.w3.org/1999/xlink">
    <!-- Generator: Sketch 51.3 (57544) - http://www.bohemiancoding.com/sketch -->
    <title>client-logo-gigmor-g</title>
    <desc>Created with Sketch.</desc>
    <defs>
        <path d="M581.961148,150.836291 C551.122847,150.836291 521.221223,120.670269 521.221223,75.7396964 C521.221223,68.6779411 522.155842,60.9772061 523.55777,53.917512 L518.417367,53.917512 C443.194969,51.3492262 377.781951,165.598781 377.781951,264.442744 C377.781951,356.227012 432.446854,390.886503 491.786909,390.886503 L534.303827,227.858069 L619.339721,227.858069 C600.182096,301.672582 581.493838,376.124013 562.805581,449.938525 C545.049884,517.973364 502.530907,522.468895 458.144752,519.257507 L479.171615,440.951586 C397.406886,440.951586 282,413.355912 282,270.220356 C282,232.351538 291.811438,194.482721 305.82866,161.748414 C352.084053,55.1995937 442.72766,0 531.032661,0 L581.961148,0 C612.330081,0 642.701072,32.0932664 642.701072,75.7396964 C642.701072,120.670269 612.79739,150.836291 581.961148,150.836291" id="path-1"></path>
    </defs>
    <g id="Welcome" stroke="none" stroke-width="1" fill="none" fill-rule="evenodd">
        <g id="Desktop-Copy-21" transform="translate(-882.000000, -2583.000000)">
            <g id="Work" transform="translate(0.000000, 1642.000000)">
                <g id="Group-Copy" transform="translate(441.000000, 861.000000)">
                    <g id="Group-8" transform="translate(0.000000, 80.000000)">
                        <g id="Group-6" transform="translate(159.000000, 0.000000)">
                            <g id="client-logo-gigmor-g">
                                <use fill="#403E3E" xlink:href="#path-1"></use>
                                <use fill="#E54A1E" xlink:href="#path-1"></use>
                                <use fill="#FFFFFF" xlink:href="#path-1"></use>
                            </g>
                        </g>
                    </g>
                </g>
            </g>
        </g>
    </g>
</svg>