<?xml version="1.0" encoding="UTF-8"?>
<svg width="113px" height="46px" viewBox="0 0 113 46" version="1.1" xmlns="http://www.w3.org/2000/svg" xmlns:xlink="http://www.w3.org/1999/xlink">
    <!-- Generator: Sketch 51.3 (57544) - http://www.bohemiancoding.com/sketch -->
    <title>client-logo-gigmor</title>
    <desc>Created with Sketch.</desc>
    <defs>
        <path d="M24.0359569,12.0865472 C21.5648766,12.0865472 19.1688525,9.66933688 19.1688525,6.06903957 C19.1688525,5.50317947 19.2437437,4.88611778 19.3560806,4.32042284 L18.9441789,4.32042284 C12.9165906,4.1146255 7.67503013,13.269469 7.67503013,21.1898588 C7.67503013,28.5445537 12.0553416,31.3218268 16.810274,31.3218268 L20.2171646,18.2583203 L27.0311107,18.2583203 C25.4960057,24.1730945 23.9985113,30.138905 22.5010168,36.0536792 C21.0782487,41.5053267 17.6711931,41.8655547 14.1145201,41.6082254 L15.7994076,35.3335536 C9.24758074,35.3335536 0,33.1223058 0,21.6528203 C0,18.6183831 0.786192826,15.5839459 1.90939613,12.9609382 C5.61585157,4.42315634 12.879145,0 19.9550454,0 L24.0359569,0 C26.4694266,0 28.9030612,2.57164093 28.9030612,6.06903957 C28.9030612,9.66933688 26.5068722,12.0865472 24.0359569,12.0865472" id="path-1"></path>
        <path d="M33.9348741,19.7417408 C31.9552665,19.7417408 30.3605781,17.8113427 30.3605781,15.3983037 C30.3605781,12.9850998 31.9552665,11.0547016 33.9348741,11.0547016 C35.8869754,11.0547016 37.4816639,12.9850998 37.4816639,15.3983037 C37.4816639,17.8113427 35.8869754,19.7417408 33.9348741,19.7417408 Z M35.2820068,35.1482821 L29.975659,35.1482821 C28.5185015,35.1482821 27.6661449,33.8858892 28.2436073,31.658875 L30.5806276,22.8231151 L35.4470439,22.8231151 L32.9726604,32.2524373 L38.4438776,32.2524373 C37.9215953,34.6656413 36.1618696,35.1482821 35.2820068,35.1482821 Z" id="path-2"></path>
        <path d="M43.9032735,26.1401467 L42.8358716,30.7459682 C42.3979931,32.6771434 43.5749063,33.0488789 44.3959076,33.0488789 C44.6147634,33.0488789 44.8060744,33.0118871 45.0250971,33.0118871 L46.7494001,26.1401467 L43.9032735,26.1401467 Z M42.0152042,40.1057439 C42.0152042,40.8857114 42.3160266,41.5916952 42.7816168,42.0372494 L44.3959076,36.057278 C43.1917835,36.057278 42.0152042,38.3971806 42.0152042,40.1057439 Z M51.5931073,35.5744016 L49.2124039,35.5744016 C47.9535242,40.217215 46.3938221,44.7857143 42.4802936,44.7857143 C40.5099239,44.7857143 39.1962885,43.2259443 39.1962885,40.5143062 C39.1962885,38.6201229 39.634167,36.2803854 40.8930467,35.4261038 C39.3881003,34.9432274 37.8826531,33.3088131 37.8826531,30.5973401 C37.8826531,30.0774718 37.9374087,29.5572732 38.0469201,29.0372398 C38.8679214,24.8773028 41.7412589,23.2432188 44.69673,23.2432188 L52.3319751,23.2432188 L49.8966829,32.6771434 L55.5612245,32.6771434 C55.0415464,35.1288474 53.2901994,35.6117238 51.5931073,35.5744016 Z" id="path-3"></path>
        <path d="M77.5660184,36.017391 L72.2692611,36.017391 C71.3328882,36.017391 70.3160635,34.5412267 70.6372176,33.0650623 C70.6372176,33.0650623 71.199074,30.3022185 71.4931388,29.090929 L67.079392,34.3145516 C66.4108106,35.1090081 65.5278001,36.2820976 64.2167475,36.2820976 C62.2105137,36.2820976 62.2906391,34.3520784 62.638556,33.0650623 C62.638556,33.0650623 63.387589,30.2645235 63.6816539,29.090929 L58.4922743,35.2227663 C58.0103801,35.7902111 57.4752865,36.017391 56.8333047,36.017391 L54.1581633,36.017391 L57.288273,23.4518197 L61.9965742,23.4518197 L60.5254341,29.3559722 L64.5377383,24.7008042 C65.3672231,23.7547262 66.3037593,22.9597649 67.9088768,22.9597649 C68.7380352,22.9597649 69.8615848,23.5275463 69.2998916,25.685082 C69.2998916,25.685082 68.7111092,27.9937344 68.3635186,29.3559722 L72.2692611,24.6629409 C73.0982563,23.678663 73.9543408,22.9597649 75.4256441,22.9597649 C77.0842873,22.9597649 77.3254792,24.5872142 76.870511,26.4038118 L75.1852681,33.0650623 L80.5357143,33.0650623 C80.2675963,35.1468714 78.95687,36.017391 77.5660184,36.017391" id="path-4"></path>
        <path d="M85.6190688,26.0391616 L84.4325852,30.5201294 C83.758002,33.0655181 86.8859891,32.6713574 86.8859891,32.6713574 L88.6389844,26.0391616 L85.6190688,26.0391616 Z M99.8295655,26.0391616 L91.5781342,26.0391616 C92.1985995,26.5767694 92.6027573,28.2978155 92.5219915,29.2294245 C92.2792008,33.2088057 89.7177254,35.3952579 86.2388761,35.4314384 C81.3850349,35.4669814 79.6053918,32.3125803 80.0368553,28.9787109 C80.4683189,25.573118 82.6794254,23.2432188 86.6431983,23.2432188 L102.984694,23.2432188 C102.984694,23.2432188 102.661137,26.0391616 99.8295655,26.0391616 Z" id="path-5"></path>
        <path d="M109.11714,35.7151899 L104.140965,35.7151899 C102.464331,35.7151899 101.852535,34.1691387 102.33155,32.1326636 L103.795217,26.1367483 L101.027772,26.1367483 L99.590726,31.4165607 C99.2978952,32.5097451 98.8455009,32.7736519 98.0209,32.7736519 L96.6369338,32.7736519 L98.3401894,26.1367483 C97.2758373,25.7975593 96.5306122,24.4775224 96.5306122,22.9314712 C96.5306122,19.8393689 98.8724466,18.7079566 100.681699,18.7079566 L102.783945,18.7079566 L101.692809,23.1955457 L108.877713,23.1955457 L106.509096,32.7736519 L111.964286,32.7736519 C111.964286,34.6216701 110.234409,35.7151899 109.11714,35.7151899" id="path-6"></path>
    </defs>
    <g id="Welcome" stroke="none" stroke-width="1" fill="none" fill-rule="evenodd">
        <g id="Desktop-Copy-20" transform="translate(-640.000000, -2642.000000)">
            <g id="Work" transform="translate(0.000000, 1642.000000)">
                <g id="Group-Copy" transform="translate(441.000000, 861.000000)">
                    <g id="Group-8" transform="translate(0.000000, 80.000000)">
                        <g id="Group-9" transform="translate(191.000000, 51.000000)">
                            <g id="client-logo-gigmor" transform="translate(8.250000, 8.250000)">
                                <g id="Fill-1">
                                    <use fill="#403E3E" xlink:href="#path-1"></use>
                                    <use fill="#E54A1E" xlink:href="#path-1"></use>
                                </g>
                                <g id="Fill-3">
                                    <use fill="#403E3E" xlink:href="#path-2"></use>
                                    <use fill="#E54A1E" xlink:href="#path-2"></use>
                                </g>
                                <g id="Fill-4">
                                    <use fill="#403E3E" xlink:href="#path-3"></use>
                                    <use fill="#E54A1E" xlink:href="#path-3"></use>
                                </g>
                                <g id="Fill-6">
                                    <use fill="#403E3E" xlink:href="#path-4"></use>
                                    <use fill="#E54A1E" xlink:href="#path-4"></use>
                                </g>
                                <g id="Fill-7">
                                    <use fill="#403E3E" xlink:href="#path-5"></use>
                                    <use fill="#E54A1E" xlink:href="#path-5"></use>
                                </g>
                                <g id="Fill-8">
                                    <use fill="#403E3E" xlink:href="#path-6"></use>
                                    <use fill="#E54A1E" xlink:href="#path-6"></use>
                                </g>
                            </g>
                        </g>
                    </g>
                </g>
            </g>
        </g>
    </g>
</svg>