<?xml version="1.0" encoding="UTF-8"?>
<svg width="469px" height="335px" viewBox="0 0 469 335" version="1.1" xmlns="http://www.w3.org/2000/svg" xmlns:xlink="http://www.w3.org/1999/xlink">
    <!-- Generator: Sketch 51.3 (57544) - http://www.bohemiancoding.com/sketch -->
    <title>client-logo-ifyb-white</title>
    <desc>Created with Sketch.</desc>
    <defs></defs>
    <g id="Welcome" stroke="none" stroke-width="1" fill="none" fill-rule="evenodd">
        <g id="Desktop-Copy-21" transform="translate(-510.000000, -3208.000000)" fill="#FFFFFF">
            <g id="Work" transform="translate(0.000000, 1642.000000)">
                <g id="Group-Copy-2" transform="translate(241.000000, 1450.000000)">
                    <g id="Group-8" transform="translate(0.000000, 80.000000)">
                        <g id="Group-11" transform="translate(159.000000, 0.000000)">
                            <path d="M216.160721,212.698345 C239.640461,196.40369 262.492582,177.989121 279.255617,158.914273 C278.1757,172.916256 273.539272,191.336682 258.893348,207.055973 C255.516579,210.679447 251.609427,214.156519 247.089389,217.403737 C239.584476,222.797224 230.404439,227.556786 219.164748,231.273958 C219.164748,231.273958 216.747088,222.98462 216.160721,212.698345 Z M530.575913,110.39339 L546.45645,98.6855413 C456.51683,-17.7253432 307.312854,62.0013406 274.635396,81.5754223 C262.600132,80.5506012 254.818242,81.9092211 254.818242,81.9092211 C254.818242,81.9092211 134.419931,85.7845086 110.342037,273.893336 C110.342037,273.893336 153.501916,253.651657 199.26509,224.015297 C200.766367,239.493022 206.774423,252.019263 206.774423,252.019263 C223.516832,247.215781 237.046007,240.659854 247.927689,233.092283 C249.913676,246.578928 254.402775,256.616318 254.402775,256.616318 C345.476825,204.365086 331.785589,147.04099 319.648668,134.702144 L313.216306,135.120857 C313.216306,135.120857 341.363413,195.440359 259.945273,242.153165 C259.945273,242.153165 257.990224,235.421555 257.585071,225.53496 C286.894599,199.70215 291.230477,166.030923 288.117426,147.980897 C292.610945,141.905172 296.395813,135.791383 299.301131,129.686377 L290.812064,126.885688 C290.812064,126.885688 287.445608,130.98058 281.265178,137.611172 C280.487284,138.445669 279.665191,139.319695 278.801846,140.231786 C266.423306,153.268973 245.137287,173.901549 218.065678,193.169648 C212.358172,197.230867 206.397262,201.229133 200.206519,205.083924 C182.482902,216.119783 162.89558,225.966849 142.126684,232.645754 C142.126684,232.645754 165.444363,105.791943 267.445766,103.642747 C345.439993,101.998641 372.127074,170.150704 372.127074,170.150704 L379.847087,165.722013 C357.478203,115.662434 325.3547,94.8819913 299.267246,86.5223798 C301.070546,85.2618499 302.144571,84.3219426 302.144571,84.3219426 C454.899163,20.8137835 502.117943,86.337912 502.117943,86.337912 L261.064969,290.633056 L240.966418,245.548251 L229.389345,252.190555 L249.231546,300.661662 L254.628188,313.842324 L297.462472,282.263196 L348.670906,370.402197 L368.328946,350.60119 L318.427315,266.805967 L518.901604,119.000422 L548.364354,154.126895 L525.079087,179.986057 L555.16209,259.320381 C437.59838,340.407149 377.283571,238.074377 377.283571,238.074377 L364.613322,267.93327 C400.552632,309.725472 444.232581,316.792345 482.723621,310.994786 L501.465278,343.253223 L518.41984,325.004089 L507.124165,305.564698 C548.122735,293.606501 578.493029,270.935996 578.493029,270.935996 L548.554408,182.994639 L572.601363,162.381096 L532.865397,108.705363 L530.575913,110.39339 Z" id="client-logo-ifyb-white"></path>
                        </g>
                    </g>
                </g>
            </g>
        </g>
    </g>
</svg>