<?xml version="1.0" encoding="UTF-8"?>
<svg width="392px" height="357px" viewBox="0 0 392 357" version="1.1" xmlns="http://www.w3.org/2000/svg" xmlns:xlink="http://www.w3.org/1999/xlink">
    <!-- Generator: Sketch 51.3 (57544) - http://www.bohemiancoding.com/sketch -->
    <title>client-logo-liveraise-emblem</title>
    <desc>Created with Sketch.</desc>
    <defs></defs>
    <g id="Welcome" stroke="none" stroke-width="1" fill="none" fill-rule="evenodd">
        <g id="Desktop-Copy-21" transform="translate(-679.000000, -3808.000000)" fill="#FFFFFF">
            <g id="Work" transform="translate(0.000000, 1642.000000)">
                <g id="Group-Copy-3" transform="translate(341.000000, 2039.000000)">
                    <g id="Group-8" transform="translate(0.000000, 80.000000)">
                        <g id="Group-12" transform="translate(159.000000, 0.000000)">
                            <g id="client-logo-liveraise-emblem" transform="translate(179.000000, 47.000000)">
                                <g id="Group">
                                    <path d="M55.8927626,105.486367 C83.3123909,43.4046315 144.681486,0.124462566 215.911777,0.124462566 C312.672979,0.124462566 391.230356,79.9811887 391.230356,178.342315 C391.230356,276.70344 312.672979,356.560167 215.911777,356.560167 C172.338391,356.560167 132.457021,340.363631 101.772473,313.57427 C101.772473,313.57427 71.0689432,284.345828 23.5283,344.14189 C17.4635224,351.762086 -0.844702984,366.8867 0.484043283,335.885873 C5.79902835,211.856514 55.8547984,105.315592 55.8547984,105.315592 L55.8927626,105.486367 Z M215.911777,67.1007604 C276.312786,67.1007604 325.343523,116.946571 325.343523,178.342315 C325.343523,239.738058 276.312786,289.583869 215.911777,289.583869 C155.520259,289.583869 106.489522,239.738058 106.489522,178.342315 C106.489522,116.946571 155.520259,67.1007604 215.911777,67.1007604 Z" id="Shape"></path>
                                </g>
                                <g id="Group" transform="translate(191.511730, 119.393939)">
                                    <path d="M0.63884398,63.8510467 L0.591169056,11.0971388 C0.591169056,11.0971388 0.410004346,3.92373004 4.15725336,2.13186038 C11.890126,-1.56158525 14.6648066,3.55705401 17.6778618,6.66342265 C25.4488744,14.6670413 45.4723424,35.5735051 65.133481,56.8980389 C73.0951933,65.5440818 64.513707,72.7609777 64.513707,72.7609777 L12.1380356,125.994233 C12.1380356,125.994233 0.390934376,133.477982 0.324189483,119.024423 C0.266979574,107.332301 0.63884398,63.8510467 0.63884398,63.8510467 Z" id="Shape"></path>
                                </g>
                            </g>
                        </g>
                    </g>
                </g>
            </g>
        </g>
    </g>
</svg>