<?xml version="1.0" encoding="UTF-8"?>
<svg width="519px" height="338px" viewBox="0 0 519 338" version="1.1" xmlns="http://www.w3.org/2000/svg" xmlns:xlink="http://www.w3.org/1999/xlink">
    <!-- Generator: Sketch 51.3 (57544) - http://www.bohemiancoding.com/sketch -->
    <title>img-case-myfdtps-type</title>
    <desc>Created with Sketch.</desc>
    <defs></defs>
    <g id="UI---Case-Study" stroke="none" stroke-width="1" fill="none" fill-rule="evenodd">
        <g id="Desktop-Copy-40" transform="translate(-896.000000, -1984.000000)" fill="#4D4D4D">
            <g id="Group-20" transform="translate(249.000000, 1696.000000)">
                <g id="Group-15" transform="translate(629.000000, 212.000000)">
                    <g id="Group-14" transform="translate(18.000000, 76.000000)">
                        <g id="img-case-myfdtps-type">
                            <path d="M15.9375,46.03125 L43.6875,46.03125 L34.40625,20.34375 C33.9687478,19.0312434 33.2343802,16.9531392 32.203125,14.109375 C31.1718698,11.2656108 30.4687519,9.28125563 30.09375,8.15625 L29.625,8.15625 C29.3124984,8.96875406 28.6406302,10.8593602 27.609375,13.828125 C26.5781198,16.7968898 25.8437522,18.9687431 25.40625,20.34375 L15.9375,46.03125 Z M0,71.625 L26.15625,2.71875 L33.5625,2.71875 L59.625,71.625 L53.0625,71.625 L45.5625,50.8125 L14.15625,50.8125 L6.5625,71.625 L0,71.625 Z M69.46875,59.4375 C69.46875,61.9375125 70.5312394,64.0781161 72.65625,65.859375 C74.7812606,67.6406339 77.7187312,68.53125 81.46875,68.53125 C86.1562734,68.53125 90.1718583,67.0156402 93.515625,63.984375 C96.8593917,60.9531098 98.53125,57.0937734 98.53125,52.40625 L98.53125,44.625 C95.7187359,45.5000044 91.0312828,46.437495 84.46875,47.4375 C79.2187237,48.3125044 75.4062619,49.7187403 73.03125,51.65625 C70.6562381,53.5937597 69.46875,56.1874837 69.46875,59.4375 Z M63.65625,59.8125 C63.65625,55.3124775 65.3281083,51.6718889 68.671875,48.890625 C72.0156417,46.1093611 77.3124638,44.1562556 84.5625,43.03125 C91.8125362,41.8437441 96.4687397,40.8437541 98.53125,40.03125 L98.53125,37.21875 C98.53125,33.7812328 97.328137,30.9531361 94.921875,28.734375 C92.515613,26.5156139 89.1250219,25.40625 84.75,25.40625 C81.749985,25.40625 78.8593889,26.109368 76.078125,27.515625 C73.2968611,28.921882 70.9687594,30.8124881 69.09375,33.1875 L65.34375,30.1875 C67.5937613,27.3749859 70.4062331,25.0937588 73.78125,23.34375 C77.1562669,21.5937412 80.7812306,20.71875 84.65625,20.71875 C91.4687841,20.71875 96.4218595,22.4062331 99.515625,25.78125 C102.60939,29.1562669 104.15625,33.6874716 104.15625,39.375 L104.15625,71.625 L98.625,71.625 L98.625,62.71875 C97.5624947,65.5312641 95.3906414,67.9999894 92.109375,70.125 C88.8281086,72.2500106 85.0312716,73.3125 80.71875,73.3125 C75.4062234,73.3125 71.2343902,72.0468877 68.203125,69.515625 C65.1718598,66.9843623 63.65625,63.7500197 63.65625,59.8125 Z M145.3125,71.625 L145.3125,2.71875 L170.34375,2.71875 C176.843783,2.71875 181.812483,4.29685922 185.25,7.453125 C188.687517,10.6093908 190.40625,14.8437234 190.40625,20.15625 C190.40625,24.0312694 189.40626,27.2812369 187.40625,29.90625 C185.40624,32.5312631 182.875015,34.4062444 179.8125,35.53125 C183.562519,36.531255 186.718737,38.5624847 189.28125,41.625 C191.843763,44.6875153 193.125,48.3437287 193.125,52.59375 C193.125,57.9687769 191.359393,62.4843567 187.828125,66.140625 C184.296857,69.7968933 179.50003,71.625 173.4375,71.625 L145.3125,71.625 Z M151.21875,66.5625 L172.03125,66.5625 C176.406272,66.5625 179.999986,65.2968877 182.8125,62.765625 C185.625014,60.2343623 187.03125,56.9062706 187.03125,52.78125 C187.03125,48.78123 185.593764,45.4218886 182.71875,42.703125 C179.843736,39.9843614 176.125023,38.625 171.5625,38.625 L151.21875,38.625 L151.21875,66.5625 Z M151.21875,33.65625 L169.125,33.65625 C173.500022,33.65625 177.14061,32.5625109 180.046875,30.375 C182.95314,28.1874891 184.40625,24.9375216 184.40625,20.625 C184.40625,16.8749812 183.203137,13.796887 180.796875,11.390625 C178.390613,8.98436297 174.656275,7.78125 169.59375,7.78125 L151.21875,7.78125 L151.21875,33.65625 Z M206.53125,71.625 L206.53125,0 L212.15625,0 L212.15625,32.4375 C212.968754,29.5624856 214.812486,26.8906373 217.6875,24.421875 C220.562514,21.9531127 223.96873,20.71875 227.90625,20.71875 C234.031281,20.71875 238.984356,23.0468517 242.765625,27.703125 C246.546894,32.3593983 248.4375,38.7499594 248.4375,46.875 C248.4375,55.6250438 246.390645,62.2187278 242.296875,66.65625 C238.203105,71.0937722 233.406277,73.3125 227.90625,73.3125 C224.218732,73.3125 220.968764,72.2031361 218.15625,69.984375 C215.343736,67.7656139 213.343756,65.0625159 212.15625,61.875 L212.15625,71.625 L206.53125,71.625 Z M211.96875,46.875 C211.96875,53.5000331 213.437485,58.7656055 216.375,62.671875 C219.312515,66.5781445 222.906229,68.53125 227.15625,68.53125 C231.718773,68.53125 235.45311,66.5937694 238.359375,62.71875 C241.26564,58.8437306 242.71875,53.5625334 242.71875,46.875 C242.71875,40.3749675 241.281264,35.1875194 238.40625,31.3125 C235.531236,27.4374806 231.812523,25.5 227.25,25.5 C223.062479,25.5 219.468765,27.4218558 216.46875,31.265625 C213.468735,35.1093942 211.96875,40.3124672 211.96875,46.875 Z M281.4375,37.21875 C281.4375,25.9686937 284.124973,17.1250322 289.5,10.6875 C294.875027,4.24996781 301.843707,1.03125 310.40625,1.03125 C315.718777,1.03125 320.203107,2.48436047 323.859375,5.390625 C327.515643,8.29688953 330.218741,11.6874806 331.96875,15.5625 L326.90625,17.4375 C322.90623,9.87496219 317.375035,6.09375 310.3125,6.09375 C303.374965,6.09375 297.843771,8.93747156 293.71875,14.625 C289.593729,20.3125284 287.53125,27.8437031 287.53125,37.21875 C287.53125,46.7812978 289.624979,54.3280973 293.8125,59.859375 C298.000021,65.3906527 303.499966,68.15625 310.3125,68.15625 C314.625022,68.15625 318.312485,67.0000116 321.375,64.6875 C324.437515,62.3749884 326.781242,59.4687675 328.40625,55.96875 L333.75,57.75 C331.68749,62.1875222 328.734394,65.8906102 324.890625,68.859375 C321.046856,71.8281398 316.218779,73.3125 310.40625,73.3125 C301.843707,73.3125 294.875027,70.109407 289.5,63.703125 C284.124973,57.296843 281.4375,48.4688062 281.4375,37.21875 Z M341.15625,46.96875 C341.15625,39.2187112 343.093731,32.9062744 346.96875,28.03125 C350.843769,23.1562256 356.124967,20.71875 362.8125,20.71875 C367.062521,20.71875 370.718735,21.9062381 373.78125,24.28125 C376.843765,26.6562619 378.937494,29.5312331 380.0625,32.90625 L375.09375,34.3125 C374.093745,31.8124875 372.500011,29.7187584 370.3125,28.03125 C368.124989,26.3437416 365.625014,25.5 362.8125,25.5 C357.999976,25.5 354.156264,27.5312297 351.28125,31.59375 C348.406236,35.6562703 346.96875,40.7812191 346.96875,46.96875 C346.96875,53.5312828 348.45311,58.7656055 351.421875,62.671875 C354.39064,66.5781445 358.187477,68.53125 362.8125,68.53125 C365.812515,68.53125 368.562487,67.5937594 371.0625,65.71875 C373.562513,63.8437406 375.374994,61.6250128 376.5,59.0625 L381.375,60.65625 C379.999993,64.1562675 377.656267,67.1406127 374.34375,69.609375 C371.031233,72.0781373 367.187522,73.3125 362.8125,73.3125 C356.374968,73.3125 351.15627,70.9218989 347.15625,66.140625 C343.15623,61.3593511 341.15625,54.96879 341.15625,46.96875 Z M417.5625,71.625 L417.5625,2.71875 L435.65625,2.71875 C445.468799,2.71875 453.203097,5.62497094 458.859375,11.4375 C464.515653,17.2500291 467.34375,25.8436931 467.34375,37.21875 C467.34375,48.1563047 464.578153,56.62497 459.046875,62.625 C453.515597,68.62503 445.687551,71.625 435.5625,71.625 L417.5625,71.625 Z M423.46875,66.5625 L434.34375,66.5625 C442.656292,66.5625 449.218726,64.2187734 454.03125,59.53125 C458.843774,54.8437266 461.25,47.4063009 461.25,37.21875 C461.25,26.9061984 458.875024,19.4218983 454.125,14.765625 C449.374976,10.1093517 442.843792,7.78125 434.53125,7.78125 L423.46875,7.78125 L423.46875,66.5625 Z M476.25,46.875 C476.25,38.7499594 478.171856,32.3593983 482.015625,27.703125 C485.859394,23.0468517 490.78122,20.71875 496.78125,20.71875 C500.593769,20.71875 503.890611,21.8749884 506.671875,24.1875 C509.453139,26.5000116 511.406244,29.2187344 512.53125,32.34375 L512.53125,0 L518.15625,0 L518.15625,71.625 L512.71875,71.625 L512.71875,61.78125 C511.468744,65.0937666 509.453139,67.8437391 506.671875,70.03125 C503.890611,72.2187609 500.593769,73.3125 496.78125,73.3125 C491.343723,73.3125 486.562521,71.0937722 482.4375,66.65625 C478.312479,62.2187278 476.25,55.6250438 476.25,46.875 Z M482.0625,46.875 C482.0625,53.4375328 483.484361,58.6874803 486.328125,62.625 C489.171889,66.5625197 492.906227,68.53125 497.53125,68.53125 C501.781271,68.53125 505.374985,66.5937694 508.3125,62.71875 C511.250015,58.8437306 512.71875,53.5625334 512.71875,46.875 C512.71875,40.3124672 511.218765,35.1093942 508.21875,31.265625 C505.218735,27.4218558 501.625021,25.5 497.4375,25.5 C492.874977,25.5 489.171889,27.4374806 486.328125,31.3125 C483.484361,35.1875194 482.0625,40.3749675 482.0625,46.875 Z" id="Aa-Bb-Cc-Dd"></path>
                            <path d="M9.609375,136.578125 L22.125,136.578125 L18.328125,125.46875 C18.1406241,124.906247 17.7734402,123.796883 17.2265625,122.140625 C16.6796848,120.484367 16.2812513,119.281254 16.03125,118.53125 L15.75,118.53125 C15.5312489,119.218753 15.1484402,120.374992 14.6015625,122 C14.0546848,123.625008 13.6718761,124.781247 13.453125,125.46875 L9.609375,136.578125 Z M0,150.03125 L13.21875,114.265625 L18.5625,114.265625 L31.734375,150.03125 L26.8125,150.03125 L23.4375,140.234375 L8.34375,140.234375 L4.921875,150.03125 L0,150.03125 Z M37.828125,143.1875 C37.828125,144.312506 38.2968703,145.265621 39.234375,146.046875 C40.1718797,146.828129 41.437492,147.21875 43.03125,147.21875 C45.1562606,147.21875 46.9609301,146.531257 48.4453125,145.15625 C49.9296949,143.781243 50.671875,142.015636 50.671875,139.859375 L50.671875,136.671875 C49.4218688,136.984377 47.3906391,137.359373 44.578125,137.796875 C40.0781025,138.546879 37.828125,140.343736 37.828125,143.1875 Z M33.421875,143.5625 C33.421875,138.718726 37.0937133,135.734381 44.4375,134.609375 C47.6250159,134.109373 49.7031202,133.703127 50.671875,133.390625 L50.671875,131.9375 C50.671875,130.437492 50.1484427,129.218755 49.1015625,128.28125 C48.0546823,127.343745 46.5781345,126.875 44.671875,126.875 C43.1718675,126.875 41.7265695,127.226559 40.3359375,127.929688 C38.9453055,128.632816 37.7812547,129.562494 36.84375,130.71875 L34.078125,128.375 C35.3593814,126.843742 36.9218658,125.625005 38.765625,124.71875 C40.6093842,123.812495 42.5468648,123.359375 44.578125,123.359375 C51.5469098,123.359375 55.03125,126.796841 55.03125,133.671875 L55.03125,150.03125 L50.8125,150.03125 L50.8125,146.140625 C50.2812473,147.421881 49.2656325,148.531245 47.765625,149.46875 C46.2656175,150.406255 44.5000102,150.875 42.46875,150.875 C39.6249858,150.875 37.406258,150.195319 35.8125,148.835938 C34.218742,147.476556 33.421875,145.718761 33.421875,143.5625 Z M74.671875,150.03125 L74.671875,114.265625 L87.984375,114.265625 C91.5468928,114.265625 94.2499908,115.101554 96.09375,116.773438 C97.9375092,118.445321 98.859375,120.703111 98.859375,123.546875 C98.859375,125.390634 98.3984421,126.968743 97.4765625,128.28125 C96.5546829,129.593757 95.3750072,130.578122 93.9375,131.234375 C95.6562586,131.765628 97.1249939,132.80468 98.34375,134.351562 C99.5625061,135.898445 100.171875,137.749989 100.171875,139.90625 C100.171875,142.718764 99.2500092,145.109365 97.40625,147.078125 C95.5624908,149.046885 93.0000164,150.03125 89.71875,150.03125 L74.671875,150.03125 Z M79.21875,146.140625 L88.734375,146.140625 C90.6406345,146.140625 92.242181,145.593755 93.5390625,144.5 C94.835944,143.406245 95.484375,141.890635 95.484375,139.953125 C95.484375,138.109366 94.8593812,136.578131 93.609375,135.359375 C92.3593688,134.140619 90.6718856,133.53125 88.546875,133.53125 L79.21875,133.53125 L79.21875,146.140625 Z M79.21875,129.734375 L87.328125,129.734375 C89.2968848,129.734375 90.929681,129.242192 92.2265625,128.257812 C93.523444,127.273433 94.171875,125.81251 94.171875,123.875 C94.171875,122.156241 93.6406303,120.773443 92.578125,119.726562 C91.5156197,118.679682 89.8281366,118.15625 87.515625,118.15625 L79.21875,118.15625 L79.21875,129.734375 Z M106.265625,150.03125 L106.265625,113 L110.625,113 L110.625,128.234375 C111.156253,127.015619 112.085931,125.898443 113.414062,124.882812 C114.742194,123.867182 116.296866,123.359375 118.078125,123.359375 C121.265641,123.359375 123.87499,124.585925 125.90625,127.039062 C127.93751,129.4922 128.953125,132.843729 128.953125,137.09375 C128.953125,139.468762 128.625003,141.578116 127.96875,143.421875 C127.312497,145.265634 126.437505,146.710932 125.34375,147.757812 C124.249995,148.804693 123.093756,149.585935 121.875,150.101562 C120.656244,150.61719 119.390632,150.875 118.078125,150.875 C116.359366,150.875 114.828132,150.382817 113.484375,149.398438 C112.140618,148.414058 111.171878,147.234382 110.578125,145.859375 L110.578125,150.03125 L106.265625,150.03125 Z M110.53125,137.09375 C110.53125,140.187515 111.195306,142.640616 112.523438,144.453125 C113.851569,146.265634 115.49999,147.171875 117.46875,147.171875 C119.50001,147.171875 121.171868,146.289071 122.484375,144.523438 C123.796882,142.757804 124.453125,140.281266 124.453125,137.09375 C124.453125,134.031235 123.812506,131.593759 122.53125,129.78125 C121.249994,127.968741 119.56251,127.0625 117.46875,127.0625 C115.49999,127.0625 113.851569,127.976553 112.523438,129.804688 C111.195306,131.632822 110.53125,134.062485 110.53125,137.09375 Z M144.890625,132.171875 C144.890625,126.390596 146.320298,121.820329 149.179688,118.460938 C152.039077,115.101546 155.765602,113.421875 160.359375,113.421875 C163.234389,113.421875 165.68749,114.21093 167.71875,115.789062 C169.75001,117.367195 171.26562,119.281239 172.265625,121.53125 L168.375,122.84375 C166.28124,119.156232 163.578142,117.3125 160.265625,117.3125 C156.984359,117.3125 154.382822,118.664049 152.460938,121.367188 C150.539053,124.070326 149.578125,127.671852 149.578125,132.171875 C149.578125,136.734398 150.554678,140.335924 152.507812,142.976562 C154.460947,145.617201 157.046859,146.9375 160.265625,146.9375 C162.328135,146.9375 164.132805,146.351568 165.679688,145.179688 C167.22657,144.007807 168.374996,142.562509 169.125,140.84375 L173.203125,142.15625 C172.734373,143.218755 172.148441,144.218745 171.445312,145.15625 C170.742184,146.093755 169.875005,147.01562 168.84375,147.921875 C167.812495,148.82813 166.57032,149.546872 165.117188,150.078125 C163.664055,150.609378 162.078134,150.875 160.359375,150.875 C155.828102,150.875 152.117202,149.218767 149.226562,145.90625 C146.335923,142.593733 144.890625,138.015654 144.890625,132.171875 Z M176.34375,137.140625 C176.34375,133.015604 177.406239,129.687513 179.53125,127.15625 C181.656261,124.624987 184.484357,123.359375 188.015625,123.359375 C190.421887,123.359375 192.460929,124.062493 194.132812,125.46875 C195.804696,126.875007 196.906247,128.515616 197.4375,130.390625 L193.6875,131.46875 C193.249998,130.249994 192.531255,129.210942 191.53125,128.351562 C190.531245,127.492183 189.375007,127.0625 188.0625,127.0625 C185.843739,127.0625 184.085944,128.015615 182.789062,129.921875 C181.492181,131.828135 180.84375,134.23436 180.84375,137.140625 C180.84375,140.23439 181.523431,142.679679 182.882812,144.476562 C184.242194,146.273446 185.96874,147.171875 188.0625,147.171875 C189.500007,147.171875 190.789057,146.695317 191.929688,145.742188 C193.070318,144.789058 193.874998,143.687506 194.34375,142.4375 L198.09375,143.5625 C197.468747,145.53126 196.242197,147.24218 194.414062,148.695312 C192.585928,150.148445 190.453137,150.875 188.015625,150.875 C184.546858,150.875 181.734386,149.632825 179.578125,147.148438 C177.421864,144.66405 176.34375,141.328146 176.34375,137.140625 Z M215.484375,150.03125 L215.484375,114.265625 L225.46875,114.265625 C230.687526,114.265625 234.773423,115.79686 237.726562,118.859375 C240.679702,121.92189 242.15625,126.359346 242.15625,132.171875 C242.15625,137.609402 240.750014,141.945296 237.9375,145.179688 C235.124986,148.414079 230.937528,150.03125 225.375,150.03125 L215.484375,150.03125 Z M220.03125,146.1875 L224.765625,146.1875 C228.734395,146.1875 231.843739,145.070324 234.09375,142.835938 C236.343761,140.601551 237.46875,137.046899 237.46875,132.171875 C237.46875,122.828078 233.265667,118.15625 224.859375,118.15625 L220.03125,118.15625 L220.03125,146.1875 Z M246.1875,137.09375 C246.1875,132.843729 247.21874,129.4922 249.28125,127.039062 C251.34376,124.585925 253.953109,123.359375 257.109375,123.359375 C258.859384,123.359375 260.390618,123.843745 261.703125,124.8125 C263.015632,125.781255 263.953122,126.890619 264.515625,128.140625 L264.515625,113 L268.875,113 L268.875,150.03125 L264.65625,150.03125 L264.65625,145.8125 C264.031247,147.250007 263.046882,148.45312 261.703125,149.421875 C260.359368,150.39063 258.828134,150.875 257.109375,150.875 C255.796868,150.875 254.515631,150.61719 253.265625,150.101562 C252.015619,149.585935 250.851568,148.804693 249.773438,147.757812 C248.695307,146.710932 247.828128,145.265634 247.171875,143.421875 C246.515622,141.578116 246.1875,139.468762 246.1875,137.09375 Z M250.6875,137.09375 C250.6875,140.187515 251.328119,142.640616 252.609375,144.453125 C253.890631,146.265634 255.578115,147.171875 257.671875,147.171875 C259.609385,147.171875 261.249993,146.265634 262.59375,144.453125 C263.937507,142.640616 264.609375,140.187515 264.609375,137.09375 C264.609375,134.062485 263.945319,131.632822 262.617188,129.804688 C261.289056,127.976553 259.640635,127.0625 257.671875,127.0625 C255.546864,127.0625 253.851569,127.984366 252.585938,129.828125 C251.320306,131.671884 250.6875,134.093735 250.6875,137.09375 Z M289.078125,150.03125 L289.078125,114.265625 L311.8125,114.265625 L311.8125,118.15625 L293.625,118.15625 L293.625,129.640625 L310.03125,129.640625 L310.03125,133.4375 L293.625,133.4375 L293.625,146.140625 L312.234375,146.140625 L312.234375,150.03125 L289.078125,150.03125 Z M315.84375,136.953125 C315.84375,132.890605 316.953114,129.609388 319.171875,127.109375 C321.390636,124.609363 324.234358,123.359375 327.703125,123.359375 C331.171892,123.359375 333.945302,124.593738 336.023438,127.0625 C338.101573,129.531262 339.140625,132.687481 339.140625,136.53125 C339.140625,137.031252 339.109375,137.718746 339.046875,138.59375 L320.296875,138.59375 C320.296875,140.968762 320.976556,143.007804 322.335938,144.710938 C323.695319,146.414071 325.562488,147.265625 327.9375,147.265625 C331.125016,147.265625 333.453118,145.890639 334.921875,143.140625 L338.625,144.3125 C337.812496,146.21876 336.492197,147.789056 334.664062,149.023438 C332.835928,150.257819 330.578138,150.875 327.890625,150.875 C324.296857,150.875 321.390636,149.601575 319.171875,147.054688 C316.953114,144.5078 315.84375,141.140646 315.84375,136.953125 Z M320.390625,135.359375 L334.6875,135.359375 C334.6875,133.015613 334.062506,131.031258 332.8125,129.40625 C331.562494,127.781242 329.859386,126.96875 327.703125,126.96875 C325.515614,126.96875 323.765632,127.804679 322.453125,129.476562 C321.140618,131.148446 320.453125,133.109364 320.390625,135.359375 Z M357.328125,150.03125 L357.328125,114.265625 L379.40625,114.265625 L379.40625,118.15625 L361.875,118.15625 L361.875,130.109375 L377.578125,130.109375 L377.578125,133.953125 L361.875,133.953125 L361.875,150.03125 L357.328125,150.03125 Z M381.140625,127.90625 L381.140625,124.203125 L385.40625,124.203125 L385.40625,120.640625 C385.40625,118.046862 386.054681,116.125006 387.351562,114.875 C388.648444,113.624994 390.437489,113 392.71875,113 L396.328125,113 L396.328125,116.65625 L393.328125,116.65625 C390.984363,116.65625 389.8125,118.10936 389.8125,121.015625 L389.8125,124.203125 L395.71875,124.203125 L395.71875,127.90625 L389.8125,127.90625 L389.8125,150.03125 L385.40625,150.03125 L385.40625,127.90625 L381.140625,127.90625 Z M410.53125,132.171875 C410.53125,126.671848 411.945298,122.171893 414.773438,118.671875 C417.601577,115.171857 421.437476,113.421875 426.28125,113.421875 C427.968758,113.421875 429.539055,113.687497 430.992188,114.21875 C432.44532,114.750003 433.664058,115.445308 434.648438,116.304688 C435.632817,117.164067 436.429684,118.007808 437.039062,118.835938 C437.648441,119.664067 438.156248,120.499996 438.5625,121.34375 L434.671875,122.65625 C432.453114,119.093732 429.656267,117.3125 426.28125,117.3125 C422.781232,117.3125 420.06251,118.671861 418.125,121.390625 C416.18749,124.109389 415.21875,127.703103 415.21875,132.171875 C415.21875,136.765648 416.21874,140.374987 418.21875,143 C420.21876,145.625013 422.843734,146.9375 426.09375,146.9375 C429.000015,146.9375 431.249992,146.023447 432.84375,144.195312 C434.437508,142.367178 435.265625,140.156263 435.328125,137.5625 C435.328125,137.281249 435.335937,136.757816 435.351562,135.992188 C435.367188,135.226559 435.375,134.687502 435.375,134.375 L425.71875,134.375 L425.71875,130.484375 L439.78125,130.484375 L439.78125,150.03125 L436.546875,150.03125 L436.171875,145.34375 C434.234365,149.031268 430.828149,150.875 425.953125,150.875 C421.421852,150.875 417.718764,149.195329 414.84375,145.835938 C411.968736,142.476546 410.53125,137.921904 410.53125,132.171875 Z M449.25,136.625 C449.25,139.531265 449.874994,141.851554 451.125,143.585938 C452.375006,145.320321 453.99999,146.1875 456,146.1875 C458.00001,146.1875 459.601556,145.343758 460.804688,143.65625 C462.007819,141.968742 462.609375,139.60939 462.609375,136.578125 C462.609375,133.60936 462.000006,131.281258 460.78125,129.59375 C459.562494,127.906242 457.984385,127.0625 456.046875,127.0625 C453.984365,127.0625 452.335944,127.953116 451.101562,129.734375 C449.867181,131.515634 449.25,133.812486 449.25,136.625 Z M444.796875,136.671875 C444.796875,132.671855 445.796865,129.453137 447.796875,127.015625 C449.796885,124.578113 452.359359,123.359375 455.484375,123.359375 C457.328134,123.359375 458.851556,123.835933 460.054688,124.789062 C461.257819,125.742192 462.109373,126.812494 462.609375,128 L462.609375,124.203125 L466.96875,124.203125 L466.96875,146.796875 C466.96875,151.671899 466.070321,155.296863 464.273438,157.671875 C462.476554,160.046887 459.656269,161.234375 455.8125,161.234375 C451.593729,161.234375 448.328137,159.640641 446.015625,156.453125 L449.015625,154.4375 C450.921885,156.593761 453.218737,157.671875 455.90625,157.671875 C457.96876,157.671875 459.593744,156.875008 460.78125,155.28125 C461.968756,153.687492 462.578125,151.578138 462.609375,148.953125 C462.609375,148.515623 462.617187,147.906254 462.632812,147.125 C462.648438,146.343746 462.65625,145.796877 462.65625,145.484375 C462.031247,146.765631 461.109381,147.820308 459.890625,148.648438 C458.671869,149.476567 457.250008,149.890625 455.625,149.890625 C452.374984,149.890625 449.757822,148.664075 447.773438,146.210938 C445.789053,143.7578 444.796875,140.578145 444.796875,136.671875 Z" id="Aa-Bb-Cc-Dd-Ee-Ff-Gg"></path>
                            <path d="M7.20703125,207.683594 L16.59375,207.683594 L13.7460938,199.351562 C13.605468,198.929685 13.3300802,198.097662 12.9199219,196.855469 C12.5097636,195.613275 12.2109384,194.71094 12.0234375,194.148438 L11.8125,194.148438 C11.6484367,194.664065 11.3613302,195.531244 10.9511719,196.75 C10.5410136,197.968756 10.2539071,198.835935 10.0898438,199.351562 L7.20703125,207.683594 Z M0,217.773438 L9.9140625,190.949219 L13.921875,190.949219 L23.8007812,217.773438 L20.109375,217.773438 L17.578125,210.425781 L6.2578125,210.425781 L3.69140625,217.773438 L0,217.773438 Z M28.3710938,212.640625 C28.3710938,213.484379 28.7226527,214.199216 29.4257812,214.785156 C30.1289098,215.371097 31.078119,215.664062 32.2734375,215.664062 C33.8671955,215.664062 35.2206976,215.148443 36.3339844,214.117188 C37.4472712,213.085932 38.0039062,211.761727 38.0039062,210.144531 L38.0039062,207.753906 C37.0664016,207.988282 35.5429793,208.26953 33.4335938,208.597656 C30.0585769,209.160159 28.3710938,210.507802 28.3710938,212.640625 Z M25.0664062,212.921875 C25.0664062,209.289044 27.820285,207.050785 33.328125,206.207031 C35.718762,205.832029 37.2773401,205.527345 38.0039062,205.292969 L38.0039062,204.203125 C38.0039062,203.078119 37.6113321,202.164066 36.8261719,201.460938 C36.0410117,200.757809 34.9336009,200.40625 33.5039062,200.40625 C32.3789006,200.40625 31.2949271,200.669919 30.2519531,201.197266 C29.2089792,201.724612 28.335941,202.421871 27.6328125,203.289062 L25.5585938,201.53125 C26.5195361,200.382807 27.6913993,199.468753 29.0742188,198.789062 C30.4570382,198.109372 31.9101486,197.769531 33.4335938,197.769531 C38.6601824,197.769531 41.2734375,200.34763 41.2734375,205.503906 L41.2734375,217.773438 L38.109375,217.773438 L38.109375,214.855469 C37.7109355,215.816411 36.9492244,216.648434 35.8242188,217.351562 C34.6992131,218.054691 33.3750076,218.40625 31.8515625,218.40625 C29.7187393,218.40625 28.0546935,217.896489 26.859375,216.876953 C25.6640565,215.857417 25.0664062,214.539071 25.0664062,212.921875 Z M56.0039062,217.773438 L56.0039062,190.949219 L65.9882812,190.949219 C68.6601696,190.949219 70.6874931,191.576166 72.0703125,192.830078 C73.4531319,194.083991 74.1445312,195.777333 74.1445312,197.910156 C74.1445312,199.292976 73.7988316,200.476558 73.1074219,201.460938 C72.4160122,202.445317 71.5312554,203.183591 70.453125,203.675781 C71.7421939,204.074221 72.8437454,204.85351 73.7578125,206.013672 C74.6718796,207.173834 75.1289062,208.562492 75.1289062,210.179688 C75.1289062,212.289073 74.4375069,214.082024 73.0546875,215.558594 C71.6718681,217.035164 69.7500123,217.773438 67.2890625,217.773438 L56.0039062,217.773438 Z M59.4140625,214.855469 L66.5507812,214.855469 C67.9804759,214.855469 69.1816358,214.445317 70.1542969,213.625 C71.126958,212.804683 71.6132812,211.667976 71.6132812,210.214844 C71.6132812,208.832024 71.1445359,207.683598 70.2070312,206.769531 C69.2695266,205.855464 68.0039142,205.398438 66.4101562,205.398438 L59.4140625,205.398438 L59.4140625,214.855469 Z M59.4140625,202.550781 L65.4960938,202.550781 C66.9726636,202.550781 68.1972608,202.181644 69.1699219,201.443359 C70.142583,200.705074 70.6289062,199.609382 70.6289062,198.15625 C70.6289062,196.867181 70.2304727,195.830082 69.4335938,195.044922 C68.6367148,194.259762 67.3711024,193.867188 65.6367188,193.867188 L59.4140625,193.867188 L59.4140625,202.550781 Z M79.6992188,217.773438 L79.6992188,190 L82.96875,190 L82.96875,201.425781 C83.3671895,200.511714 84.0644481,199.673832 85.0605469,198.912109 C86.0566456,198.150387 87.2226496,197.769531 88.5585938,197.769531 C90.9492307,197.769531 92.9062424,198.689444 94.4296875,200.529297 C95.9531326,202.36915 96.7148438,204.882797 96.7148438,208.070312 C96.7148438,209.851571 96.4687525,211.433587 95.9765625,212.816406 C95.4843725,214.199226 94.8281291,215.283199 94.0078125,216.068359 C93.1874959,216.85352 92.3203171,217.439451 91.40625,217.826172 C90.4921829,218.212893 89.5429737,218.40625 88.5585938,218.40625 C87.2695248,218.40625 86.1210988,218.037113 85.1132812,217.298828 C84.1054637,216.560543 83.3789085,215.675786 82.9335938,214.644531 L82.9335938,217.773438 L79.6992188,217.773438 Z M82.8984375,208.070312 C82.8984375,210.390637 83.3964794,212.230462 84.3925781,213.589844 C85.3886769,214.949226 86.6249926,215.628906 88.1015625,215.628906 C89.6250076,215.628906 90.8789013,214.966803 91.8632812,213.642578 C92.8476612,212.318353 93.3398438,210.460949 93.3398438,208.070312 C93.3398438,205.773426 92.8593798,203.945319 91.8984375,202.585938 C90.9374952,201.226556 89.6718829,200.546875 88.1015625,200.546875 C86.6249926,200.546875 85.3886769,201.232415 84.3925781,202.603516 C83.3964794,203.974616 82.8984375,205.796864 82.8984375,208.070312 Z M108.667969,204.378906 C108.667969,200.042947 109.740224,196.615247 111.884766,194.095703 C114.029308,191.576159 116.824202,190.316406 120.269531,190.316406 C122.425792,190.316406 124.265617,190.908197 125.789062,192.091797 C127.312508,193.275397 128.449215,194.710929 129.199219,196.398438 L126.28125,197.382812 C124.71093,194.617174 122.683606,193.234375 120.199219,193.234375 C117.738269,193.234375 115.787117,194.248037 114.345703,196.275391 C112.90429,198.302745 112.183594,201.003889 112.183594,204.378906 C112.183594,207.800798 112.916008,210.501943 114.380859,212.482422 C115.84571,214.462901 117.785144,215.453125 120.199219,215.453125 C121.746101,215.453125 123.099604,215.013676 124.259766,214.134766 C125.419928,213.255855 126.281247,212.171881 126.84375,210.882812 L129.902344,211.867188 C129.550779,212.664066 129.111331,213.414059 128.583984,214.117188 C128.056638,214.820316 127.406254,215.511715 126.632812,216.191406 C125.859371,216.871097 124.92774,217.410154 123.837891,217.808594 C122.748041,218.207033 121.5586,218.40625 120.269531,218.40625 C116.871077,218.40625 114.087901,217.164075 111.919922,214.679688 C109.751942,212.1953 108.667969,208.761741 108.667969,204.378906 Z M132.257812,208.105469 C132.257812,205.011703 133.05468,202.515634 134.648438,200.617188 C136.242195,198.718741 138.363268,197.769531 141.011719,197.769531 C142.816415,197.769531 144.345697,198.29687 145.599609,199.351562 C146.853522,200.406255 147.679686,201.636712 148.078125,203.042969 L145.265625,203.851562 C144.937498,202.937495 144.398441,202.158206 143.648438,201.513672 C142.898434,200.869137 142.031255,200.546875 141.046875,200.546875 C139.382804,200.546875 138.064458,201.261712 137.091797,202.691406 C136.119136,204.121101 135.632812,205.92577 135.632812,208.105469 C135.632812,210.425793 136.142573,212.259759 137.162109,213.607422 C138.181646,214.955085 139.476555,215.628906 141.046875,215.628906 C142.125005,215.628906 143.091793,215.271488 143.947266,214.556641 C144.802739,213.841793 145.406248,213.01563 145.757812,212.078125 L148.570312,212.921875 C148.10156,214.398445 147.181647,215.681635 145.810547,216.771484 C144.439446,217.861334 142.839853,218.40625 141.011719,218.40625 C138.410143,218.40625 136.300789,217.474619 134.683594,215.611328 C133.066398,213.748038 132.257812,211.246109 132.257812,208.105469 Z M161.613281,217.773438 L161.613281,190.949219 L169.101562,190.949219 C173.015645,190.949219 176.080067,192.097645 178.294922,194.394531 C180.509777,196.691418 181.617188,200.019509 181.617188,204.378906 C181.617188,208.457052 180.562511,211.708972 178.453125,214.134766 C176.343739,216.560559 173.203146,217.773438 169.03125,217.773438 L161.613281,217.773438 Z M165.023438,214.890625 L168.574219,214.890625 C171.550796,214.890625 173.882804,214.052743 175.570312,212.376953 C177.257821,210.701163 178.101562,208.035175 178.101562,204.378906 C178.101562,197.371059 174.94925,193.867188 168.644531,193.867188 L165.023438,193.867188 L165.023438,214.890625 Z M184.640625,208.070312 C184.640625,204.882797 185.414055,202.36915 186.960938,200.529297 C188.50782,198.689444 190.464832,197.769531 192.832031,197.769531 C194.144538,197.769531 195.292964,198.132809 196.277344,198.859375 C197.261724,199.585941 197.964842,200.417964 198.386719,201.355469 L198.386719,190 L201.65625,190 L201.65625,217.773438 L198.492188,217.773438 L198.492188,214.609375 C198.023435,215.687505 197.285161,216.58984 196.277344,217.316406 C195.269526,218.042972 194.1211,218.40625 192.832031,218.40625 C191.847651,218.40625 190.886723,218.212893 189.949219,217.826172 C189.011714,217.439451 188.138676,216.85352 187.330078,216.068359 C186.52148,215.283199 185.871096,214.199226 185.378906,212.816406 C184.886716,211.433587 184.640625,209.851571 184.640625,208.070312 Z M188.015625,208.070312 C188.015625,210.390637 188.496089,212.230462 189.457031,213.589844 C190.417974,214.949226 191.683586,215.628906 193.253906,215.628906 C194.707039,215.628906 195.937495,214.949226 196.945312,213.589844 C197.95313,212.230462 198.457031,210.390637 198.457031,208.070312 C198.457031,205.796864 197.958989,203.974616 196.962891,202.603516 C195.966792,201.232415 194.730476,200.546875 193.253906,200.546875 C191.660148,200.546875 190.388677,201.238274 189.439453,202.621094 C188.49023,204.003913 188.015625,205.820301 188.015625,208.070312 Z M216.808594,217.773438 L216.808594,190.949219 L233.859375,190.949219 L233.859375,193.867188 L220.21875,193.867188 L220.21875,202.480469 L232.523438,202.480469 L232.523438,205.328125 L220.21875,205.328125 L220.21875,214.855469 L234.175781,214.855469 L234.175781,217.773438 L216.808594,217.773438 Z M236.882812,207.964844 C236.882812,204.917954 237.714835,202.457041 239.378906,200.582031 C241.042977,198.707022 243.175768,197.769531 245.777344,197.769531 C248.378919,197.769531 250.458977,198.695303 252.017578,200.546875 C253.57618,202.398447 254.355469,204.765611 254.355469,207.648438 C254.355469,208.023439 254.332031,208.539059 254.285156,209.195312 L240.222656,209.195312 C240.222656,210.976571 240.732417,212.505853 241.751953,213.783203 C242.771489,215.060553 244.171866,215.699219 245.953125,215.699219 C248.343762,215.699219 250.089838,214.667979 251.191406,212.605469 L253.96875,213.484375 C253.359372,214.91407 252.369147,216.091792 250.998047,217.017578 C249.626946,217.943364 247.933604,218.40625 245.917969,218.40625 C243.222643,218.40625 241.042977,217.451181 239.378906,215.541016 C237.714835,213.63085 236.882812,211.105484 236.882812,207.964844 Z M240.292969,206.769531 L251.015625,206.769531 C251.015625,205.01171 250.54688,203.523444 249.609375,202.304688 C248.67187,201.085931 247.394539,200.476562 245.777344,200.476562 C244.136711,200.476562 242.824224,201.103509 241.839844,202.357422 C240.855464,203.611334 240.339844,205.082023 240.292969,206.769531 Z M267.996094,217.773438 L267.996094,190.949219 L284.554688,190.949219 L284.554688,193.867188 L271.40625,193.867188 L271.40625,202.832031 L283.183594,202.832031 L283.183594,205.714844 L271.40625,205.714844 L271.40625,217.773438 L267.996094,217.773438 Z M285.855469,201.179688 L285.855469,198.402344 L289.054688,198.402344 L289.054688,195.730469 C289.054688,193.785147 289.541011,192.343755 290.513672,191.40625 C291.486333,190.468745 292.828116,190 294.539062,190 L297.246094,190 L297.246094,192.742188 L294.996094,192.742188 C293.238272,192.742188 292.359375,193.83202 292.359375,196.011719 L292.359375,198.402344 L296.789062,198.402344 L296.789062,201.179688 L292.359375,201.179688 L292.359375,217.773438 L289.054688,217.773438 L289.054688,201.179688 L285.855469,201.179688 Z M307.898438,204.378906 C307.898438,200.253886 308.958974,196.878919 311.080078,194.253906 C313.201182,191.628893 316.078107,190.316406 319.710938,190.316406 C320.976569,190.316406 322.154291,190.515623 323.244141,190.914062 C324.33399,191.312502 325.248043,191.833981 325.986328,192.478516 C326.724613,193.12305 327.322263,193.755856 327.779297,194.376953 C328.23633,194.99805 328.617186,195.624997 328.921875,196.257812 L326.003906,197.242188 C324.339835,194.570299 322.2422,193.234375 319.710938,193.234375 C317.085924,193.234375 315.046882,194.253896 313.59375,196.292969 C312.140618,198.332041 311.414062,201.027327 311.414062,204.378906 C311.414062,207.824236 312.164055,210.53124 313.664062,212.5 C315.16407,214.46876 317.1328,215.453125 319.570312,215.453125 C321.750011,215.453125 323.437494,214.767585 324.632812,213.396484 C325.828131,212.025384 326.449219,210.367197 326.496094,208.421875 C326.496094,208.210936 326.501953,207.818362 326.513672,207.244141 C326.525391,206.669919 326.53125,206.265626 326.53125,206.03125 L319.289062,206.03125 L319.289062,203.113281 L329.835938,203.113281 L329.835938,217.773438 L327.410156,217.773438 L327.128906,214.257812 C325.675774,217.023451 323.121112,218.40625 319.464844,218.40625 C316.066389,218.40625 313.289073,217.146497 311.132812,214.626953 C308.976552,212.107409 307.898438,208.691428 307.898438,204.378906 Z M336.9375,207.71875 C336.9375,209.898448 337.406245,211.638665 338.34375,212.939453 C339.281255,214.240241 340.499993,214.890625 342,214.890625 C343.500007,214.890625 344.701167,214.257819 345.603516,212.992188 C346.505864,211.726556 346.957031,209.957043 346.957031,207.683594 C346.957031,205.45702 346.500005,203.710944 345.585938,202.445312 C344.67187,201.179681 343.488289,200.546875 342.035156,200.546875 C340.488274,200.546875 339.251958,201.214837 338.326172,202.550781 C337.400386,203.886725 336.9375,205.609364 336.9375,207.71875 Z M333.597656,207.753906 C333.597656,204.753891 334.347649,202.339853 335.847656,200.511719 C337.347664,198.683585 339.26952,197.769531 341.613281,197.769531 C342.996101,197.769531 344.138667,198.12695 345.041016,198.841797 C345.943364,199.556644 346.582029,200.359371 346.957031,201.25 L346.957031,198.402344 L350.226562,198.402344 L350.226562,215.347656 C350.226562,219.003925 349.552741,221.722647 348.205078,223.503906 C346.857415,225.285165 344.742202,226.175781 341.859375,226.175781 C338.695297,226.175781 336.246102,224.980481 334.511719,222.589844 L336.761719,221.078125 C338.191413,222.695321 339.914052,223.503906 341.929688,223.503906 C343.47657,223.503906 344.695308,222.906256 345.585938,221.710938 C346.476567,220.515619 346.933594,218.933604 346.957031,216.964844 C346.957031,216.636717 346.962891,216.17969 346.974609,215.59375 C346.986328,215.00781 346.992188,214.597657 346.992188,214.363281 C346.523435,215.324224 345.832036,216.115231 344.917969,216.736328 C344.003902,217.357425 342.937506,217.667969 341.71875,217.667969 C339.281238,217.667969 337.318367,216.748056 335.830078,214.908203 C334.341789,213.06835 333.597656,210.683608 333.597656,207.753906 Z M365.203125,217.773438 L365.203125,190.949219 L368.613281,190.949219 L368.613281,202.550781 L380.988281,202.550781 L380.988281,190.949219 L384.398438,190.949219 L384.398438,217.773438 L380.988281,217.773438 L380.988281,205.398438 L368.613281,205.398438 L368.613281,217.773438 L365.203125,217.773438 Z M390.726562,217.773438 L390.726562,190 L393.996094,190 L393.996094,201.144531 L394.066406,201.144531 C394.558596,200.207027 395.314448,199.41016 396.333984,198.753906 C397.353521,198.097653 398.47265,197.769531 399.691406,197.769531 C401.613291,197.769531 403.154291,198.355463 404.314453,199.527344 C405.474615,200.699225 406.054688,202.609362 406.054688,205.257812 L406.054688,217.773438 L402.785156,217.773438 L402.785156,205.75 C402.785156,202.281233 401.5547,200.546875 399.09375,200.546875 C397.710931,200.546875 396.51563,201.126947 395.507812,202.287109 C394.499995,203.447271 393.996094,204.824211 393.996094,206.417969 L393.996094,217.773438 L390.726562,217.773438 Z M420.785156,217.773438 L420.785156,190.949219 L424.195312,190.949219 L424.195312,217.773438 L420.785156,217.773438 Z M430.59375,194.570312 L430.59375,190.5625 L434.496094,190.5625 L434.496094,194.570312 L430.59375,194.570312 Z M430.945312,217.773438 L430.945312,198.402344 L434.179688,198.402344 L434.179688,217.773438 L430.945312,217.773438 Z" id="Aa-Bb-Cc-Dd-Ee-Ff-Gg"></path>
                            <path d="M6.421875,270.351562 L11.25,270.351562 L10.03125,266.296875 C9.54687258,264.671867 9.17187633,263.367192 8.90625,262.382812 L8.765625,262.382812 C8.4062482,263.742194 8.03906438,265.046869 7.6640625,266.296875 L6.421875,270.351562 Z M0,277.78125 L6.7734375,258.585938 L10.921875,258.585938 L17.6953125,277.78125 L13.59375,277.78125 L12.234375,273.492188 L5.4609375,273.492188 L4.1015625,277.78125 L0,277.78125 Z M22.1015625,273.609375 C22.1015625,274.031252 22.2656234,274.386717 22.59375,274.675781 C22.9218766,274.964845 23.3437474,275.109375 23.859375,275.109375 C24.6875041,275.109375 25.3906221,274.828128 25.96875,274.265625 C26.5468779,273.703122 26.8359375,272.95313 26.8359375,272.015625 L26.8359375,271.078125 C25.929683,271.296876 25.2109402,271.445312 24.6796875,271.523438 C22.9609289,271.773439 22.1015625,272.468744 22.1015625,273.609375 Z M18.3046875,273.9375 C18.3046875,272.656244 18.7968701,271.593754 19.78125,270.75 C20.7656299,269.906246 22.210928,269.343751 24.1171875,269.0625 C25.6796953,268.812499 26.5859362,268.648438 26.8359375,268.570312 L26.8359375,267.84375 C26.8359375,267.265622 26.6367207,266.839845 26.2382812,266.566406 C25.8398418,266.292967 25.3203157,266.15625 24.6796875,266.15625 C23.2109302,266.15625 21.9453178,266.734369 20.8828125,267.890625 L18.6796875,265.992188 C20.2109452,264.164053 22.1953003,263.25 24.6328125,263.25 C26.7890733,263.25 28.320308,263.76562 29.2265625,264.796875 C30.132817,265.82813 30.5859375,267.289053 30.5859375,269.179688 L30.5859375,277.78125 L26.953125,277.78125 L26.953125,276.328125 C26.6718736,276.859378 26.2031283,277.304686 25.546875,277.664062 C24.8906217,278.023439 24.1406292,278.203125 23.296875,278.203125 C21.7656173,278.203125 20.5507857,277.808598 19.6523438,277.019531 C18.7539018,276.230465 18.3046875,275.203131 18.3046875,273.9375 Z M39.5390625,277.78125 L39.5390625,258.585938 L46.96875,258.585938 C49.1250108,258.585938 50.7265573,259.042964 51.7734375,259.957031 C52.8203177,260.871098 53.34375,262.132804 53.34375,263.742188 C53.34375,264.601567 53.1445332,265.363278 52.7460938,266.027344 C52.3476543,266.69141 51.8281282,267.210936 51.1875,267.585938 C51.9062536,267.882814 52.5546846,268.417965 53.1328125,269.191406 C53.7109404,269.964848 54,270.921869 54,272.0625 C54,273.734383 53.4609429,275.105463 52.3828125,276.175781 C51.3046821,277.246099 49.8125095,277.78125 47.90625,277.78125 L39.5390625,277.78125 Z M43.4296875,274.453125 L47.34375,274.453125 C48.0312534,274.453125 48.6367161,274.250002 49.1601562,273.84375 C49.6835964,273.437498 49.9453125,272.843754 49.9453125,272.0625 C49.9453125,271.343746 49.7148461,270.746096 49.2539062,270.269531 C48.7929664,269.792966 48.1250044,269.554688 47.25,269.554688 L43.4296875,269.554688 L43.4296875,274.453125 Z M43.4296875,266.273438 L46.6640625,266.273438 C47.4609415,266.273438 48.0976539,266.085939 48.5742188,265.710938 C49.0507836,265.335936 49.2890625,264.781254 49.2890625,264.046875 C49.2890625,262.640618 48.4375085,261.9375 46.734375,261.9375 L43.4296875,261.9375 L43.4296875,266.273438 Z M56.5078125,277.78125 L56.5078125,258 L60.2109375,258 L60.2109375,264.679688 C61.1328171,263.726558 62.2109313,263.25 63.4453125,263.25 C65.1640711,263.25 66.5976505,263.91015 67.7460938,265.230469 C68.894537,266.550788 69.46875,268.374988 69.46875,270.703125 C69.46875,272.015632 69.2851581,273.175776 68.9179688,274.183594 C68.5507794,275.191411 68.0703155,275.97656 67.4765625,276.539062 C66.8828095,277.101565 66.2500034,277.51953 65.578125,277.792969 C64.9062466,278.066408 64.2187535,278.203125 63.515625,278.203125 C62.7812463,278.203125 62.1015656,278.023439 61.4765625,277.664062 C60.8515594,277.304686 60.3984389,276.882815 60.1171875,276.398438 L60.1171875,277.78125 L56.5078125,277.78125 Z M60.1875,270.703125 C60.1875,272.046882 60.4257789,273.101559 60.9023438,273.867188 C61.3789086,274.632816 62.0468707,275.015625 62.90625,275.015625 C63.703129,275.015625 64.35156,274.656254 64.8515625,273.9375 C65.351565,273.218746 65.6015625,272.140632 65.6015625,270.703125 C65.6015625,269.374993 65.3671898,268.332035 64.8984375,267.574219 C64.4296852,266.816402 63.7656293,266.4375 62.90625,266.4375 C61.9999955,266.4375 61.3203148,266.828121 60.8671875,267.609375 C60.4140602,268.390629 60.1875,269.421869 60.1875,270.703125 Z M76.875,268.171875 C76.875,265.124985 77.6835857,262.695322 79.3007812,260.882812 C80.9179768,259.070303 82.9999873,258.164062 85.546875,258.164062 C87.2500085,258.164062 88.7187438,258.628902 89.953125,259.558594 C91.1875062,260.488286 92.0937471,261.656243 92.671875,263.0625 L89.3203125,264.140625 C88.8828103,263.359371 88.3750029,262.726565 87.796875,262.242188 C87.2187471,261.75781 86.4609422,261.515625 85.5234375,261.515625 C84.1015554,261.515625 82.9726604,262.121088 82.1367188,263.332031 C81.3007771,264.542975 80.8828125,266.15624 80.8828125,268.171875 C80.8828125,270.21876 81.3046833,271.84765 82.1484375,273.058594 C82.9921917,274.269537 84.1171805,274.875 85.5234375,274.875 C86.4609422,274.875 87.3007775,274.570316 88.0429688,273.960938 C88.78516,273.351559 89.3124984,272.617192 89.625,271.757812 L93.140625,272.859375 C92.9531241,273.328127 92.7265638,273.78906 92.4609375,274.242188 C92.1953112,274.695315 91.839846,275.167966 91.3945312,275.660156 C90.9492165,276.152346 90.4570339,276.582029 89.9179688,276.949219 C89.3789036,277.316408 88.7304725,277.617186 87.9726562,277.851562 C87.21484,278.085939 86.4062543,278.203125 85.546875,278.203125 C83.0468625,278.203125 80.9765707,277.312509 79.3359375,275.53125 C77.6953043,273.749991 76.875,271.296891 76.875,268.171875 Z M94.2890625,270.726562 C94.2890625,268.414051 94.9140563,266.58985 96.1640625,265.253906 C97.4140688,263.917962 99.0078028,263.25 100.945312,263.25 C102.44532,263.25 103.687495,263.710933 104.671875,264.632812 C105.656255,265.554692 106.265624,266.585932 106.5,267.726562 L103.335938,268.59375 C103.179687,268.015622 102.906252,267.511721 102.515625,267.082031 C102.124998,266.652342 101.625003,266.4375 101.015625,266.4375 C100.07812,266.4375 99.3671899,266.843746 98.8828125,267.65625 C98.3984351,268.468754 98.15625,269.492181 98.15625,270.726562 C98.15625,272.117194 98.4257786,273.179684 98.9648438,273.914062 C99.5039089,274.648441 100.187496,275.015625 101.015625,275.015625 C101.703128,275.015625 102.281248,274.781252 102.75,274.3125 C103.218752,273.843748 103.523437,273.304691 103.664062,272.695312 L106.828125,273.539062 C106.562499,274.757819 105.882818,275.839839 104.789062,276.785156 C103.695307,277.730473 102.41407,278.203125 100.945312,278.203125 C98.9765527,278.203125 97.3750062,277.523444 96.140625,276.164062 C94.9062438,274.804681 94.2890625,272.992199 94.2890625,270.726562 Z M114.914062,277.78125 L114.914062,258.585938 L120.914062,258.585938 C123.898452,258.585938 126.171867,259.41796 127.734375,261.082031 C129.296883,262.746102 130.078125,265.10936 130.078125,268.171875 C130.078125,269.156255 129.996095,270.078121 129.832031,270.9375 C129.667968,271.796879 129.371096,272.656246 128.941406,273.515625 C128.511717,274.375004 127.964847,275.109372 127.300781,275.71875 C126.636715,276.328128 125.757818,276.824217 124.664062,277.207031 C123.570307,277.589846 122.32032,277.78125 120.914062,277.78125 L114.914062,277.78125 Z M118.804688,274.5 L120.539062,274.5 C122.367197,274.5 123.73437,274.000005 124.640625,273 C125.54688,271.999995 126,270.390636 126,268.171875 C126,265.890614 125.531255,264.273442 124.59375,263.320312 C123.656245,262.367183 122.320321,261.890625 120.585938,261.890625 L118.804688,261.890625 L118.804688,274.5 Z M131.625,270.703125 C131.625,268.374988 132.191401,266.550788 133.324219,265.230469 C134.457037,263.91015 135.914054,263.25 137.695312,263.25 C139.007819,263.25 140.062496,263.73437 140.859375,264.703125 L140.859375,258 L144.585938,258 L144.585938,277.78125 L140.953125,277.78125 L140.953125,276.375 C140.671874,276.859377 140.226566,277.285154 139.617188,277.652344 C139.007809,278.019533 138.359378,278.203125 137.671875,278.203125 C136.921871,278.203125 136.199222,278.062501 135.503906,277.78125 C134.80859,277.499999 134.164065,277.078128 133.570312,276.515625 C132.97656,275.953122 132.503908,275.17188 132.152344,274.171875 C131.800779,273.17187 131.625,272.015632 131.625,270.703125 Z M135.46875,270.703125 C135.46875,272.093757 135.714841,273.160153 136.207031,273.902344 C136.699221,274.644535 137.367183,275.015625 138.210938,275.015625 C139.039067,275.015625 139.691404,274.632816 140.167969,273.867188 C140.644534,273.101559 140.882812,272.046882 140.882812,270.703125 C140.882812,269.421869 140.656252,268.390629 140.203125,267.609375 C139.749998,266.828121 139.085942,266.4375 138.210938,266.4375 C137.304683,266.4375 136.621096,266.824215 136.160156,267.597656 C135.699216,268.371098 135.46875,269.406244 135.46875,270.703125 Z M153.867188,277.78125 L153.867188,258.585938 L166.828125,258.585938 L166.828125,261.9375 L157.757812,261.9375 L157.757812,266.226562 L165.914062,266.226562 L165.914062,269.507812 L157.757812,269.507812 L157.757812,274.453125 L167.085938,274.453125 L167.085938,277.78125 L153.867188,277.78125 Z M168.421875,270.679688 C168.421875,268.382801 169.062494,266.570319 170.34375,265.242188 C171.625006,263.914056 173.210928,263.25 175.101562,263.25 C176.929697,263.25 178.480462,263.933587 179.753906,265.300781 C181.02735,266.667976 181.664062,268.460926 181.664062,270.679688 C181.664062,271.132815 181.640625,271.585935 181.59375,272.039062 L172.21875,272.039062 C172.21875,272.929692 172.499997,273.683591 173.0625,274.300781 C173.625003,274.917972 174.382808,275.226562 175.335938,275.226562 C176.039066,275.226562 176.652341,275.050783 177.175781,274.699219 C177.699221,274.347654 178.093749,273.89844 178.359375,273.351562 L181.476562,274.453125 C181.00781,275.500005 180.242193,276.386715 179.179688,277.113281 C178.117182,277.839847 176.796883,278.203125 175.21875,278.203125 C173.234365,278.203125 171.605475,277.523444 170.332031,276.164062 C169.058587,274.804681 168.421875,272.976574 168.421875,270.679688 Z M172.242188,269.484375 L177.84375,269.484375 C177.84375,268.57812 177.605471,267.800784 177.128906,267.152344 C176.652341,266.503903 175.976567,266.179688 175.101562,266.179688 C174.210933,266.179688 173.511721,266.507809 173.003906,267.164062 C172.496091,267.820316 172.242188,268.593746 172.242188,269.484375 Z M190.03125,277.78125 L190.03125,258.585938 L202.617188,258.585938 L202.617188,261.9375 L193.921875,261.9375 L193.921875,266.53125 L201.703125,266.53125 L201.703125,269.835938 L193.921875,269.835938 L193.921875,277.78125 L190.03125,277.78125 Z M203.507812,266.835938 L203.507812,263.671875 L205.523438,263.671875 L205.523438,262.5 C205.523438,261.015618 205.890621,259.894535 206.625,259.136719 C207.359379,258.378902 208.414056,258 209.789062,258 L212.273438,258 L212.273438,261.210938 L210.375,261.210938 C209.984373,261.210938 209.703126,261.328124 209.53125,261.5625 C209.359374,261.796876 209.273438,262.187497 209.273438,262.734375 L209.273438,263.671875 L211.96875,263.671875 L211.96875,266.835938 L209.273438,266.835938 L209.273438,277.78125 L205.523438,277.78125 L205.523438,266.835938 L203.507812,266.835938 Z M218.882812,268.171875 C218.882812,265.249985 219.683586,262.851572 221.285156,260.976562 C222.886727,259.101553 225.031237,258.164062 227.71875,258.164062 C228.76563,258.164062 229.734371,258.339842 230.625,258.691406 C231.515629,259.042971 232.246091,259.499997 232.816406,260.0625 C233.386722,260.625003 233.843748,261.148435 234.1875,261.632812 C234.531252,262.11719 234.796874,262.593748 234.984375,263.0625 L231.632812,264.117188 C231.382811,263.742186 231.171876,263.445314 231,263.226562 C230.828124,263.007811 230.578127,262.742189 230.25,262.429688 C229.921873,262.117186 229.550783,261.886719 229.136719,261.738281 C228.722654,261.589843 228.257815,261.515625 227.742188,261.515625 C226.226555,261.515625 225.039067,262.117181 224.179688,263.320312 C223.320308,264.523444 222.890625,266.140615 222.890625,268.171875 C222.890625,270.203135 223.335933,271.828119 224.226562,273.046875 C225.117192,274.265631 226.242181,274.875 227.601562,274.875 C228.742193,274.875 229.65234,274.578128 230.332031,273.984375 C231.011722,273.390622 231.421874,272.593755 231.5625,271.59375 C231.625,271.187498 231.65625,270.71094 231.65625,270.164062 L227.390625,270.164062 L227.390625,266.835938 L235.429688,266.835938 L235.429688,277.78125 L232.78125,277.78125 L232.429688,276.328125 C231.382807,277.578131 229.726574,278.203125 227.460938,278.203125 C225.03905,278.203125 223.003914,277.292978 221.355469,275.472656 C219.707023,273.652335 218.882812,271.218765 218.882812,268.171875 Z M241.171875,270.445312 C241.171875,271.742194 241.406248,272.730465 241.875,273.410156 C242.343752,274.089847 242.960934,274.429688 243.726562,274.429688 C244.492191,274.429688 245.10156,274.093753 245.554688,273.421875 C246.007815,272.749997 246.234375,271.757819 246.234375,270.445312 C246.234375,269.148431 246.003909,268.156253 245.542969,267.46875 C245.082029,266.781247 244.476566,266.4375 243.726562,266.4375 C242.945309,266.4375 242.324221,266.785153 241.863281,267.480469 C241.402341,268.175785 241.171875,269.164056 241.171875,270.445312 Z M237.328125,270.46875 C237.328125,268.249989 237.886713,266.492194 239.003906,265.195312 C240.121099,263.898431 241.531241,263.25 243.234375,263.25 C243.968754,263.25 244.593747,263.421873 245.109375,263.765625 C245.625003,264.109377 245.999999,264.484373 246.234375,264.890625 L246.234375,263.671875 L249.984375,263.671875 L249.984375,275.648438 C249.984375,278.304701 249.441412,280.261712 248.355469,281.519531 C247.269526,282.77735 245.625011,283.40625 243.421875,283.40625 C240.968738,283.40625 239.078132,282.468759 237.75,280.59375 L240.1875,278.859375 C241.046879,279.906255 242.148431,280.429688 243.492188,280.429688 C244.195316,280.429688 244.808591,280.171878 245.332031,279.65625 C245.855471,279.140622 246.148437,278.476567 246.210938,277.664062 C246.257813,277.10156 246.28125,276.648439 246.28125,276.304688 C245.999999,276.679689 245.574222,276.992186 245.003906,277.242188 C244.433591,277.492189 243.882815,277.617188 243.351562,277.617188 C241.570304,277.617188 240.121099,276.968756 239.003906,275.671875 C237.886713,274.374994 237.328125,272.640636 237.328125,270.46875 Z M259.03125,277.78125 L259.03125,258.585938 L262.898438,258.585938 L262.898438,266.273438 L269.625,266.273438 L269.625,258.585938 L273.515625,258.585938 L273.515625,277.78125 L269.625,277.78125 L269.625,269.578125 L262.898438,269.578125 L262.898438,277.78125 L259.03125,277.78125 Z M276.914062,277.78125 L276.914062,258 L280.617188,258 L280.617188,264.585938 L280.6875,264.585938 C281.531254,263.695308 282.609368,263.25 283.921875,263.25 C284.531253,263.25 285.105466,263.343749 285.644531,263.53125 C286.183596,263.718751 286.691404,264.011717 287.167969,264.410156 C287.644534,264.808596 288.023436,265.378903 288.304688,266.121094 C288.585939,266.863285 288.726562,267.73437 288.726562,268.734375 L288.726562,277.78125 L284.976562,277.78125 L284.976562,269.15625 C284.976562,267.343741 284.398443,266.4375 283.242188,266.4375 C282.476559,266.4375 281.847659,266.77734 281.355469,267.457031 C280.863279,268.136722 280.617188,268.937495 280.617188,269.859375 L280.617188,277.78125 L276.914062,277.78125 Z M297.703125,277.78125 L297.703125,258.585938 L301.59375,258.585938 L301.59375,277.78125 L297.703125,277.78125 Z M305.015625,262.171875 L305.015625,258.328125 L308.789062,258.328125 L308.789062,262.171875 L305.015625,262.171875 Z M305.0625,277.78125 L305.0625,263.671875 L308.765625,263.671875 L308.765625,277.78125 L305.0625,277.78125 Z M316.40625,273.914062 L319.546875,272.625 C319.687501,273.203128 319.972654,273.722654 320.402344,274.183594 C320.832033,274.644534 321.359372,274.875 321.984375,274.875 C323.437507,274.875 324.164062,273.820323 324.164062,271.710938 L324.164062,258.585938 L328.078125,258.585938 L328.078125,272.179688 C328.078125,274.070322 327.550787,275.54687 326.496094,276.609375 C325.441401,277.67188 323.960947,278.203125 322.054688,278.203125 C320.507805,278.203125 319.257817,277.773442 318.304688,276.914062 C317.351558,276.054683 316.718752,275.054693 316.40625,273.914062 Z M331.640625,262.171875 L331.640625,258.328125 L335.484375,258.328125 L335.484375,262.171875 L331.640625,262.171875 Z M329.601562,279.867188 L330.023438,279.867188 C330.58594,279.867188 331.003905,279.675783 331.277344,279.292969 C331.550783,278.910154 331.6875,278.289067 331.6875,277.429688 L331.6875,263.671875 L335.4375,263.671875 L335.4375,277.570312 C335.4375,279.398447 335.023442,280.777339 334.195312,281.707031 C333.367183,282.636723 332.171883,283.101562 330.609375,283.101562 L329.601562,283.101562 L329.601562,279.867188 Z M344.742188,277.78125 L344.742188,258.585938 L348.632812,258.585938 L348.632812,266.367188 L348.703125,266.367188 L355.382812,258.585938 L360.257812,258.585938 L352.734375,267.023438 L360.304688,277.78125 L355.664062,277.78125 L350.296875,269.765625 L348.632812,271.640625 L348.632812,277.78125 L344.742188,277.78125 Z M361.710938,277.78125 L361.710938,258 L365.414062,258 L365.414062,268.40625 L369.75,263.671875 L374.367188,263.671875 L369.070312,269.460938 L374.554688,277.78125 L370.21875,277.78125 L366.65625,272.085938 L365.414062,273.445312 L365.414062,277.78125 L361.710938,277.78125 Z M381.914062,277.78125 L381.914062,258.585938 L385.804688,258.585938 L385.804688,274.453125 L394.242188,274.453125 L394.242188,277.78125 L381.914062,277.78125 Z M396.1875,277.78125 L396.1875,258 L399.9375,258 L399.9375,277.78125 L396.1875,277.78125 Z M409.3125,277.78125 L409.3125,258.585938 L414,258.585938 L416.835938,266.671875 C417.054689,267.312503 417.335936,268.199213 417.679688,269.332031 C418.023439,270.464849 418.257812,271.226561 418.382812,271.617188 L418.476562,271.617188 C419.320317,269.03905 419.867186,267.390629 420.117188,266.671875 L422.882812,258.585938 L427.59375,258.585938 L427.59375,277.78125 L423.726562,277.78125 L423.726562,270.375 C423.726562,269.156244 423.867186,267.156264 424.148438,264.375 L424.03125,264.375 L422.390625,269.390625 L419.8125,276.890625 L417.09375,276.890625 L414.539062,269.390625 L412.875,264.328125 L412.734375,264.328125 C413.015626,266.625011 413.15625,268.640616 413.15625,270.375 L413.15625,277.78125 L409.3125,277.78125 Z M430.875,277.78125 L430.875,263.671875 L434.460938,263.671875 L434.460938,265.007812 L434.484375,265.007812 C434.640626,264.789061 434.839843,264.566407 435.082031,264.339844 C435.32422,264.11328 435.710935,263.875001 436.242188,263.625 C436.77344,263.374999 437.32031,263.25 437.882812,263.25 C439.35157,263.25 440.453121,263.953118 441.1875,265.359375 C442.078129,263.953118 443.437491,263.25 445.265625,263.25 C446.109379,263.25 446.832028,263.398436 447.433594,263.695312 C448.035159,263.992189 448.499998,264.410154 448.828125,264.949219 C449.156252,265.488284 449.390624,266.066403 449.53125,266.683594 C449.671876,267.300784 449.742188,267.984371 449.742188,268.734375 L449.742188,277.78125 L445.992188,277.78125 L445.992188,268.804688 C445.992188,268.007809 445.875001,267.414064 445.640625,267.023438 C445.406249,266.632811 445.015628,266.4375 444.46875,266.4375 C443.749996,266.4375 443.183596,266.738278 442.769531,267.339844 C442.355467,267.941409 442.148438,268.656246 442.148438,269.484375 L442.148438,277.78125 L438.445312,277.78125 L438.445312,268.710938 C438.445312,268.007809 438.316408,267.453127 438.058594,267.046875 C437.80078,266.640623 437.421877,266.4375 436.921875,266.4375 C436.156246,266.4375 435.582033,266.714841 435.199219,267.269531 C434.816404,267.824222 434.625,268.562495 434.625,269.484375 L434.625,277.78125 L430.875,277.78125 Z" id="Aa-Bb-Cc-Dd-Ee-Ff-Gg"></path>
                            <path d="M4.81640625,327.263672 L8.4375,327.263672 L7.5234375,324.222656 C7.16015443,323.0039 6.87890725,322.025394 6.6796875,321.287109 L6.57421875,321.287109 C6.30468615,322.306646 6.02929828,323.285152 5.74804688,324.222656 L4.81640625,327.263672 Z M0,332.835938 L5.08007812,318.439453 L8.19140625,318.439453 L13.2714844,332.835938 L10.1953125,332.835938 L9.17578125,329.619141 L4.09570312,329.619141 L3.07617188,332.835938 L0,332.835938 Z M16.5761719,329.707031 C16.5761719,330.023439 16.6992175,330.290038 16.9453125,330.506836 C17.1914075,330.723634 17.5078106,330.832031 17.8945312,330.832031 C18.5156281,330.832031 19.0429666,330.621096 19.4765625,330.199219 C19.9101584,329.777342 20.1269531,329.214847 20.1269531,328.511719 L20.1269531,327.808594 C19.4472622,327.972657 18.9082051,328.083984 18.5097656,328.142578 C17.2206967,328.330079 16.5761719,328.851558 16.5761719,329.707031 Z M13.7285156,329.953125 C13.7285156,328.992183 14.0976526,328.195316 14.8359375,327.5625 C15.5742224,326.929684 16.658196,326.507814 18.0878906,326.296875 C19.2597715,326.109374 19.9394522,325.986328 20.1269531,325.927734 L20.1269531,325.382812 C20.1269531,324.949217 19.9775406,324.629884 19.6787109,324.424805 C19.3798813,324.219726 18.9902368,324.117188 18.5097656,324.117188 C17.4081976,324.117188 16.4589884,324.550777 15.6621094,325.417969 L14.0097656,323.994141 C15.1582089,322.62304 16.6464752,321.9375 18.4746094,321.9375 C20.091805,321.9375 21.240231,322.324215 21.9199219,323.097656 C22.5996128,323.871098 22.9394531,324.96679 22.9394531,326.384766 L22.9394531,332.835938 L20.2148438,332.835938 L20.2148438,331.746094 C20.0039052,332.144533 19.6523462,332.478514 19.1601562,332.748047 C18.6679663,333.017579 18.1054719,333.152344 17.4726562,333.152344 C16.324213,333.152344 15.4130893,332.856448 14.7392578,332.264648 C14.0654263,331.672849 13.7285156,330.902348 13.7285156,329.953125 Z M29.6542969,332.835938 L29.6542969,318.439453 L35.2265625,318.439453 C36.8437581,318.439453 38.0449179,318.782223 38.8300781,319.467773 C39.6152383,320.153324 40.0078125,321.099603 40.0078125,322.306641 C40.0078125,322.951175 39.8583999,323.522458 39.5595703,324.020508 C39.2607407,324.518557 38.8710962,324.908202 38.390625,325.189453 C38.9296902,325.41211 39.4160135,325.813474 39.8496094,326.393555 C40.2832053,326.973636 40.5,327.691402 40.5,328.546875 C40.5,329.800788 40.0957072,330.829098 39.2871094,331.631836 C38.4785116,332.434574 37.3593821,332.835938 35.9296875,332.835938 L29.6542969,332.835938 Z M32.5722656,330.339844 L35.5078125,330.339844 C36.0234401,330.339844 36.4775371,330.187502 36.8701172,329.882812 C37.2626973,329.578123 37.4589844,329.132815 37.4589844,328.546875 C37.4589844,328.00781 37.2861345,327.559572 36.9404297,327.202148 C36.5947248,326.844725 36.0937533,326.666016 35.4375,326.666016 L32.5722656,326.666016 L32.5722656,330.339844 Z M32.5722656,324.205078 L34.9980469,324.205078 C35.5957061,324.205078 36.0732404,324.064455 36.4306641,323.783203 C36.7880877,323.501952 36.9667969,323.08594 36.9667969,322.535156 C36.9667969,321.480463 36.3281314,320.953125 35.0507812,320.953125 L32.5722656,320.953125 L32.5722656,324.205078 Z M42.3808594,332.835938 L42.3808594,318 L45.1582031,318 L45.1582031,323.009766 C45.8496128,322.294918 46.6581985,321.9375 47.5839844,321.9375 C48.8730533,321.9375 49.9482379,322.432612 50.8095703,323.422852 C51.6709027,324.413091 52.1015625,325.781241 52.1015625,327.527344 C52.1015625,328.511724 51.9638686,329.381832 51.6884766,330.137695 C51.4130846,330.893558 51.0527366,331.48242 50.6074219,331.904297 C50.1621071,332.326174 49.6875025,332.639647 49.1835938,332.844727 C48.679685,333.049806 48.1640651,333.152344 47.6367188,333.152344 C47.0859347,333.152344 46.5761742,333.017579 46.1074219,332.748047 C45.6386695,332.478514 45.2988292,332.162111 45.0878906,331.798828 L45.0878906,332.835938 L42.3808594,332.835938 Z M45.140625,327.527344 C45.140625,328.535161 45.3193342,329.326169 45.6767578,329.900391 C46.0341815,330.474612 46.535153,330.761719 47.1796875,330.761719 C47.7773467,330.761719 48.26367,330.49219 48.6386719,329.953125 C49.0136738,329.41406 49.2011719,328.605474 49.2011719,327.527344 C49.2011719,326.531245 49.0253924,325.749026 48.6738281,325.180664 C48.3222639,324.612302 47.824222,324.328125 47.1796875,324.328125 C46.4999966,324.328125 45.9902361,324.621091 45.6503906,325.207031 C45.3105452,325.792972 45.140625,326.566401 45.140625,327.527344 Z M57.65625,325.628906 C57.65625,323.343739 58.2626892,321.521491 59.4755859,320.162109 C60.6884826,318.802728 62.2499904,318.123047 64.1601562,318.123047 C65.4375064,318.123047 66.5390579,318.471676 67.4648438,319.168945 C68.3906296,319.866214 69.0703103,320.742182 69.5039062,321.796875 L66.9902344,322.605469 C66.6621077,322.019528 66.2812522,321.544924 65.8476562,321.181641 C65.4140603,320.818358 64.8457066,320.636719 64.1425781,320.636719 C63.0761665,320.636719 62.2294953,321.090816 61.6025391,321.999023 C60.9755828,322.907231 60.6621094,324.11718 60.6621094,325.628906 C60.6621094,327.16407 60.9785125,328.385738 61.6113281,329.293945 C62.2441438,330.202153 63.0878854,330.65625 64.1425781,330.65625 C64.8457066,330.65625 65.4755832,330.427737 66.0322266,329.970703 C66.58887,329.51367 66.9843738,328.962894 67.21875,328.318359 L69.8554688,329.144531 C69.714843,329.496096 69.5449229,329.841795 69.3457031,330.181641 C69.1464834,330.521486 68.8798845,330.875975 68.5458984,331.245117 C68.2119124,331.61426 67.8427755,331.936522 67.4384766,332.211914 C67.0341777,332.487306 66.5478544,332.71289 65.9794922,332.888672 C65.41113,333.064454 64.8046907,333.152344 64.1601562,333.152344 C62.2851469,333.152344 60.732428,332.484382 59.5019531,331.148438 C58.2714782,329.812493 57.65625,327.972668 57.65625,325.628906 Z M70.7167969,327.544922 C70.7167969,325.810538 71.1855422,324.442388 72.1230469,323.44043 C73.0605516,322.438472 74.2558521,321.9375 75.7089844,321.9375 C76.83399,321.9375 77.7656213,322.2832 78.5039062,322.974609 C79.2421912,323.666019 79.6992179,324.439449 79.875,325.294922 L77.5019531,325.945312 C77.384765,325.511717 77.179689,325.133791 76.8867188,324.811523 C76.5937485,324.489256 76.2187523,324.328125 75.7617188,324.328125 C75.0585902,324.328125 74.5253924,324.632809 74.1621094,325.242188 C73.7988263,325.851566 73.6171875,326.619136 73.6171875,327.544922 C73.6171875,328.587896 73.8193339,329.384763 74.2236328,329.935547 C74.6279317,330.486331 75.1406219,330.761719 75.7617188,330.761719 C76.2773463,330.761719 76.7109357,330.585939 77.0625,330.234375 C77.4140643,329.882811 77.6425776,329.478518 77.7480469,329.021484 L80.1210938,329.654297 C79.921874,330.568364 79.4121135,331.379879 78.5917969,332.088867 C77.7714803,332.797855 76.8105524,333.152344 75.7089844,333.152344 C74.2324145,333.152344 73.0312546,332.642583 72.1054688,331.623047 C71.1796829,330.603511 70.7167969,329.244149 70.7167969,327.544922 Z M86.1855469,332.835938 L86.1855469,318.439453 L90.6855469,318.439453 C92.9238393,318.439453 94.6289004,319.06347 95.8007812,320.311523 C96.9726621,321.559577 97.5585938,323.33202 97.5585938,325.628906 C97.5585938,326.367191 97.4970709,327.058591 97.3740234,327.703125 C97.2509759,328.347659 97.0283219,328.992184 96.7060547,329.636719 C96.3837875,330.281253 95.9736353,330.832029 95.4755859,331.289062 C94.9775366,331.746096 94.3183635,332.118163 93.4980469,332.405273 C92.6777303,332.692384 91.7402396,332.835938 90.6855469,332.835938 L86.1855469,332.835938 Z M89.1035156,330.375 L90.4042969,330.375 C91.7753975,330.375 92.8007779,330.000004 93.4804688,329.25 C94.1601596,328.499996 94.5,327.292977 94.5,325.628906 C94.5,323.91796 94.148441,322.705082 93.4453125,321.990234 C92.742184,321.275387 91.7402409,320.917969 90.4394531,320.917969 L89.1035156,320.917969 L89.1035156,330.375 Z M98.71875,327.527344 C98.71875,325.781241 99.1435504,324.413091 99.9931641,323.422852 C100.842778,322.432612 101.93554,321.9375 103.271484,321.9375 C104.255864,321.9375 105.046872,322.300778 105.644531,323.027344 L105.644531,318 L108.439453,318 L108.439453,332.835938 L105.714844,332.835938 L105.714844,331.78125 C105.503905,332.144533 105.169924,332.463866 104.712891,332.739258 C104.255857,333.01465 103.769534,333.152344 103.253906,333.152344 C102.691403,333.152344 102.149417,333.046876 101.62793,332.835938 C101.106443,332.624999 100.623049,332.308596 100.177734,331.886719 C99.7324196,331.464842 99.377931,330.87891 99.1142578,330.128906 C98.8505846,329.378902 98.71875,328.511724 98.71875,327.527344 Z M101.601562,327.527344 C101.601562,328.570318 101.786131,329.370114 102.155273,329.926758 C102.524416,330.483401 103.025387,330.761719 103.658203,330.761719 C104.2793,330.761719 104.768553,330.474612 105.125977,329.900391 C105.4834,329.326169 105.662109,328.535161 105.662109,327.527344 C105.662109,326.566401 105.492189,325.792972 105.152344,325.207031 C104.812498,324.621091 104.314456,324.328125 103.658203,324.328125 C102.978512,324.328125 102.465822,324.618161 102.120117,325.198242 C101.774412,325.778323 101.601562,326.554683 101.601562,327.527344 Z M115.400391,332.835938 L115.400391,318.439453 L125.121094,318.439453 L125.121094,320.953125 L118.318359,320.953125 L118.318359,324.169922 L124.435547,324.169922 L124.435547,326.630859 L118.318359,326.630859 L118.318359,330.339844 L125.314453,330.339844 L125.314453,332.835938 L115.400391,332.835938 Z M126.316406,327.509766 C126.316406,325.787101 126.79687,324.427739 127.757812,323.431641 C128.718755,322.435542 129.908196,321.9375 131.326172,321.9375 C132.697272,321.9375 133.860347,322.45019 134.81543,323.475586 C135.770513,324.500982 136.248047,325.845695 136.248047,327.509766 C136.248047,327.849611 136.230469,328.189451 136.195312,328.529297 L129.164062,328.529297 C129.164062,329.197269 129.374998,329.762693 129.796875,330.225586 C130.218752,330.688479 130.787106,330.919922 131.501953,330.919922 C132.0293,330.919922 132.489256,330.788087 132.881836,330.524414 C133.274416,330.260741 133.570312,329.92383 133.769531,329.513672 L136.107422,330.339844 C135.755858,331.125004 135.181645,331.790036 134.384766,332.334961 C133.587887,332.879886 132.597662,333.152344 131.414062,333.152344 C129.925774,333.152344 128.704106,332.642583 127.749023,331.623047 C126.793941,330.603511 126.316406,329.23243 126.316406,327.509766 Z M129.181641,326.613281 L133.382812,326.613281 C133.382812,325.93359 133.204103,325.350588 132.84668,324.864258 C132.489256,324.377927 131.982425,324.134766 131.326172,324.134766 C130.6582,324.134766 130.133791,324.380857 129.75293,324.873047 C129.372068,325.365237 129.181641,325.945309 129.181641,326.613281 Z M142.523438,332.835938 L142.523438,318.439453 L151.962891,318.439453 L151.962891,320.953125 L145.441406,320.953125 L145.441406,324.398438 L151.277344,324.398438 L151.277344,326.876953 L145.441406,326.876953 L145.441406,332.835938 L142.523438,332.835938 Z M152.630859,324.626953 L152.630859,322.253906 L154.142578,322.253906 L154.142578,321.375 C154.142578,320.261713 154.417966,319.420901 154.96875,318.852539 C155.519534,318.284177 156.310542,318 157.341797,318 L159.205078,318 L159.205078,320.408203 L157.78125,320.408203 C157.48828,320.408203 157.277344,320.496093 157.148438,320.671875 C157.019531,320.847657 156.955078,321.140623 156.955078,321.550781 L156.955078,322.253906 L158.976562,322.253906 L158.976562,324.626953 L156.955078,324.626953 L156.955078,332.835938 L154.142578,332.835938 L154.142578,324.626953 L152.630859,324.626953 Z M164.162109,325.628906 C164.162109,323.437489 164.762689,321.638679 165.963867,320.232422 C167.165045,318.826165 168.773427,318.123047 170.789062,318.123047 C171.574223,318.123047 172.300778,318.254881 172.96875,318.518555 C173.636722,318.782228 174.184568,319.124998 174.612305,319.546875 C175.040041,319.968752 175.382811,320.361326 175.640625,320.724609 C175.898439,321.087892 176.097656,321.445311 176.238281,321.796875 L173.724609,322.587891 C173.537108,322.306639 173.378907,322.083985 173.25,321.919922 C173.121093,321.755859 172.933595,321.556642 172.6875,321.322266 C172.441405,321.087889 172.163087,320.91504 171.852539,320.803711 C171.541991,320.692382 171.193361,320.636719 170.806641,320.636719 C169.669916,320.636719 168.7793,321.087886 168.134766,321.990234 C167.490231,322.892583 167.167969,324.105461 167.167969,325.628906 C167.167969,327.152351 167.50195,328.371089 168.169922,329.285156 C168.837894,330.199223 169.681636,330.65625 170.701172,330.65625 C171.556645,330.65625 172.239255,330.433596 172.749023,329.988281 C173.258792,329.542967 173.566406,328.945316 173.671875,328.195312 C173.71875,327.890623 173.742188,327.533205 173.742188,327.123047 L170.542969,327.123047 L170.542969,324.626953 L176.572266,324.626953 L176.572266,332.835938 L174.585938,332.835938 L174.322266,331.746094 C173.537105,332.683598 172.29493,333.152344 170.595703,333.152344 C168.779288,333.152344 167.252936,332.469733 166.016602,331.104492 C164.780267,329.739251 164.162109,327.914074 164.162109,325.628906 Z M180.878906,327.333984 C180.878906,328.306645 181.054686,329.047849 181.40625,329.557617 C181.757814,330.067385 182.2207,330.322266 182.794922,330.322266 C183.369143,330.322266 183.82617,330.070315 184.166016,329.566406 C184.505861,329.062497 184.675781,328.318364 184.675781,327.333984 C184.675781,326.361323 184.502931,325.61719 184.157227,325.101562 C183.811522,324.585935 183.357425,324.328125 182.794922,324.328125 C182.208981,324.328125 181.743166,324.588865 181.397461,325.110352 C181.051756,325.631839 180.878906,326.373042 180.878906,327.333984 Z M177.996094,327.351562 C177.996094,325.687492 178.415035,324.369145 179.25293,323.396484 C180.090825,322.423823 181.148431,321.9375 182.425781,321.9375 C182.976565,321.9375 183.445311,322.066405 183.832031,322.324219 C184.218752,322.582033 184.499999,322.86328 184.675781,323.167969 L184.675781,322.253906 L187.488281,322.253906 L187.488281,331.236328 C187.488281,333.228526 187.081059,334.696284 186.266602,335.639648 C185.452144,336.583013 184.218758,337.054688 182.566406,337.054688 C180.726553,337.054688 179.308599,336.35157 178.3125,334.945312 L180.140625,333.644531 C180.785159,334.429691 181.611323,334.822266 182.619141,334.822266 C183.146487,334.822266 183.606443,334.628908 183.999023,334.242188 C184.391604,333.855467 184.611328,333.357425 184.658203,332.748047 C184.69336,332.32617 184.710938,331.986329 184.710938,331.728516 C184.499999,332.009767 184.180666,332.24414 183.75293,332.431641 C183.325193,332.619142 182.912111,332.712891 182.513672,332.712891 C181.177728,332.712891 180.090825,332.226567 179.25293,331.253906 C178.415035,330.281245 177.996094,328.980477 177.996094,327.351562 Z M194.273438,332.835938 L194.273438,318.439453 L197.173828,318.439453 L197.173828,324.205078 L202.21875,324.205078 L202.21875,318.439453 L205.136719,318.439453 L205.136719,332.835938 L202.21875,332.835938 L202.21875,326.683594 L197.173828,326.683594 L197.173828,332.835938 L194.273438,332.835938 Z M207.685547,332.835938 L207.685547,318 L210.462891,318 L210.462891,322.939453 L210.515625,322.939453 C211.148441,322.271481 211.957026,321.9375 212.941406,321.9375 C213.39844,321.9375 213.8291,322.007812 214.233398,322.148438 C214.637697,322.289063 215.018553,322.508788 215.375977,322.807617 C215.7334,323.106447 216.017577,323.534177 216.228516,324.09082 C216.439454,324.647464 216.544922,325.300777 216.544922,326.050781 L216.544922,332.835938 L213.732422,332.835938 L213.732422,326.367188 C213.732422,325.007806 213.298832,324.328125 212.431641,324.328125 C211.857419,324.328125 211.385744,324.583005 211.016602,325.092773 C210.647459,325.602542 210.462891,326.203122 210.462891,326.894531 L210.462891,332.835938 L207.685547,332.835938 Z M223.277344,332.835938 L223.277344,318.439453 L226.195312,318.439453 L226.195312,332.835938 L223.277344,332.835938 Z M228.761719,321.128906 L228.761719,318.246094 L231.591797,318.246094 L231.591797,321.128906 L228.761719,321.128906 Z M228.796875,332.835938 L228.796875,322.253906 L231.574219,322.253906 L231.574219,332.835938 L228.796875,332.835938 Z M237.304688,329.935547 L239.660156,328.96875 C239.765626,329.402346 239.979491,329.79199 240.301758,330.137695 C240.624025,330.4834 241.019529,330.65625 241.488281,330.65625 C242.57813,330.65625 243.123047,329.865242 243.123047,328.283203 L243.123047,318.439453 L246.058594,318.439453 L246.058594,328.634766 C246.058594,330.052741 245.66309,331.160152 244.87207,331.957031 C244.081051,332.75391 242.97071,333.152344 241.541016,333.152344 C240.380854,333.152344 239.443363,332.830081 238.728516,332.185547 C238.013668,331.541012 237.539064,330.79102 237.304688,329.935547 Z M248.730469,321.128906 L248.730469,318.246094 L251.613281,318.246094 L251.613281,321.128906 L248.730469,321.128906 Z M247.201172,334.400391 L247.517578,334.400391 C247.939455,334.400391 248.252929,334.256837 248.458008,333.969727 C248.663087,333.682616 248.765625,333.2168 248.765625,332.572266 L248.765625,322.253906 L251.578125,322.253906 L251.578125,332.677734 C251.578125,334.048835 251.267581,335.083004 250.646484,335.780273 C250.025388,336.477543 249.128912,336.826172 247.957031,336.826172 L247.201172,336.826172 L247.201172,334.400391 Z M258.556641,332.835938 L258.556641,318.439453 L261.474609,318.439453 L261.474609,324.275391 L261.527344,324.275391 L266.537109,318.439453 L270.193359,318.439453 L264.550781,324.767578 L270.228516,332.835938 L266.748047,332.835938 L262.722656,326.824219 L261.474609,328.230469 L261.474609,332.835938 L258.556641,332.835938 Z M271.283203,332.835938 L271.283203,318 L274.060547,318 L274.060547,325.804688 L277.3125,322.253906 L280.775391,322.253906 L276.802734,326.595703 L280.916016,332.835938 L277.664062,332.835938 L274.992188,328.564453 L274.060547,329.583984 L274.060547,332.835938 L271.283203,332.835938 Z M286.435547,332.835938 L286.435547,318.439453 L289.353516,318.439453 L289.353516,330.339844 L295.681641,330.339844 L295.681641,332.835938 L286.435547,332.835938 Z M297.140625,332.835938 L297.140625,318 L299.953125,318 L299.953125,332.835938 L297.140625,332.835938 Z M306.984375,332.835938 L306.984375,318.439453 L310.5,318.439453 L312.626953,324.503906 C312.791016,324.984377 313.001952,325.64941 313.259766,326.499023 C313.517579,327.348637 313.693359,327.91992 313.787109,328.212891 L313.857422,328.212891 C314.490238,326.279287 314.90039,325.042971 315.087891,324.503906 L317.162109,318.439453 L320.695312,318.439453 L320.695312,332.835938 L317.794922,332.835938 L317.794922,327.28125 C317.794922,326.367183 317.90039,324.867198 318.111328,322.78125 L318.023438,322.78125 L316.792969,326.542969 L314.859375,332.167969 L312.820312,332.167969 L310.904297,326.542969 L309.65625,322.746094 L309.550781,322.746094 C309.76172,324.468759 309.867188,325.980462 309.867188,327.28125 L309.867188,332.835938 L306.984375,332.835938 Z M323.15625,332.835938 L323.15625,322.253906 L325.845703,322.253906 L325.845703,323.255859 L325.863281,323.255859 C325.980469,323.091796 326.129882,322.924806 326.311523,322.754883 C326.493165,322.58496 326.783201,322.406251 327.181641,322.21875 C327.58008,322.031249 327.990232,321.9375 328.412109,321.9375 C329.513677,321.9375 330.339841,322.464838 330.890625,323.519531 C331.558597,322.464838 332.578118,321.9375 333.949219,321.9375 C334.582034,321.9375 335.124021,322.048827 335.575195,322.271484 C336.026369,322.494142 336.374999,322.807615 336.621094,323.211914 C336.867189,323.616213 337.042968,324.049802 337.148438,324.512695 C337.253907,324.975588 337.306641,325.488278 337.306641,326.050781 L337.306641,332.835938 L334.494141,332.835938 L334.494141,326.103516 C334.494141,325.505856 334.406251,325.060548 334.230469,324.767578 C334.054687,324.474608 333.761721,324.328125 333.351562,324.328125 C332.812497,324.328125 332.387697,324.553709 332.077148,325.004883 C331.7666,325.456057 331.611328,325.992184 331.611328,326.613281 L331.611328,332.835938 L328.833984,332.835938 L328.833984,326.033203 C328.833984,325.505857 328.737306,325.089845 328.543945,324.785156 C328.350585,324.480467 328.066408,324.328125 327.691406,324.328125 C327.117185,324.328125 326.686525,324.536131 326.399414,324.952148 C326.112303,325.368166 325.96875,325.921872 325.96875,326.613281 L325.96875,332.835938 L323.15625,332.835938 Z M344.021484,332.835938 L344.021484,318.439453 L346.992188,318.439453 L350.771484,325.576172 L352.265625,328.423828 L352.335938,328.423828 C352.148437,327.134759 352.054688,325.734383 352.054688,324.222656 L352.054688,318.439453 L354.972656,318.439453 L354.972656,332.835938 L352.019531,332.835938 L348.257812,325.962891 L346.710938,322.921875 L346.623047,322.921875 C346.833985,324.363288 346.939453,325.769524 346.939453,327.140625 L346.939453,332.835938 L344.021484,332.835938 Z M357.433594,332.835938 L357.433594,322.253906 L360.123047,322.253906 L360.123047,323.291016 L360.140625,323.291016 C360.714847,322.388667 361.611322,321.9375 362.830078,321.9375 C365.162121,321.9375 366.328125,323.30858 366.328125,326.050781 L366.328125,332.835938 L363.533203,332.835938 L363.533203,326.384766 C363.533203,325.634762 363.427735,325.104494 363.216797,324.793945 C363.005858,324.483397 362.671877,324.328125 362.214844,324.328125 C361.628903,324.328125 361.154299,324.565427 360.791016,325.040039 C360.427733,325.514651 360.246094,326.109371 360.246094,326.824219 L360.246094,332.835938 L357.433594,332.835938 Z M372.304688,325.646484 C372.304688,323.384754 372.88183,321.565437 374.036133,320.188477 C375.190435,318.811517 376.710928,318.123047 378.597656,318.123047 C380.484384,318.123047 382.004877,318.811517 383.15918,320.188477 C384.313482,321.565437 384.890625,323.384754 384.890625,325.646484 C384.890625,327.908214 384.313482,329.724603 383.15918,331.095703 C382.004877,332.466804 380.484384,333.152344 378.597656,333.152344 C376.699209,333.152344 375.175787,332.466804 374.027344,331.095703 C372.878901,329.724603 372.304688,327.908214 372.304688,325.646484 Z M375.328125,325.646484 C375.328125,327.205086 375.615232,328.429683 376.189453,329.320312 C376.763675,330.210942 377.566401,330.65625 378.597656,330.65625 C379.628911,330.65625 380.431638,330.208012 381.005859,329.311523 C381.580081,328.415035 381.867188,327.193367 381.867188,325.646484 C381.867188,324.11132 381.580081,322.892583 381.005859,321.990234 C380.431638,321.087886 379.628911,320.636719 378.597656,320.636719 C377.566401,320.636719 376.763675,321.087886 376.189453,321.990234 C375.615232,322.892583 375.328125,324.11132 375.328125,325.646484 Z M388.951172,327.544922 C388.951172,328.705084 389.167967,329.531248 389.601562,330.023438 C390.035158,330.515627 390.515622,330.761719 391.042969,330.761719 C391.265626,330.761719 391.48535,330.711915 391.702148,330.612305 C391.918946,330.512695 392.138671,330.354493 392.361328,330.137695 C392.583985,329.920897 392.765624,329.586916 392.90625,329.135742 C393.046876,328.684568 393.117188,328.1543 393.117188,327.544922 C393.117188,326.923825 393.049805,326.390627 392.915039,325.945312 C392.780273,325.499998 392.598634,325.166017 392.370117,324.943359 C392.1416,324.720702 391.918946,324.5625 391.702148,324.46875 C391.48535,324.375 391.265626,324.328125 391.042969,324.328125 C390.515622,324.328125 390.035158,324.571287 389.601562,325.057617 C389.167967,325.543948 388.951172,326.373041 388.951172,327.544922 Z M386.068359,327.544922 C386.068359,326.818356 386.162108,326.129886 386.349609,325.479492 C386.53711,324.829098 386.821287,324.234378 387.202148,323.695312 C387.58301,323.156247 388.104489,322.728517 388.766602,322.412109 C389.428714,322.095702 390.187496,321.9375 391.042969,321.9375 C391.898442,321.9375 392.654294,322.095702 393.310547,322.412109 C393.9668,322.728517 394.48535,323.156247 394.866211,323.695312 C395.247072,324.234378 395.531249,324.829098 395.71875,325.479492 C395.906251,326.129886 396,326.818356 396,327.544922 C396,328.013674 395.958985,328.47949 395.876953,328.942383 C395.794921,329.405276 395.63965,329.897458 395.411133,330.418945 C395.182616,330.940432 394.89258,331.397459 394.541016,331.790039 C394.189451,332.182619 393.711917,332.507811 393.108398,332.765625 C392.50488,333.023439 391.81641,333.152344 391.042969,333.152344 C390.281246,333.152344 389.601565,333.029298 389.003906,332.783203 C388.406247,332.537108 387.925783,332.223635 387.5625,331.842773 C387.199217,331.461912 386.903321,331.016604 386.674805,330.506836 C386.446288,329.997068 386.288086,329.501956 386.200195,329.021484 C386.112304,328.541013 386.068359,328.048831 386.068359,327.544922 Z M402.310547,332.835938 L402.310547,318.439453 L408.058594,318.439453 C409.628914,318.439453 410.847652,318.852535 411.714844,319.678711 C412.582036,320.504887 413.015625,321.597649 413.015625,322.957031 C413.015625,324.351569 412.567387,325.456051 411.670898,326.270508 C410.77441,327.084965 409.593757,327.492188 408.128906,327.492188 L405.228516,327.492188 L405.228516,332.835938 L402.310547,332.835938 Z M405.228516,324.978516 L407.724609,324.978516 C408.439457,324.978516 408.996092,324.802736 409.394531,324.451172 C409.792971,324.099608 409.992188,323.601566 409.992188,322.957031 C409.992188,321.621087 409.242195,320.953125 407.742188,320.953125 L405.228516,320.953125 L405.228516,324.978516 Z M417.498047,327.527344 C417.498047,328.523442 417.676756,329.311521 418.03418,329.891602 C418.391603,330.471683 418.892575,330.761719 419.537109,330.761719 C420.158206,330.761719 420.653318,330.483401 421.022461,329.926758 C421.391603,329.370114 421.576172,328.570318 421.576172,327.527344 C421.576172,326.519526 421.397463,325.734378 421.040039,325.171875 C420.682615,324.609372 420.181644,324.328125 419.537109,324.328125 C418.869137,324.328125 418.362306,324.621091 418.016602,325.207031 C417.670897,325.792972 417.498047,326.566401 417.498047,327.527344 Z M414.738281,336.984375 L414.738281,322.253906 L417.427734,322.253906 L417.427734,323.291016 C418.072269,322.388667 418.910151,321.9375 419.941406,321.9375 C421.242194,321.9375 422.320308,322.435542 423.175781,323.431641 C424.031254,324.427739 424.458984,325.79296 424.458984,327.527344 C424.458984,328.511724 424.318361,329.381832 424.037109,330.137695 C423.755858,330.893558 423.386721,331.48242 422.929688,331.904297 C422.472654,332.326174 421.99219,332.639647 421.488281,332.844727 C420.984372,333.049806 420.468753,333.152344 419.941406,333.152344 C419.320309,333.152344 418.810549,333.029298 418.412109,332.783203 C418.01367,332.537108 417.720704,332.26172 417.533203,331.957031 L417.533203,336.984375 L414.738281,336.984375 Z" id="Aa-Bb-Cc-Dd-Ee-Ff-Gg"></path>
                        </g>
                    </g>
                </g>
            </g>
        </g>
    </g>
</svg>