<svg width="90" height="90" viewBox="0 0 90 90" fill="none" xmlns="http://www.w3.org/2000/svg">
<rect width="90" height="90" fill="white"/>
<path d="M18.0389 29.3123V41.3658H20.6883V36.3857H25.7339V34.3261H20.6883V31.5406H26.5102V29.3123H18.0389Z" fill="black"/>
<path d="M29.9151 37.0103C29.9151 36.6614 29.9488 36.3182 30.0163 35.9805C30.0838 35.6429 30.1963 35.3447 30.3538 35.0858C30.5226 34.827 30.742 34.6187 31.012 34.4612C31.282 34.2924 31.6195 34.208 32.0245 34.208C32.4295 34.208 32.767 34.2924 33.037 34.4612C33.3182 34.6187 33.5376 34.827 33.6951 35.0858C33.8638 35.3447 33.982 35.6429 34.0495 35.9805C34.117 36.3182 34.1507 36.6614 34.1507 37.0103C34.1507 37.3592 34.117 37.7025 34.0495 38.0401C33.982 38.3665 33.8638 38.6647 33.6951 38.9348C33.5376 39.1937 33.3182 39.4019 33.037 39.5595C32.767 39.717 32.4295 39.7958 32.0245 39.7958C31.6195 39.7958 31.282 39.717 31.012 39.5595C30.742 39.4019 30.5226 39.1937 30.3538 38.9348C30.1963 38.6647 30.0838 38.3665 30.0163 38.0401C29.9488 37.7025 29.9151 37.3592 29.9151 37.0103ZM27.5188 37.0103C27.5188 37.7081 27.6257 38.3384 27.8395 38.9011C28.0532 39.4638 28.357 39.9477 28.7507 40.3529C29.1445 40.7468 29.617 41.0507 30.1682 41.2645C30.7195 41.4784 31.3382 41.5853 32.0245 41.5853C32.7107 41.5853 33.3295 41.4784 33.8807 41.2645C34.4432 41.0507 34.9213 40.7468 35.3151 40.3529C35.7088 39.9477 36.0126 39.4638 36.2263 38.9011C36.4401 38.3384 36.547 37.7081 36.547 37.0103C36.547 36.3125 36.4401 35.6823 36.2263 35.1196C36.0126 34.5456 35.7088 34.0616 35.3151 33.6677C34.9213 33.2626 34.4432 32.9531 33.8807 32.7392C33.3295 32.5142 32.7107 32.4016 32.0245 32.4016C31.3382 32.4016 30.7195 32.5142 30.1682 32.7392C29.617 32.9531 29.1445 33.2626 28.7507 33.6677C28.357 34.0616 28.0532 34.5456 27.8395 35.1196C27.6257 35.6823 27.5188 36.3125 27.5188 37.0103Z" fill="black"/>
<path d="M38.105 32.638V41.3658H40.5012V37.4324C40.5012 37.0385 40.5406 36.6727 40.6194 36.3351C40.6981 35.9974 40.8275 35.7048 41.0075 35.4572C41.1987 35.1984 41.4462 34.9958 41.75 34.8495C42.0537 34.7032 42.425 34.63 42.8637 34.63C43.01 34.63 43.1619 34.6413 43.3194 34.6638C43.4769 34.675 43.6119 34.6919 43.7244 34.7144V32.486C43.5331 32.4297 43.3587 32.4016 43.2012 32.4016C42.8975 32.4016 42.605 32.4466 42.3237 32.5367C42.0425 32.6267 41.7781 32.7561 41.5306 32.9249C41.2831 33.0825 41.0637 33.2795 40.8725 33.5158C40.6812 33.7409 40.5294 33.9885 40.4169 34.2586H40.3831V32.638H38.105Z" fill="black"/>
<path d="M50.3072 35.7104H52.6528C52.6191 35.1477 52.4841 34.6638 52.2478 34.2586C52.0116 33.8422 51.7022 33.4989 51.3197 33.2288C50.9484 32.9475 50.5209 32.7392 50.0372 32.6042C49.5647 32.4691 49.0697 32.4016 48.5522 32.4016C47.8434 32.4016 47.2134 32.5198 46.6622 32.7561C46.1109 32.9925 45.6441 33.3245 45.2616 33.7522C44.8791 34.1686 44.5866 34.6694 44.3841 35.2546C44.1928 35.8286 44.0972 36.4532 44.0972 37.1285C44.0972 37.7813 44.2041 38.3834 44.4178 38.9348C44.6316 39.4751 44.9297 39.9421 45.3122 40.336C45.6947 40.7299 46.1559 41.0394 46.6959 41.2645C47.2472 41.4784 47.8491 41.5853 48.5016 41.5853C49.6603 41.5853 50.6109 41.2814 51.3534 40.6737C52.0959 40.0659 52.546 39.1824 52.7035 38.0232H50.3916C50.3128 38.5634 50.1159 38.9967 49.8009 39.3231C49.4972 39.6382 49.0584 39.7958 48.4847 39.7958C48.1134 39.7958 47.7984 39.7114 47.5397 39.5426C47.2809 39.3738 47.0728 39.1599 46.9153 38.9011C46.7691 38.631 46.6622 38.3327 46.5947 38.0063C46.5272 37.68 46.4934 37.3592 46.4934 37.0441C46.4934 36.7177 46.5272 36.3913 46.5947 36.0649C46.6622 35.7273 46.7747 35.4234 46.9322 35.1533C47.1009 34.872 47.3147 34.6469 47.5735 34.4781C47.8322 34.298 48.1528 34.208 48.5353 34.208C49.5591 34.208 50.1497 34.7088 50.3072 35.7104Z" fill="black"/>
<path d="M59.9296 36.0649H56.0315C56.0428 35.8961 56.0765 35.7048 56.1328 35.491C56.2003 35.2771 56.3071 35.0746 56.4534 34.8832C56.6109 34.6919 56.8134 34.5343 57.0609 34.4105C57.3196 34.2755 57.6403 34.208 58.0228 34.208C58.6078 34.208 59.0409 34.3655 59.3221 34.6806C59.6146 34.9958 59.8171 35.4572 59.9296 36.0649ZM56.0315 37.5843H62.3259C62.3709 36.909 62.3146 36.2619 62.1571 35.6429C61.9996 35.0239 61.7409 34.4724 61.3809 33.9885C61.0321 33.5046 60.5821 33.1219 60.0309 32.8405C59.4796 32.5479 58.8328 32.4016 58.0903 32.4016C57.4265 32.4016 56.819 32.5198 56.2678 32.7561C55.7278 32.9925 55.2609 33.3189 54.8671 33.7353C54.4734 34.1404 54.1696 34.6244 53.9559 35.1871C53.7421 35.7498 53.6353 36.3576 53.6353 37.0103C53.6353 37.6856 53.7365 38.3046 53.939 38.8673C54.1528 39.43 54.4509 39.914 54.8334 40.3191C55.2159 40.7243 55.6828 41.0394 56.234 41.2645C56.7853 41.4784 57.404 41.5853 58.0903 41.5853C59.0803 41.5853 59.924 41.3602 60.6215 40.91C61.319 40.4598 61.8365 39.7114 62.174 38.6647H60.0646C59.9859 38.9348 59.7721 39.1937 59.4234 39.4413C59.0746 39.6776 58.6584 39.7958 58.1746 39.7958C57.4996 39.7958 56.9821 39.6214 56.6221 39.2725C56.2621 38.9236 56.0653 38.3609 56.0315 37.5843Z" fill="black"/>
<path d="M65.6033 38.5297H63.3252C63.3477 39.1149 63.4771 39.6045 63.7133 39.9984C63.9608 40.381 64.2702 40.6905 64.6415 40.9269C65.024 41.1632 65.4571 41.332 65.9408 41.4333C66.4246 41.5346 66.9196 41.5853 67.4258 41.5853C67.9208 41.5853 68.4046 41.5346 68.8771 41.4333C69.3608 41.3433 69.7883 41.1801 70.1596 40.9438C70.5308 40.7074 70.829 40.3979 71.054 40.0153C71.2902 39.6214 71.4083 39.1374 71.4083 38.5634C71.4083 38.1583 71.3296 37.8206 71.1721 37.5505C71.0146 37.2692 70.8065 37.0385 70.5477 36.8584C70.289 36.6671 69.9908 36.5151 69.6533 36.4026C69.3271 36.29 68.9896 36.1944 68.6408 36.1156C68.3033 36.0368 67.9715 35.9637 67.6452 35.8961C67.319 35.8286 67.0265 35.7555 66.7677 35.6767C66.5202 35.5866 66.3177 35.4741 66.1602 35.339C66.0027 35.204 65.924 35.0295 65.924 34.8157C65.924 34.6356 65.969 34.4949 66.059 34.3937C66.149 34.2811 66.2558 34.1967 66.3796 34.1404C66.5146 34.0842 66.6608 34.0504 66.8183 34.0391C66.9758 34.0166 67.1221 34.0054 67.2571 34.0054C67.6846 34.0054 68.0558 34.0898 68.3708 34.2586C68.6858 34.4162 68.8602 34.7257 68.894 35.1871H71.1721C71.1271 34.6469 70.9865 34.2023 70.7502 33.8534C70.5252 33.4933 70.2383 33.2063 69.8896 32.9925C69.5408 32.7786 69.1415 32.6267 68.6915 32.5367C68.2527 32.4466 67.7971 32.4016 67.3246 32.4016C66.8521 32.4016 66.3908 32.4466 65.9408 32.5367C65.4908 32.6154 65.0858 32.7618 64.7258 32.9756C64.3658 33.1782 64.0733 33.4595 63.8483 33.8197C63.6346 34.1798 63.5277 34.6413 63.5277 35.204C63.5277 35.5866 63.6065 35.913 63.764 36.1831C63.9215 36.442 64.1296 36.6614 64.3883 36.8415C64.6471 37.0103 64.9396 37.151 65.2658 37.2636C65.6033 37.3648 65.9465 37.4549 66.2952 37.5337C67.1502 37.7137 67.814 37.8938 68.2865 38.0739C68.7702 38.2539 69.0121 38.5241 69.0121 38.8842C69.0121 39.098 68.9615 39.2781 68.8602 39.4244C68.759 39.5595 68.6296 39.672 68.4721 39.762C68.3258 39.8408 68.1571 39.9027 67.9658 39.9477C67.7858 39.9815 67.6115 39.9984 67.4427 39.9984C67.2065 39.9984 66.9758 39.9703 66.7508 39.914C66.5371 39.8577 66.3458 39.7733 66.1771 39.6608C66.0083 39.537 65.8677 39.385 65.7552 39.205C65.654 39.0136 65.6033 38.7885 65.6033 38.5297Z" fill="black"/>
<path d="M28.2652 55.5652V48.0697H25.6158V55.5652C25.6158 56.4656 25.4358 57.1296 25.0758 57.5573C24.7158 57.9737 24.0633 58.1819 23.1183 58.1819C22.5783 58.1819 22.1452 58.1087 21.8189 57.9624C21.5039 57.8049 21.2564 57.6079 21.0764 57.3716C20.8964 57.124 20.7783 56.8426 20.722 56.5275C20.6658 56.2124 20.6377 55.8916 20.6377 55.5652V48.0697H17.9883V55.5652C17.9883 57.2084 18.4327 58.4239 19.3214 59.2117C20.2214 59.9995 21.487 60.3934 23.1183 60.3934C24.727 60.3934 25.987 59.9995 26.8983 59.2117C27.8095 58.4126 28.2652 57.1971 28.2652 55.5652Z" fill="black"/>
<path d="M30.2937 51.3954V60.1233H32.69V55.5483C32.69 54.6592 32.8362 54.0234 33.1287 53.6407C33.4212 53.2468 33.8937 53.0498 34.5462 53.0498C35.12 53.0498 35.5193 53.2299 35.7443 53.5901C35.9693 53.939 36.0818 54.4735 36.0818 55.1938V60.1233H38.4781V54.7549C38.4781 54.2147 38.4275 53.7251 38.3262 53.2862C38.2362 52.836 38.0731 52.459 37.8368 52.1551C37.6006 51.84 37.2743 51.598 36.8581 51.4292C36.4531 51.2491 35.93 51.1591 35.2887 51.1591C34.7825 51.1591 34.2875 51.2773 33.8037 51.5136C33.32 51.7387 32.9262 52.1045 32.6225 52.6109H32.5718V51.3954H30.2937Z" fill="black"/>
<path d="M42.7605 50.0449V48.0697H40.3643V50.0449H42.7605ZM40.3643 51.3954V60.1233H42.7605V51.3954H40.3643Z" fill="black"/>
<path d="M47.6849 51.3954V48.7788H45.2886V51.3954H43.8374V52.9992H45.2886V58.1481C45.2886 58.5871 45.3617 58.9416 45.508 59.2117C45.6542 59.4818 45.8511 59.69 46.0986 59.8363C46.3574 59.9826 46.6499 60.0783 46.9761 60.1233C47.3136 60.1796 47.668 60.2077 48.0392 60.2077C48.2755 60.2077 48.5173 60.2021 48.7648 60.1908C49.0123 60.1796 49.2373 60.1571 49.4398 60.1233V58.2663C49.3273 58.2888 49.2092 58.3057 49.0855 58.3169C48.9617 58.3282 48.8323 58.3338 48.6973 58.3338C48.2923 58.3338 48.0224 58.2663 47.8874 58.1312C47.7524 57.9962 47.6849 57.7261 47.6849 57.3209V52.9992H49.4398V51.3954H47.6849Z" fill="black"/>
<path d="M56.4525 54.8224H52.5543C52.5656 54.6536 52.5993 54.4623 52.6556 54.2484C52.7231 54.0346 52.83 53.832 52.9762 53.6407C53.1337 53.4494 53.3362 53.2918 53.5837 53.168C53.8425 53.033 54.1631 52.9654 54.5456 52.9654C55.1306 52.9654 55.5637 53.123 55.845 53.4381C56.1375 53.7533 56.34 54.2147 56.4525 54.8224ZM52.5543 56.3418H58.8487C58.8937 55.6665 58.8375 55.0194 58.68 54.4004C58.5225 53.7814 58.2637 53.2299 57.9037 52.746C57.555 52.262 57.105 51.8794 56.5537 51.598C56.0025 51.3054 55.3556 51.1591 54.6131 51.1591C53.9493 51.1591 53.3418 51.2773 52.7906 51.5136C52.2506 51.75 51.7837 52.0763 51.39 52.4927C50.9962 52.8979 50.6925 53.3819 50.4787 53.9446C50.265 54.5073 50.1581 55.115 50.1581 55.7678C50.1581 56.4431 50.2593 57.0621 50.4618 57.6248C50.6756 58.1875 50.9737 58.6715 51.3562 59.0766C51.7387 59.4818 52.2056 59.7969 52.7568 60.022C53.3081 60.2358 53.9268 60.3428 54.6131 60.3428C55.6031 60.3428 56.4468 60.1177 57.1443 59.6675C57.8418 59.2173 58.3593 58.4689 58.6968 57.4222H56.5875C56.5087 57.6923 56.295 57.9512 55.9462 58.1988C55.5975 58.4351 55.1812 58.5533 54.6975 58.5533C54.0225 58.5533 53.505 58.3788 53.145 58.03C52.785 57.6811 52.5881 57.1183 52.5543 56.3418Z" fill="black"/>
</svg>
