<?xml version="1.0" encoding="UTF-8"?>
<svg width="120px" height="16px" viewBox="0 0 120 16" version="1.1" xmlns="http://www.w3.org/2000/svg" xmlns:xlink="http://www.w3.org/1999/xlink">
    <!-- Generator: Sketch 51.3 (57544) - http://www.bohemiancoding.com/sketch -->
    <title>logo-myfdtps</title>
    <desc>Created with Sketch.</desc>
    <defs></defs>
    <g id="UI---Partner-Solutions" stroke="none" stroke-width="1" fill="none" fill-rule="evenodd">
        <g id="Skeleton" transform="translate(-282.000000, -2300.000000)" fill="#12161C" fill-rule="nonzero">
            <g id="logo-myfdtps" transform="translate(282.000000, 2300.000000)">
                <path d="M3.11371834,11.717936 C3.06161878,11.7154725 3.01166148,11.7084387 2.95990469,11.7052253 C2.67601355,11.6854809 2.3982064,11.65831 2.12545497,11.6251052 C2.02296967,11.6123945 1.92339783,11.5975772 1.82194081,11.5830813 C1.59383389,11.5499478 1.36992578,11.5121728 1.15004511,11.4695063 C1.05749986,11.4511186 0.96435477,11.4341592 0.873351935,11.4147718 C0.574122275,11.348362 0.281319368,11.275704 0,11.1899782 C0.523393764,11.2040457 1.04610308,11.2040457 1.56667014,11.1941913 C1.73702197,11.1906566 1.90583137,11.1790527 2.07618319,11.1736971 C2.42502739,11.1606651 2.77455711,11.1486328 3.1226301,11.1264248 C3.3276007,11.1126429 3.5314502,11.0921487 3.7360709,11.0756177 C4.04741142,11.0497679 4.35982307,11.0240251 4.6704495,10.9909274 C4.88860209,10.9676125 5.10746877,10.9386564 5.32494298,10.9114498 C5.62125203,10.8744246 5.9175968,10.8370066 6.21322747,10.7939831 C6.43927069,10.7607782 6.66420708,10.7233245 6.8894648,10.6869776 C7.17620513,10.6400623 7.46283836,10.5920402 7.74922165,10.5398406 C7.98058479,10.4971741 8.21159089,10.4526867 8.44295403,10.4064498 C8.72248212,10.3517153 9.00140323,10.2941958 9.28057428,10.2338201 C9.5169003,10.1829773 9.75401182,10.130385 9.99069488,10.0760789 C10.2631892,10.0132396 10.5359335,9.94829366 10.8083565,9.88195528 C11.0497168,9.82232928 11.2914699,9.76270329 11.5331158,9.70050659 C11.7983979,9.63206166 12.0643941,9.56040336 12.3301047,9.48842371 C12.5786058,9.4209785 12.827107,9.35399745 13.0755367,9.28408864 C13.3304646,9.21168055 13.5861423,9.13688028 13.8403919,9.06208 C14.1009967,8.98553022 14.3623514,8.9103015 14.622992,8.83125243 C14.8543551,8.76062954 15.0860753,8.68761448 15.3192236,8.61559913 C15.6041431,8.52701704 15.8894195,8.43839924 16.1758028,8.34699652 C16.3428984,8.29340454 16.5121363,8.23656347 16.6805886,8.18250733 C19.6291119,7.22288586 22.6132679,6.13655023 25.6806147,5.07349373 C25.7041795,5.06546029 25.7266374,5.05799811 25.7498452,5.04985756 L25.7505235,5.04985756 C33.2709681,2.44382672 41.2986264,0 50.5760026,0 C56.3790043,0 61.9581408,0.775137925 69.2525064,6.05050314 C69.2578621,6.05396644 69.2642888,6.05853658 69.2696444,6.06353517 C69.7909256,6.44046428 70.3197046,6.83856598 70.8591949,7.26312448 C84.5710313,6.6631513 112.739494,7.25362717 119.507579,15.6482531 C108.054747,8.57257558 85.0940977,9.91158975 69.4031781,10.6626631 C69.0893383,10.4159471 68.7812111,10.179871 68.4737981,9.94829366 C68.3831094,9.88052711 68.2934919,9.81418873 68.2031603,9.74710056 C67.9675127,9.57168588 67.7318651,9.39980592 67.4976456,9.23395996 C67.4237379,9.17990382 67.347688,9.12495508 67.2730662,9.07125598 C66.9756503,8.86160099 66.6800197,8.65905113 66.3886735,8.46346358 C66.3294045,8.42358201 66.2704926,8.38580697 66.2115807,8.34631814 C65.9684352,8.18539937 65.7263608,8.0279439 65.4860716,7.87655814 C65.4114499,7.82885734 65.3375422,7.78229908 65.2636345,7.7364549 C64.6691598,7.36655951 64.0857534,7.02415635 63.51163,6.71042365 C63.4716413,6.68889402 63.4334378,6.66882827 63.3938062,6.6469059 C63.1156706,6.49655556 62.8403913,6.35256057 62.5679683,6.21456388 C62.5547578,6.20820854 62.5422613,6.20153185 62.5294078,6.19549785 C62.2287785,6.04446913 61.9306486,5.9001171 61.6350179,5.76419125 C61.6350179,5.76419125 61.6371601,5.76419125 61.6378742,5.76419125 C57.1302205,3.68153025 53.1774098,3.25979238 49.1189147,3.39811398 C44.7505073,3.54745031 40.1685888,4.27725463 35.5934541,5.24755165 C35.4252874,5.28279168 35.2578348,5.31846017 35.0900608,5.35512837 C34.6876746,5.44196095 34.2856097,5.53057875 33.883652,5.62062471 C33.7526176,5.6495094 33.6204764,5.67878683 33.4894777,5.70809997 C32.9867271,5.82246049 32.4850832,5.93892755 31.9841535,6.05650144 C31.7735345,6.10588033 31.5628083,6.1567231 31.3518323,6.20753016 C31.0494535,6.27954551 30.7480745,6.35256057 30.44566,6.42564704 C30.192553,6.48737958 29.9397674,6.54879079 29.6866247,6.61055903 C29.4419796,6.67093482 29.1988697,6.73159623 28.9550101,6.7926861 C25.3331416,7.69443107 21.7866803,8.64312706 18.425845,9.46832226 C18.3905336,9.47714119 18.3558291,9.48596012 18.3205177,9.49477906 C17.297914,9.7457438 16.2918057,9.98392644 15.3063701,10.2069705 C15.222501,10.2250011 15.1381677,10.2440672 15.0542986,10.2631332 C14.6636947,10.3502871 14.2763043,10.4349774 13.8924843,10.5161331 C13.7824797,10.5398406 13.671511,10.562727 13.5618278,10.5861133 C13.1405541,10.6739456 12.7224937,10.7593143 12.3100746,10.8391132 C12.2708,10.8472537 12.2294189,10.8546088 12.1901086,10.8627493 C11.7387719,10.9503317 11.2931837,11.0314873 10.8529867,11.1073944 C10.7562284,11.1243182 10.661648,11.1391354 10.5648182,11.1553094 C10.2292346,11.2114721 9.89718561,11.2657782 9.56831433,11.3152642 C9.44234996,11.3342945 9.31663551,11.3522537 9.19127811,11.369963 C8.86319232,11.416557 8.54003371,11.4599376 8.22051693,11.498391 C8.12872147,11.5093879 8.03628332,11.5224199 7.94491631,11.5330241 C7.54285144,11.5791896 7.14757038,11.6190711 6.75846613,11.6515977 C6.67491833,11.65831 6.5945482,11.6625231 6.5110004,11.6692355 C6.2074791,11.6921933 5.90831371,11.7112594 5.61339711,11.7253982 C5.49343104,11.7309681 5.3745718,11.7355382 5.25631953,11.7387873 C4.98425361,11.7482489 4.71722199,11.7532475 4.45372508,11.7536045 C4.35193244,11.7536045 4.24946142,11.7550327 4.1495254,11.7536045 C3.79676802,11.7503911 3.45004465,11.7394657 3.11371834,11.717936 Z" id="Shape"></path>
            </g>
        </g>
    </g>
</svg>