<?xml version="1.0" encoding="UTF-8"?>
<svg width="57px" height="68px" viewBox="0 0 57 68" version="1.1" xmlns="http://www.w3.org/2000/svg" xmlns:xlink="http://www.w3.org/1999/xlink">
    <!-- Generator: Sketch 51.3 (57544) - http://www.bohemiancoding.com/sketch -->
    <title>logo-kls</title>
    <desc>Created with Sketch.</desc>
    <defs></defs>
    <g id="UI---Partner-Solutions" stroke="none" stroke-width="1" fill="none" fill-rule="evenodd">
        <g id="Skeleton" transform="translate(-566.000000, -2274.000000)" fill="#231F20" fill-rule="nonzero">
            <g id="logo-kls" transform="translate(566.000000, 2274.000000)">
                <path d="M13.27953,22.5395336 C10.7785497,23.3671687 9.27272727,25.8184032 9.27272727,29.2844618 C9.27272727,32.7795826 11.1430751,34.8042973 13.27953,35.5454545 L13.27953,35.0634471 C12.1080355,34.9625091 9.52692536,33.5411543 9.52692536,29.9612569 C9.52692536,27.4894095 11.0338536,25.8480041 13.27953,25.373964 C13.6766064,25.2900097 14.0973872,25.2450979 14.5355209,25.235798 C14.5853114,25.2348907 14.630792,25.2281993 14.6804691,25.2281993 C16.7218797,25.2281993 18.1303044,25.9337731 19.3580542,26.8283221 L19.3580542,24.0319987 L19.3580542,23.4036878 L19.3580542,6.40459067 L23.9545455,6.40459067 L23.9545455,6.18181818 L9.8655348,6.18181818 L9.8655348,6.40459067 L14.5355209,6.40459067 L14.5355209,22.2740893 C14.0942115,22.3223184 13.6744515,22.4090797 13.27953,22.5395336 Z" id="Shape"></path>
                <path d="M23.9545455,57.7326485 L19.4167707,57.7326485 L19.4167707,38.7247934 L19.4167707,37.6772924 L19.4167707,28.6429148 C18.2047044,27.7496662 16.8141592,27.0454545 14.7989379,27.0454545 C14.7497835,27.0454545 14.7049958,27.0520209 14.6558413,27.053153 L14.6558413,57.7326485 L10.0454545,57.7326485 L10.0454545,57.9545455 L23.9545455,57.9545455 L23.9545455,57.7326485 Z" id="Shape"></path>
                <path d="M50.2272727,6.18181818 L50.0043091,6.18181818 L37.554556,6.18181818 L37.554556,6.40324003 L38.0766102,6.40324003 C43.3687176,6.40324003 42.7736727,10.1634917 39.1198633,14.1451652 L29.3636364,25.5 L29.6530329,25.5 L29.6518924,25.4995488 L39.4178135,14.2190477 C42.9966363,10.3112002 46.4254862,6.40324003 49.9293226,6.40324003 L50.2272727,6.40324003 L50.2272727,6.18181818 Z" id="Shape"></path>
                <path d="M49.3339316,57.7318975 L32.3644379,29.8201409 L29.7385391,29.8201409 L29.0169724,29.8201409 L27.5182331,29.8201409 C26.9954462,29.7314229 26.5107175,29.5508591 26.0542475,29.2989228 C25.9009894,29.2147545 25.7510357,29.1226242 25.603247,29.0233852 C23.4948935,27.6070823 21.8907536,24.7830355 19.3181818,23.1818182 L19.3181818,26.6164267 C21.1919193,27.9791007 22.6569304,29.7712323 25.261977,30.2296085 C25.3500577,30.2455322 25.432669,30.2682804 25.5239402,30.280792 C25.5553894,30.2850572 25.5859271,30.2896069 25.6163508,30.2933035 C25.8999639,30.3282788 26.1966808,30.3481835 26.5085525,30.3498896 C26.4933976,30.3504583 26.5010321,30.351027 26.5444457,30.351027 C26.5868338,30.351027 26.6335519,30.3459087 26.6770795,30.3450556 C26.9400682,30.3385155 27.4095281,30.326004 27.5203981,30.3095116 L44.2094692,57.9545455 L50.2272727,57.9545455 L50.2272727,57.9528393 L50.2272727,57.7318975 L50.0045072,57.7318975 L49.3339316,57.7318975 Z" id="Shape"></path>
                <polygon id="Shape" points="49.0331577 57.1818182 44.5368733 57.1818182 40.1818182 57.1818182 40.1818182 57.4843409 53.3181818 57.4843409 53.3181818 57.1818182"></polygon>
                <polygon id="Shape" points="45.4211114 6.18181818 41.1891339 6.18181818 37.0909091 6.18181818 37.0909091 6.48437955 49.4545455 6.48437955 49.4545455 6.18181818"></polygon>
                <polygon id="Shape" points="0.780164157 0.000247633559 0 0.000247633559 0 68 56.4090909 68 56.4090909 67.2225326 0.780064754 67.2225326 0.780064754 0"></polygon>
            </g>
        </g>
    </g>
</svg>