<?xml version="1.0" encoding="UTF-8"?>
<svg width="145px" height="12px" viewBox="0 0 145 12" version="1.1" xmlns="http://www.w3.org/2000/svg" xmlns:xlink="http://www.w3.org/1999/xlink">
    <!-- Generator: Sketch 51.3 (57544) - http://www.bohemiancoding.com/sketch -->
    <title>logo-type</title>
    <desc>Created with Sketch.</desc>
    <defs></defs>
    <g id="Welcome" stroke="none" stroke-width="1" fill="none" fill-rule="evenodd">
        <g id="Desktop-Copy-20" transform="translate(-140.000000, -79.000000)">
            <g id="Hero" transform="translate(-1.000000, 76.000000)">
                <g id="logo-type" transform="translate(141.000000, 3.000000)">
                    <rect id="Artboard1" x="0" y="0" width="160" height="12.8"></rect>
                    <polygon id="Shape" fill="#AFAFAF" points="2.67168075 2.55498318 2.67168075 4.79162752 7.00182958 4.79162752 7.00182958 6.95167446 2.67168075 6.95167446 2.67168075 11.164532 0.000895529563 11.164532 0.000895529563 0.318338832 7.36530923 0.318338832 7.36530923 2.55498318"></polygon>
                    <path d="M24.1327833,5.69547695 C24.1327833,6.55336793 23.9800165,7.33721475 23.6744829,8.04701741 C23.3689493,8.75682007 22.9448897,9.36449285 22.4023042,9.87003575 C21.8597186,10.3755786 21.2144105,10.7662254 20.4663799,11.0419761 C19.7183494,11.3177268 18.9071049,11.4556021 18.0326467,11.4556021 C17.1581884,11.4556021 16.3495779,11.3177268 15.6068151,11.0419761 C14.8640524,10.7662254 14.2213782,10.3755786 13.6787926,9.87003575 C13.1362071,9.36449285 12.7121475,8.75682007 12.4066139,8.04701741 C12.1010803,7.33721475 11.9483135,6.55336793 11.9483135,5.69547695 C11.9483135,4.82737298 12.1010803,4.04352616 12.4066139,3.34393649 C12.7121475,2.64434682 13.1362071,2.04944028 13.6787926,1.55921686 C14.2213782,1.06899344 14.8640524,0.69111289 15.6068151,0.425575205 C16.3495779,0.16003752 17.1581884,0.0272686776 18.0326467,0.0272686776 C18.9071049,0.0272686776 19.7183494,0.16003752 20.4663799,0.425575205 C21.2144105,0.69111289 21.8597186,1.06899344 22.4023042,1.55921686 C22.9448897,2.04944028 23.3689493,2.64434682 23.6744829,3.34393649 C23.9800165,4.04352616 24.1327833,4.82737298 24.1327833,5.69547695 Z M21.2407496,5.69547695 C21.2407496,5.22567951 21.1617323,4.78652103 21.0036977,4.37800151 C20.8456631,3.969482 20.6270485,3.61968716 20.347854,3.32861701 C20.0686595,3.03754686 19.7315189,2.80775463 19.3364324,2.63924033 C18.9413458,2.47072603 18.5067506,2.38646888 18.0326467,2.38646888 C17.5585428,2.38646888 17.1265815,2.47072603 16.7367627,2.63924033 C16.346944,2.80775463 16.0098034,3.03754686 15.7253411,3.32861701 C15.4408788,3.61968716 15.2222642,3.969482 15.0694974,4.37800151 C14.9167306,4.78652103 14.8403472,5.22567951 14.8403472,5.69547695 C14.8403472,6.18570037 14.9193645,6.63762508 15.0773991,7.05125109 C15.2354337,7.4648771 15.4540483,7.81977843 15.7332428,8.11595508 C16.0124373,8.41213173 16.346944,8.6444772 16.7367627,8.8129915 C17.1265815,8.9815058 17.5585428,9.06576295 18.0326467,9.06576295 C18.5067506,9.06576295 18.9387119,8.9815058 19.3285306,8.8129915 C19.7183494,8.6444772 20.0554899,8.41213173 20.3399522,8.11595508 C20.6244146,7.81977843 20.8456631,7.4648771 21.0036977,7.05125109 C21.1617323,6.63762508 21.2407496,6.18570037 21.2407496,5.69547695 Z" id="Shape" fill="#AFAFAF"></path>
                    <path d="M34.5314619,11.164532 L32.1135321,6.85975757 L31.1969312,6.85975757 L31.1969312,11.164532 L28.5419495,11.164532 L28.5419495,0.318338832 L32.8088845,0.318338832 C33.3462022,0.318338832 33.8703504,0.371957019 34.381329,0.479193391 C34.8923076,0.586429764 35.3506081,0.767710299 35.7562303,1.023035 C36.1618525,1.27835969 36.4858235,1.61538829 36.7281432,2.0341208 C36.970463,2.4528533 37.0916229,2.97371568 37.0916229,3.59670794 C37.0916229,4.33204307 36.8861779,4.94992884 36.4752878,5.45036524 C36.0643978,5.95080165 35.4954731,6.30825622 34.7685138,6.52272897 L37.6921545,11.164532 L34.5314619,11.164532 Z M34.4208377,3.64266639 C34.4208377,3.38734169 34.3655255,3.18052869 34.2549013,3.02222737 C34.1442771,2.86392606 34.0020459,2.74137021 33.8282078,2.65455981 C33.6543697,2.56774941 33.4594603,2.50902473 33.2434797,2.47838577 C33.027499,2.44774681 32.8194201,2.43242732 32.6192429,2.43242732 L31.1811278,2.43242732 L31.1811278,4.96014182 L32.4612083,4.96014182 C32.6824567,4.96014182 32.9089731,4.9422691 33.1407572,4.90652364 C33.3725413,4.87077818 33.5832541,4.80694701 33.7728957,4.71503012 C33.9625372,4.62311322 34.117938,4.49034438 34.2390978,4.31672359 C34.3602577,4.14310279 34.4208377,3.91841706 34.4208377,3.64266639 Z" id="Shape" fill="#AFAFAF"></path>
                    <path d="M52.0258953,9.66322274 C51.5307201,10.2147241 50.9196529,10.6513293 50.1926936,10.9730384 C49.4657343,11.2947476 48.6281508,11.4556021 47.679943,11.4556021 C46.8160204,11.4556021 46.0179455,11.3177268 45.2857184,11.0419761 C44.5534913,10.7662254 43.9187189,10.3755786 43.3814011,9.87003575 C42.8440834,9.36449285 42.4226577,8.75937332 42.1171241,8.05467715 C41.8115905,7.34998099 41.6588237,6.57379391 41.6588237,5.72611592 C41.6588237,4.85801195 41.8142244,4.07161188 42.1250258,3.36691571 C42.4358273,2.66221955 42.8651547,2.06220651 43.413008,1.5668766 C43.9608614,1.07154669 44.6035356,0.69111289 45.3410305,0.425575205 C46.0785254,0.16003752 46.8739664,0.0272686776 47.7273534,0.0272686776 C48.5175265,0.0272686776 49.2945301,0.162590767 50.0583642,0.433234946 C50.8221982,0.703879125 51.4411672,1.09963241 51.9152711,1.62049479 L50.0820694,3.39755468 C49.829214,3.06052608 49.4973412,2.81030788 49.0864512,2.64690007 C48.6755612,2.48349226 48.2541355,2.40178836 47.8221742,2.40178836 C47.3480703,2.40178836 46.9134751,2.48604551 46.5183885,2.65455981 C46.1233019,2.82307411 45.7835275,3.05541958 45.4990651,3.35159623 C45.2146028,3.64777288 44.9933543,3.99756772 44.8353197,4.40098074 C44.6772851,4.80439376 44.5982678,5.24610548 44.5982678,5.72611592 C44.5982678,6.21633933 44.6772851,6.6657108 44.8353197,7.07423032 C44.9933543,7.48274983 45.2119689,7.83254467 45.4911634,8.12361482 C45.7703579,8.41468497 46.1048645,8.64192396 46.4946833,8.80533176 C46.8845021,8.96873957 47.3111955,9.05044347 47.7747638,9.05044347 C48.3120815,9.05044347 48.7809176,8.94831359 49.181272,8.74405383 C49.5816264,8.53979408 49.9029635,8.27425639 50.1452832,7.94744078 L52.0258953,9.66322274 Z" id="Shape" fill="#AFAFAF"></path>
                    <polygon id="Shape" fill="#AFAFAF" points="56.8145026 11.164532 56.8145026 0.318338832 64.3369509 0.318338832 64.3369509 2.5396637 59.422074 2.5396637 59.422074 4.57715478 64.068292 4.57715478 64.068292 6.67592379 59.422074 6.67592379 59.422074 8.92788762 64.6214132 8.92788762 64.6214132 11.164532"></polygon>
                    <path d="M75.7944615,3.13712349 C75.5626774,2.85115983 75.2597777,2.62392085 74.8857624,2.45540655 C74.5117471,2.28689225 74.1509014,2.2026351 73.8032252,2.2026351 C73.6241193,2.2026351 73.4423794,2.21795458 73.2580057,2.24859354 C73.073632,2.27923251 72.9076956,2.33795719 72.7601966,2.42476758 C72.6126976,2.51157798 72.4889038,2.62392085 72.3888152,2.76179618 C72.2887267,2.89967152 72.2386824,3.07584556 72.2386824,3.29031831 C72.2386824,3.47415209 72.278191,3.62734691 72.3572083,3.74990276 C72.4362256,3.87245861 72.5521177,3.97969499 72.7048845,4.07161188 C72.8576513,4.16352877 73.0393911,4.24778592 73.250104,4.32438333 C73.4608168,4.40098074 73.6978688,4.48013139 73.9612598,4.5618353 C74.3405429,4.68439115 74.7356295,4.81971324 75.1465195,4.96780157 C75.5574096,5.11588989 75.9314248,5.31248991 76.2685654,5.55760162 C76.6057059,5.80271332 76.8849004,6.10654971 77.1061489,6.46911078 C77.3273974,6.83167185 77.4380216,7.28359657 77.4380216,7.82488492 C77.4380216,8.44787719 77.3194957,8.9866123 77.0824437,9.44109026 C76.8453918,9.89556822 76.5266886,10.2708955 76.1263342,10.5670722 C75.7259798,10.8632488 75.2676794,11.0828281 74.7514329,11.2258099 C74.2351865,11.3687917 73.7031366,11.4402826 73.1552832,11.4402826 C72.3545744,11.4402826 71.5802047,11.3049605 70.8321742,11.0343164 C70.0841436,10.7636722 69.4625407,10.3781319 68.9673655,9.87769549 L70.7373534,8.13127456 C71.0112801,8.45809017 71.3721258,8.7312876 71.8198906,8.95086684 C72.2676554,9.17044608 72.7127862,9.2802357 73.1552832,9.2802357 C73.3554604,9.2802357 73.5503698,9.25980972 73.7400113,9.21895777 C73.9296529,9.17810582 74.0955892,9.1117214 74.2378204,9.01980451 C74.3800516,8.92788762 74.4933097,8.80533176 74.5775949,8.65213694 C74.66188,8.49894212 74.7040226,8.31510834 74.7040226,8.1006356 C74.7040226,7.89637584 74.6513444,7.72275505 74.5459879,7.57977322 C74.4406315,7.43679139 74.2904986,7.30657579 74.0955892,7.18912643 C73.9006799,7.07167707 73.6583601,6.9644407 73.3686299,6.86741731 C73.0788998,6.77039393 72.749661,6.6657108 72.3809135,6.55336793 C72.0227017,6.44102507 71.6723916,6.30825622 71.3299832,6.15506141 C70.9875749,6.00186659 70.6820413,5.80526657 70.4133824,5.56526136 C70.1447235,5.32525614 69.9287429,5.03418599 69.7654404,4.69205089 C69.602138,4.3499158 69.5204867,3.93373654 69.5204867,3.44351312 C69.5204867,2.84094684 69.6469144,2.32519095 69.8997698,1.89624546 C70.1526253,1.46729997 70.484498,1.11495189 70.895388,0.839201214 C71.306278,0.563450541 71.7698463,0.361744031 72.2860927,0.234081682 C72.8023392,0.106419334 73.3238535,0.0425881595 73.8506356,0.0425881595 C74.4827741,0.0425881595 75.1280821,0.154931026 75.7865598,0.37961676 C76.4450374,0.604302493 77.0218638,0.936224599 77.517039,1.37538308 L75.7944615,3.13712349 Z" id="Shape" fill="#AFAFAF"></path>
                    <path d="M96.2915528,7.07423032 C96.2915528,7.72786154 96.1782947,8.32276808 95.9517784,8.85894995 C95.7252621,9.39513181 95.4012911,9.85471627 94.9798654,10.2377033 C94.5584397,10.6206904 94.050095,10.9194203 93.4548313,11.133893 C92.8595675,11.3483657 92.198456,11.4556021 91.4714967,11.4556021 C90.7340017,11.4556021 90.0702563,11.3483657 89.4802603,11.133893 C88.8902644,10.9194203 88.3898214,10.6206904 87.9789314,10.2377033 C87.5680413,9.85471627 87.2519721,9.39513181 87.0307236,8.85894995 C86.8094751,8.32276808 86.6988509,7.72786154 86.6988509,7.07423032 L86.6988509,0.318338832 L89.3854396,0.318338832 L89.3854396,6.85975757 C89.3854396,7.15593422 89.4249482,7.43679139 89.5039655,7.70232907 C89.5829829,7.96786676 89.7041427,8.20531872 89.8674452,8.41468497 C90.0307476,8.62405123 90.2467283,8.79001228 90.5153872,8.91256813 C90.784046,9.03512399 91.108017,9.09640192 91.4873001,9.09640192 C91.8665832,9.09640192 92.1905542,9.03512399 92.4592131,8.91256813 C92.727872,8.79001228 92.9464865,8.62405123 93.1150568,8.41468497 C93.2836271,8.20531872 93.404787,7.96786676 93.4785365,7.70232907 C93.5522859,7.43679139 93.5891607,7.15593422 93.5891607,6.85975757 L93.5891607,0.318338832 L96.2915528,0.318338832 L96.2915528,7.07423032 Z" id="Shape" fill="#AFAFAF"></path>
                    <polygon id="Shape" fill="#AFAFAF" points="107.954508 11.164532 103.450522 4.07161188 103.403111 4.07161188 103.466325 11.164532 100.84295 11.164532 100.84295 0.318338832 103.924625 0.318338832 108.412809 7.39593943 108.460219 7.39593943 108.397005 0.318338832 111.02038 0.318338832 111.02038 11.164532 107.954508 11.164532"></polygon>
                    <rect id="Rectangle-path" fill="#AFAFAF" x="116.330344" y="0.318338832" width="2.71819561" height="10.8461931"></rect>
                    <polygon id="Shape" fill="#AFAFAF" points="129.463021 2.55498318 129.463021 11.164532 126.760629 11.164532 126.760629 2.55498318 123.599937 2.55498318 123.599937 0.318338832 132.623714 0.318338832 132.623714 2.55498318"></polygon>
                    <polygon id="Shape" fill="#AFAFAF" points="137.175111 11.164532 137.175111 0.318338832 144.69756 0.318338832 144.69756 2.5396637 139.782683 2.5396637 139.782683 4.57715478 144.428901 4.57715478 144.428901 6.67592379 139.782683 6.67592379 139.782683 8.92788762 144.982022 8.92788762 144.982022 11.164532"></polygon>
                </g>
            </g>
        </g>
    </g>
</svg>