<?xml version="1.0" encoding="UTF-8"?>
<svg width="605px" height="48px" viewBox="0 0 605 48" version="1.1" xmlns="http://www.w3.org/2000/svg" xmlns:xlink="http://www.w3.org/1999/xlink">
    <!-- Generator: Sketch 51.3 (57544) - http://www.bohemiancoding.com/sketch -->
    <title>logo-type</title>
    <desc>Created with Sketch.</desc>
    <defs></defs>
    <g id="UI---Global" stroke="none" stroke-width="1" fill="none" fill-rule="evenodd">
        <g id="Colors-Copy" transform="translate(-418.000000, -318.000000)" fill="#4D4D4D">
            <g id="logo-type" transform="translate(418.000000, 318.000000)">
                <polygon id="Shape" points="11.1473576 10.6457632 11.1473576 19.9651147 29.2145303 19.9651147 29.2145303 28.9653103 11.1473576 28.9653103 11.1473576 46.5188832 0.0037365199 46.5188832 0.0037365199 1.3264118 30.7311178 1.3264118 30.7311178 10.6457632"></polygon>
                <path d="M100.691958,23.731154 C100.691958,27.3056997 100.054552,30.5717281 98.779739,33.5292392 C97.5049264,36.4867503 95.7355743,39.0187202 93.4716828,41.125149 C91.2077914,43.2315777 88.5152991,44.8592726 85.394206,46.0082338 C82.2731129,47.1571949 78.8882655,47.7316755 75.2396637,47.7316755 C71.5910619,47.7316755 68.2172042,47.1571949 65.1180907,46.0082338 C62.0189771,44.8592726 59.3374746,43.2315777 57.0735831,41.125149 C54.8096916,39.0187202 53.0403396,36.4867503 51.7655269,33.5292392 C50.4907142,30.5717281 49.8533079,27.3056997 49.8533079,23.731154 C49.8533079,20.1140541 50.4907142,16.8480257 51.7655269,13.9330687 C53.0403396,11.0181118 54.8096916,8.53933449 57.0735831,6.49673692 C59.3374746,4.45413934 62.0189771,2.87963704 65.1180907,1.77323002 C68.2172042,0.666823 71.5910619,0.11361949 75.2396637,0.11361949 C78.8882655,0.11361949 82.2731129,0.666823 85.394206,1.77323002 C88.5152991,2.87963704 91.2077914,4.45413934 93.4716828,6.49673692 C95.7355743,8.53933449 97.5049264,11.0181118 98.779739,13.9330687 C100.054552,16.8480257 100.691958,20.1140541 100.691958,23.731154 Z M88.6251967,23.731154 C88.6251967,21.7736646 88.2955038,19.9438376 87.6361179,18.241673 C86.9767321,16.5395083 86.0645816,15.0820299 84.8996666,13.8692375 C83.7347516,12.6564452 82.3280617,11.6989776 80.6795971,10.9968347 C79.0311324,10.2946918 77.2178213,9.94362033 75.2396637,9.94362033 C73.2615061,9.94362033 71.4591847,10.2946918 69.8326996,10.9968347 C68.2062145,11.6989776 66.7995246,12.6564452 65.6126301,13.8692375 C64.4257355,15.0820299 63.5135851,16.5395083 62.8761787,18.241673 C62.2387724,19.9438376 61.9200692,21.7736646 61.9200692,23.731154 C61.9200692,25.7737515 62.2497621,27.6567712 62.909148,29.3802129 C63.5685339,31.1036546 64.4806843,32.5824101 65.6455993,33.8164795 C66.8105144,35.0505489 68.2062145,36.018655 69.8326996,36.7207979 C71.4591847,37.4229408 73.2615061,37.7740123 75.2396637,37.7740123 C77.2178213,37.7740123 79.0201426,37.4229408 80.6466278,36.7207979 C82.2731129,36.018655 83.6798027,35.0505489 84.8666973,33.8164795 C86.0535919,32.5824101 86.9767321,31.1036546 87.6361179,29.3802129 C88.2955038,27.6567712 88.6251967,25.7737515 88.6251967,23.731154 Z" id="Shape"></path>
                <path d="M144.079548,46.5188832 L133.990944,28.5823232 L130.166506,28.5823232 L130.166506,46.5188832 L119.088824,46.5188832 L119.088824,1.3264118 L136.892242,1.3264118 C139.134154,1.3264118 141.321117,1.54982091 143.453131,1.99663913 C145.585146,2.44345735 147.497365,3.19879291 149.189788,4.26264582 C150.882212,5.32649872 152.233953,6.73078455 153.245011,8.47550332 C154.25607,10.2202221 154.761599,12.390482 154.761599,14.9862831 C154.761599,18.0501795 153.904397,20.6247035 152.189994,22.7098552 C150.475591,24.7950069 148.101802,26.2844009 145.068627,27.1780374 L157.267265,46.5188832 L144.079548,46.5188832 Z M143.617978,15.1777766 C143.617978,14.1139237 143.387193,13.2522029 142.925623,12.5926141 C142.464053,11.9330253 141.870605,11.4223759 141.145281,11.0606659 C140.419956,10.6989559 139.606714,10.4542697 138.705553,10.3266074 C137.804392,10.198945 136.936201,10.1351138 136.100979,10.1351138 L130.100568,10.1351138 L130.100568,20.6672576 L135.441593,20.6672576 C136.364733,20.6672576 137.309853,20.5927879 138.276952,20.4438485 C139.244052,20.2949091 140.123233,20.0289459 140.914496,19.6459588 C141.705759,19.2629718 142.354155,18.7097683 142.859684,17.9863483 C143.365213,17.2629283 143.617978,16.3267378 143.617978,15.1777766 Z" id="Shape"></path>
                <path d="M217.073563,40.2634281 C215.007487,42.5613504 212.457862,44.3805388 209.424687,45.7209935 C206.391512,47.0614482 202.896767,47.7316755 198.940452,47.7316755 C195.335809,47.7316755 192.005911,47.1571949 188.950756,46.0082338 C185.895602,44.8592726 183.247068,43.2315777 181.005156,41.125149 C178.763244,39.0187202 177.004882,36.4973888 175.730069,33.5611548 C174.455257,30.6249208 173.81785,27.390808 173.81785,23.8588163 C173.81785,20.2417164 174.466247,16.9650495 175.763039,14.0288155 C177.059831,11.0925815 178.851163,8.59252714 181.137034,6.5286525 C183.422905,4.46477787 186.104407,2.87963704 189.181541,1.77323002 C192.258675,0.666823 195.577584,0.11361949 199.138268,0.11361949 C202.435197,0.11361949 205.677177,0.677461529 208.864209,1.80514561 C212.051241,2.93282969 214.633835,4.58180169 216.611993,6.75206161 L208.963117,14.1564778 C207.9081,12.752192 206.523389,11.7096161 204.808986,11.0287503 C203.094583,10.3478844 201.336221,10.0074515 199.533899,10.0074515 C197.555742,10.0074515 195.74243,10.358523 194.093966,11.0606659 C192.445501,11.7628088 191.027822,12.7309149 189.840927,13.9649843 C188.654032,15.1990537 187.730892,16.6565322 187.071506,18.3374197 C186.41212,20.0183073 186.082428,21.8587729 186.082428,23.8588163 C186.082428,25.9014139 186.41212,27.773795 187.071506,29.4759596 C187.730892,31.1781243 188.643043,32.6356028 189.807958,33.8483951 C190.972873,35.0611874 192.368573,36.0080165 193.995058,36.6888823 C195.621543,37.3697482 197.401885,37.7101811 199.336083,37.7101811 C201.577995,37.7101811 203.534173,37.28464 205.204618,36.4335576 C206.875062,35.5824753 208.215813,34.4760683 209.226871,33.1143366 L217.073563,40.2634281 Z" id="Shape"></path>
                <polygon id="Shape" points="237.053614 46.5188832 237.053614 1.3264118 268.440381 1.3264118 268.440381 10.5819321 247.933481 10.5819321 247.933481 19.0714782 267.319425 19.0714782 267.319425 27.8163491 247.933481 27.8163491 247.933481 37.1995317 269.627276 37.1995317 269.627276 46.5188832"></polygon>
                <path d="M316.245857,13.0713479 C315.278757,11.8798326 314.014934,10.9330035 312.454388,10.2308606 C310.893841,9.52871769 309.388244,9.17764623 307.937595,9.17764623 C307.190291,9.17764623 306.431997,9.24147741 305.662713,9.36913976 C304.89343,9.49680211 304.201075,9.74148827 303.585648,10.1031983 C302.970221,10.4649082 302.453702,10.9330035 302.036091,11.5074841 C301.61848,12.0819647 301.409675,12.8160232 301.409675,13.7096596 C301.409675,14.4756337 301.574521,15.1139454 301.904214,15.6245948 C302.233907,16.1352442 302.717457,16.5820624 303.354863,16.9650495 C303.992269,17.3480365 304.750563,17.699108 305.629744,18.0182639 C306.508925,18.3374197 307.498004,18.6672141 308.596981,19.0076471 C310.179507,19.5182965 311.827971,20.0821385 313.542375,20.6991732 C315.256778,21.3162079 316.817324,22.1353746 318.224014,23.1566734 C319.630704,24.1779722 320.795619,25.4439571 321.718759,26.9546283 C322.641899,28.4652994 323.10347,30.348319 323.10347,32.6036872 C323.10347,35.1994883 322.60893,37.4442179 321.619851,39.3378761 C320.630773,41.2315342 319.301011,42.795398 317.630567,44.0294674 C315.960123,45.2635367 314.047904,46.1784502 311.89391,46.7742079 C309.739916,47.3699655 307.519984,47.6678443 305.234113,47.6678443 C301.893224,47.6678443 298.662234,47.1040023 295.54114,45.9763182 C292.420047,44.8486341 289.826463,43.2422162 287.760387,41.1570645 L295.145509,33.8803107 C296.288444,35.2420424 297.794042,36.380365 299.662302,37.2952785 C301.530562,38.210192 303.387832,38.6676487 305.234113,38.6676487 C306.069335,38.6676487 306.882577,38.5825405 307.67384,38.412324 C308.465103,38.2421076 309.157459,37.9655058 309.750906,37.5825188 C310.344353,37.1995317 310.816913,36.6888823 311.168585,36.0505706 C311.520258,35.4122589 311.696094,34.6462848 311.696094,33.7526483 C311.696094,32.901566 311.476299,32.178146 311.036708,31.5823884 C310.597118,30.9866308 309.970701,30.4440658 309.157459,29.9546935 C308.344216,29.4653211 307.333158,29.0185029 306.124284,28.6142388 C304.915409,28.2099747 303.541689,27.773795 302.003122,27.3056997 C300.508514,26.8376044 299.046875,26.2844009 297.618206,25.6460892 C296.189537,25.0077775 294.914724,24.1886107 293.793768,23.188589 C292.672812,22.1885673 291.771651,20.9757749 291.090286,19.5502121 C290.40892,18.1246492 290.068238,16.3905689 290.068238,14.3479713 C290.068238,11.8372785 290.595746,9.68829563 291.650764,7.90102275 C292.705781,6.11374987 294.090492,4.64563286 295.804895,3.49667173 C297.519298,2.34771059 299.453497,1.50726679 301.60749,0.975340343 C303.761484,0.443413891 305.937458,0.177450664 308.13541,0.177450664 C310.772954,0.177450664 313.465446,0.645545942 316.212887,1.5817365 C318.960328,2.51792705 321.367087,3.90093583 323.433163,5.73076282 L316.245857,13.0713479 Z" id="Shape"></path>
                <path d="M401.768203,29.4759596 C401.768203,32.1994231 401.295643,34.6782004 400.350524,36.9122914 C399.405404,39.1463825 398.053663,41.0613178 396.295301,42.6570971 C394.536938,44.2528765 392.415914,45.4975844 389.932227,46.3912208 C387.44854,47.2848573 384.690109,47.7316755 381.656934,47.7316755 C378.5798,47.7316755 375.81038,47.2848573 373.348672,46.3912208 C370.886965,45.4975844 368.79891,44.2528765 367.084507,42.6570971 C365.370104,41.0613178 364.051332,39.1463825 363.128192,36.9122914 C362.205051,34.6782004 361.743481,32.1994231 361.743481,29.4759596 L361.743481,1.3264118 L372.953041,1.3264118 L372.953041,28.5823232 C372.953041,29.8163926 373.117887,30.9866308 373.44758,32.0930378 C373.777273,33.1994448 374.282802,34.188828 374.964168,35.0611874 C375.645533,35.9335468 376.546694,36.6250512 377.66765,37.1357006 C378.788606,37.64635 380.140347,37.9016747 381.722873,37.9016747 C383.305399,37.9016747 384.65714,37.64635 385.778096,37.1357006 C386.899052,36.6250512 387.811202,35.9335468 388.514547,35.0611874 C389.217892,34.188828 389.723421,33.1994448 390.031135,32.0930378 C390.338848,30.9866308 390.492705,29.8163926 390.492705,28.5823232 L390.492705,1.3264118 L401.768203,1.3264118 L401.768203,29.4759596 Z" id="Shape"></path>
                <polygon id="Shape" points="450.43088 46.5188832 431.638383 16.9650495 431.440567 16.9650495 431.704322 46.5188832 420.758516 46.5188832 420.758516 1.3264118 433.616541 1.3264118 452.343099 30.8164143 452.540915 30.8164143 452.27716 1.3264118 463.222966 1.3264118 463.222966 46.5188832 450.43088 46.5188832"></polygon>
                <rect id="Rectangle-path" x="485.378331" y="1.3264118" width="11.3414369" height="45.1924714"></rect>
                <polygon id="Shape" points="540.173296 10.6457632 540.173296 46.5188832 528.897798 46.5188832 528.897798 10.6457632 515.710081 10.6457632 515.710081 1.3264118 553.361014 1.3264118 553.361014 10.6457632"></polygon>
                <polygon id="Shape" points="572.351326 46.5188832 572.351326 1.3264118 603.738094 1.3264118 603.738094 10.5819321 583.231193 10.5819321 583.231193 19.0714782 602.617138 19.0714782 602.617138 27.8163491 583.231193 27.8163491 583.231193 37.1995317 604.924988 37.1995317 604.924988 46.5188832"></polygon>
            </g>
        </g>
    </g>
</svg>