<svg width="336" height="44" viewBox="0 0 336 44" fill="none" xmlns="http://www.w3.org/2000/svg">
<path d="M9.39202 32.8195C9.2461 32.8126 9.10618 32.7929 8.96122 32.7839C8.1661 32.7286 7.38802 32.6525 6.6241 32.5595C6.33706 32.5239 6.05818 32.4824 5.77402 32.4418C5.13514 32.349 4.50802 32.2432 3.89218 32.1237C3.63298 32.0722 3.3721 32.0247 3.11722 31.9704C2.27914 31.7844 1.45906 31.5809 0.671143 31.3408C2.13706 31.3802 3.60106 31.3802 5.05906 31.3526C5.53618 31.3427 6.00898 31.3102 6.4861 31.2952C7.46314 31.2587 8.4421 31.225 9.41698 31.1628C9.99106 31.1242 10.562 31.0668 11.1351 31.0205C12.0071 30.9481 12.8821 30.876 13.7521 30.7833C14.3631 30.718 14.9761 30.6369 15.5852 30.5607C16.4151 30.457 17.2451 30.3522 18.0731 30.2317C18.7062 30.1387 19.3362 30.0338 19.9671 29.932C20.7702 29.8006 21.573 29.6661 22.3751 29.5199C23.0231 29.4004 23.6701 29.2758 24.3181 29.1463C25.101 28.993 25.8822 28.8319 26.6641 28.6628C27.326 28.5204 27.9901 28.3731 28.653 28.221C29.4162 28.045 30.1801 27.8631 30.9431 27.6773C31.6191 27.5103 32.2962 27.3433 32.973 27.1691C33.716 26.9774 34.461 26.7767 35.2052 26.5751C35.9012 26.3862 36.5972 26.1986 37.293 26.0028C38.007 25.8 38.7231 25.5905 39.4352 25.381C40.1651 25.1666 40.8971 24.9559 41.6271 24.7345C42.2751 24.5367 42.9241 24.3322 43.5771 24.1305C44.3751 23.8824 45.1741 23.6342 45.9762 23.3782C46.4442 23.2281 46.9182 23.0689 47.39 22.9175C55.6482 20.2298 64.0062 17.1872 72.5972 14.2098C72.6632 14.1873 72.7261 14.1664 72.7911 14.1436H72.793C93.8562 6.84465 116.34 0 142.324 0C158.577 0 174.203 2.171 194.633 16.9462C194.648 16.9559 194.666 16.9687 194.681 16.9827C196.141 18.0384 197.622 19.1534 199.133 20.3425C237.537 18.6621 316.431 20.3159 335.387 43.8275C303.31 24.01 239.002 27.7603 195.055 29.8639C194.176 29.1729 193.313 28.5117 192.452 27.8631C192.198 27.6733 191.947 27.4875 191.694 27.2996C191.034 26.8083 190.374 26.3269 189.718 25.8624C189.511 25.711 189.298 25.5571 189.089 25.4067C188.256 24.8195 187.428 24.2522 186.612 23.7044C186.446 23.5927 186.281 23.4869 186.116 23.3763C185.435 22.9256 184.757 22.4846 184.084 22.0606C183.875 21.927 183.668 21.7966 183.461 21.6682C181.796 20.6322 180.162 19.6732 178.554 18.7945C178.442 18.7342 178.335 18.678 178.224 18.6166C177.445 18.1955 176.674 17.7922 175.911 17.4057C175.874 17.3879 175.839 17.3692 175.803 17.3523C174.961 16.9293 174.126 16.525 173.298 16.1443C173.298 16.1443 173.304 16.1443 173.306 16.1443C160.681 10.3112 149.61 9.13 138.243 9.51741C126.008 9.93567 113.175 11.9797 100.361 14.6973C99.89 14.796 99.421 14.8959 98.9511 14.9986C97.8241 15.2418 96.698 15.49 95.5722 15.7422C95.2052 15.8231 94.8351 15.9051 94.4682 15.9872C93.0601 16.3075 91.6551 16.6337 90.2521 16.963C89.6622 17.1013 89.072 17.2437 88.4811 17.386C87.6342 17.5877 86.7901 17.7922 85.9431 17.9969C85.2342 18.1698 84.5262 18.3418 83.8172 18.5148C83.132 18.6839 82.4511 18.8538 81.7681 19.0249C71.624 21.5505 61.6911 24.2076 52.2781 26.5188C52.1792 26.5435 52.082 26.5682 51.9831 26.5929C49.119 27.2958 46.3011 27.9629 43.5411 28.5876C43.3062 28.6381 43.07 28.6915 42.8351 28.7449C41.7411 28.989 40.6561 29.2262 39.5811 29.4535C39.273 29.5199 38.9622 29.584 38.655 29.6495C37.4751 29.8955 36.3042 30.1346 35.1491 30.3581C35.0391 30.3809 34.9232 30.4015 34.8131 30.4243C33.549 30.6696 32.301 30.8969 31.0681 31.1095C30.7971 31.1569 30.5322 31.1984 30.261 31.2437C29.3211 31.401 28.3911 31.5531 27.47 31.6917C27.1172 31.745 26.7651 31.7953 26.414 31.8449C25.4951 31.9754 24.59 32.0969 23.6951 32.2046C23.438 32.2354 23.1791 32.2719 22.9232 32.3016C21.7971 32.4309 20.69 32.5426 19.6002 32.6337C19.3662 32.6525 19.1411 32.6643 18.9071 32.6831C18.057 32.7474 17.2191 32.8008 16.3931 32.8404C16.0571 32.856 15.7242 32.8688 15.393 32.8779C14.631 32.9044 13.8831 32.9184 13.1451 32.9194C12.86 32.9194 12.573 32.9234 12.2931 32.9194C11.3051 32.9104 10.334 32.8798 9.39202 32.8195V32.8195Z" fill="#12161C"/>
</svg>
